<svg xmlns="http://www.w3.org/2000/svg" xmlns:xlink="http://www.w3.org/1999/xlink" fill="none" version="1.1" width="499.9999694824219" height="499.9999694824219" viewBox="0 0 499.9999694824219 499.9999694824219"><defs><clipPath id="master_svg0_168_0509"><rect x="0" y="0" width="499.9999694824219" height="499.9999694824219" rx="0"/></clipPath></defs><g clip-path="url(#master_svg0_168_0509)"><g><g transform="matrix(0.9945219159126282,0.10452846437692642,-0.10452846437692642,0.9945219159126282,2.4831954479317915,-28.504369466914007)"><path d="M277.3561507815552,9.43896484375C277.3561507815552,9.43896484375,273.1894807815552,9.43896484375,273.1894807815552,9.43896484375C273.1894807815552,9.43896484375,273.1894807815552,26.10566484375,273.1894807815552,26.10566484375C273.1894807815552,26.10566484375,277.3561507815552,26.10566484375,277.3561507815552,26.10566484375C277.3561507815552,26.10566484375,277.3561507815552,9.43896484375,277.3561507815552,9.43896484375C277.3561507815552,9.43896484375,277.3561507815552,9.43896484375,277.3561507815552,9.43896484375Z" fill="#FFFFFF" fill-opacity="0.30000001192092896"/></g><g transform="matrix(0.9781476259231567,0.20791170001029968,-0.20791170001029968,0.9781476259231567,9.257072079896147,-61.71243796703979)"><path d="M302.3725082034302,13.181396484375C302.3725082034302,13.181396484375,298.2058382034302,13.181396484375,298.2058382034302,13.181396484375C298.2058382034302,13.181396484375,298.2058382034302,29.848096484375,298.2058382034302,29.848096484375C298.2058382034302,29.848096484375,302.3725082034302,29.848096484375,302.3725082034302,29.848096484375C302.3725082034302,29.848096484375,302.3725082034302,13.181396484375,302.3725082034302,13.181396484375C302.3725082034302,13.181396484375,302.3725082034302,13.181396484375,302.3725082034302,13.181396484375Z" fill="#FFFFFF" fill-opacity="0.30000001192092896"/></g><g transform="matrix(0.9510565400123596,0.30901700258255005,-0.30901700258255005,0.9510565400123596,21.825034664495604,-98.76371640552549)"><path d="M326.8639632815552,19.51708984375C326.8639632815552,19.51708984375,322.6972932815552,19.51708984375,322.6972932815552,19.51708984375C322.6972932815552,19.51708984375,322.6972932815552,36.18378984375,322.6972932815552,36.18378984375C322.6972932815552,36.18378984375,326.8639632815552,36.18378984375,326.8639632815552,36.18378984375C326.8639632815552,36.18378984375,326.8639632815552,19.51708984375,326.8639632815552,19.51708984375C326.8639632815552,19.51708984375,326.8639632815552,19.51708984375,326.8639632815552,19.51708984375Z" fill="#FFFFFF" fill-opacity="0.30000001192092896"/></g><g transform="matrix(0.9135454297065735,0.4067366421222687,-0.4067366421222687,0.9135454297065735,41.48993757939337,-138.43646227363038)"><path d="M350.5578109378052,28.379150390625C350.5578109378052,28.379150390625,346.3911409378052,28.379150390625,346.3911409378052,28.379150390625C346.3911409378052,28.379150390625,346.3911409378052,45.045850390625,346.3911409378052,45.045850390625C346.3911409378052,45.045850390625,350.5578109378052,45.045850390625,350.5578109378052,45.045850390625C350.5578109378052,45.045850390625,350.5578109378052,28.379150390625,350.5578109378052,28.379150390625C350.5578109378052,28.379150390625,350.5578109378052,28.379150390625,350.5578109378052,28.379150390625Z" fill="#FFFFFF" fill-opacity="0.30000001192092896"/></g><g transform="matrix(0.8660253882408142,0.5,-0.5,0.8660253882408142,69.27458398135269,-179.19884272415948)"><path d="M373.1935531253052,39.668701171875C373.1935531253052,39.668701171875,369.0268831253052,39.668701171875,369.0268831253052,39.668701171875C369.0268831253052,39.668701171875,369.0268831253052,56.335401171875,369.0268831253052,56.335401171875C369.0268831253052,56.335401171875,373.1935531253052,56.335401171875,373.1935531253052,56.335401171875C373.1935531253052,56.335401171875,373.1935531253052,39.668701171875,373.1935531253052,39.668701171875C373.1935531253052,39.668701171875,373.1935531253052,39.668701171875,373.1935531253052,39.668701171875Z" fill="#FFFFFF" fill-opacity="0.800000011920929"/></g><g transform="matrix(0.80901700258255,0.5877852439880371,-0.5877852439880371,0.80901700258255,105.85955528720791,-219.27585179006155)"><path d="M394.5272933596802,53.26318359375C394.5272933596802,53.26318359375,390.3606233596802,53.26318359375,390.3606233596802,53.26318359375C390.3606233596802,53.26318359375,390.3606233596802,69.92988359374999,390.3606233596802,69.92988359374999C390.3606233596802,69.92988359374999,394.5272933596802,69.92988359374999,394.5272933596802,69.92988359374999C394.5272933596802,69.92988359374999,394.5272933596802,53.26318359375,394.5272933596802,53.26318359375C394.5272933596802,53.26318359375,394.5272933596802,53.26318359375,394.5272933596802,53.26318359375Z" fill="#FFFFFF" fill-opacity="0.30000001192092896"/></g><g transform="matrix(0.7431448101997375,0.6691306233406067,-0.6691306233406067,0.7431448101997375,151.53024177430183,-256.724860006495)"><path d="M414.3273421878052,69.012451171875C414.3273421878052,69.012451171875,410.1606721878052,69.012451171875,410.1606721878052,69.012451171875C410.1606721878052,69.012451171875,410.1606721878052,85.67915117187499,410.1606721878052,85.67915117187499C410.1606721878052,85.67915117187499,414.3273421878052,85.67915117187499,414.3273421878052,85.67915117187499C414.3273421878052,85.67915117187499,414.3273421878052,69.012451171875,414.3273421878052,69.012451171875C414.3273421878052,69.012451171875,414.3273421878052,69.012451171875,414.3273421878052,69.012451171875Z" fill="#FFFFFF" fill-opacity="0.30000001192092896"/></g><g transform="matrix(0.6691305637359619,0.7431448698043823,-0.7431448698043823,0.6691305637359619,206.14198974968053,-289.5122209030891)"><path d="M432.3651839846802,86.7451171875C432.3651839846802,86.7451171875,428.1985139846802,86.7451171875,428.1985139846802,86.7451171875C428.1985139846802,86.7451171875,428.1985139846802,103.41181718749999,428.1985139846802,103.41181718749999C428.1985139846802,103.41181718749999,432.3651839846802,103.41181718749999,432.3651839846802,103.41181718749999C432.3651839846802,103.41181718749999,432.3651839846802,86.7451171875,432.3651839846802,86.7451171875C432.3651839846802,86.7451171875,432.3651839846802,86.7451171875,432.3651839846802,86.7451171875Z" fill="#FFFFFF" fill-opacity="0.30000001192092896"/></g><g transform="matrix(0.5877853035926819,0.80901700258255,-0.80901700258255,0.5877853035926819,269.1097201677209,-315.6332019902098)"><path d="M448.4540511721802,106.26220703125C448.4540511721802,106.26220703125,444.2873811721802,106.26220703125,444.2873811721802,106.26220703125C444.2873811721802,106.26220703125,444.2873811721802,122.92890703124999,444.2873811721802,122.92890703124999C444.2873811721802,122.92890703124999,448.4540511721802,122.92890703124999,448.4540511721802,122.92890703124999C448.4540511721802,122.92890703124999,448.4540511721802,106.26220703125,448.4540511721802,106.26220703125C448.4540511721802,106.26220703125,448.4540511721802,106.26220703125,448.4540511721802,106.26220703125Z" fill="#FFFFFF" fill-opacity="0.30000001192092896"/></g><g transform="matrix(0.4999999701976776,0.866025447845459,-0.866025447845459,0.4999999701976776,339.41898043319895,-333.171175622359)"><path d="M462.4108382815552,127.35986328125C462.4108382815552,127.35986328125,458.2441682815552,127.35986328125,458.2441682815552,127.35986328125C458.2441682815552,127.35986328125,458.2441682815552,144.02656328125,458.2441682815552,144.02656328125C458.2441682815552,144.02656328125,462.4108382815552,144.02656328125,462.4108382815552,144.02656328125C462.4108382815552,144.02656328125,462.4108382815552,127.35986328125,462.4108382815552,127.35986328125C462.4108382815552,127.35986328125,462.4108382815552,127.35986328125,462.4108382815552,127.35986328125Z" fill="#FFFFFF" fill-opacity="0.800000011920929"/></g><g transform="matrix(0.4067366123199463,0.9135454893112183,-0.9135454893112183,0.4067366123199463,415.639895035815,-340.4277301431488)"><path d="M474.0929671878052,149.80078125C474.0929671878052,149.80078125,469.9262971878052,149.80078125,469.9262971878052,149.80078125C469.9262971878052,149.80078125,469.9262971878052,166.46748125,469.9262971878052,166.46748125C469.9262971878052,166.46748125,474.0929671878052,166.46748125,474.0929671878052,166.46748125C474.0929671878052,166.46748125,474.0929671878052,149.80078125,474.0929671878052,149.80078125C474.0929671878052,149.80078125,474.0929671878052,149.80078125,474.0929671878052,149.80078125Z" fill="#FFFFFF" fill-opacity="0.30000001192092896"/></g><g transform="matrix(0.30901697278022766,0.9510565400123596,-0.9510565400123596,0.30901697278022766,495.9757860702906,-335.96410437768355)"><path d="M483.3620101565552,173.343994140625C483.3620101565552,173.343994140625,479.1953401565552,173.343994140625,479.1953401565552,173.343994140625C479.1953401565552,173.343994140625,479.1953401565552,190.010694140625,479.1953401565552,190.010694140625C479.1953401565552,190.010694140625,483.3620101565552,190.010694140625,483.3620101565552,190.010694140625C483.3620101565552,190.010694140625,483.3620101565552,173.343994140625,483.3620101565552,173.343994140625C483.3620101565552,173.343994140625,483.3620101565552,173.343994140625,483.3620101565552,173.343994140625Z" fill="#FFFFFF" fill-opacity="0.30000001192092896"/></g><g transform="matrix(0.2079116553068161,0.9781476259231567,-0.9781476259231567,0.2079116553068161,578.3152948894967,-318.72532068652947)"><path d="M490.1207992190552,197.71728515625C490.1207992190552,197.71728515625,485.9541292190552,197.71728515625,485.9541292190552,197.71728515625C485.9541292190552,197.71728515625,485.9541292190552,214.38398515625,485.9541292190552,214.38398515625C485.9541292190552,214.38398515625,490.1207992190552,214.38398515625,490.1207992190552,214.38398515625C490.1207992190552,214.38398515625,490.1207992190552,197.71728515625,490.1207992190552,197.71728515625C490.1207992190552,197.71728515625,490.1207992190552,197.71728515625,490.1207992190552,197.71728515625Z" fill="#FFFFFF" fill-opacity="0.30000001192092896"/></g><g transform="matrix(0.10452841967344284,0.9945219159126282,-0.9945219159126282,0.10452841967344284,660.337347297813,-288.0502801887274)"><path d="M494.2914535159302,222.664306640625C494.2914535159302,222.664306640625,490.1247835159302,222.664306640625,490.1247835159302,222.664306640625C490.1247835159302,222.664306640625,490.1247835159302,239.331006640625,490.1247835159302,239.331006640625C490.1247835159302,239.331006640625,494.2914535159302,239.331006640625,494.2914535159302,239.331006640625C494.2914535159302,239.331006640625,494.2914535159302,222.664306640625,494.2914535159302,222.664306640625C494.2914535159302,222.664306640625,494.2914535159302,222.664306640625,494.2914535159302,222.664306640625Z" fill="#FFFFFF" fill-opacity="0.30000001192092896"/></g><g transform="matrix(-0.10452850908041,0.9945219159126282,-0.9945219159126282,-0.10452850908041,813.534840430972,-186.13161480598552)"><path d="M494.7309066409302,273.189208984375C494.7309066409302,273.189208984375,490.5642366409302,273.189208984375,490.5642366409302,273.189208984375C490.5642366409302,273.189208984375,490.5642366409302,289.855908984375,490.5642366409302,289.855908984375C490.5642366409302,289.855908984375,494.7309066409302,289.855908984375,494.7309066409302,289.855908984375C494.7309066409302,289.855908984375,494.7309066409302,273.189208984375,494.7309066409302,273.189208984375C494.7309066409302,273.189208984375,494.7309066409302,273.189208984375,494.7309066409302,273.189208984375Z" fill="#FFFFFF" fill-opacity="0.30000001192092896"/></g><g transform="matrix(-0.2079116255044937,0.9781476259231567,-0.9781476259231567,-0.2079116255044937,879.7205917200108,-115.97260743938534)"><path d="M490.9833480471802,298.20556640625C490.9833480471802,298.20556640625,486.8166780471802,298.20556640625,486.8166780471802,298.20556640625C486.8166780471802,298.20556640625,486.8166780471802,314.87226640625,486.8166780471802,314.87226640625C486.8166780471802,314.87226640625,490.9833480471802,314.87226640625,490.9833480471802,314.87226640625C490.9833480471802,314.87226640625,490.9833480471802,298.20556640625,490.9833480471802,298.20556640625C490.9833480471802,298.20556640625,490.9833480471802,298.20556640625,490.9833480471802,298.20556640625Z" fill="#FFFFFF" fill-opacity="0.30000001192092896"/></g><g transform="matrix(-0.3090169429779053,0.9510565400123596,-0.9510565400123596,-0.3090169429779053,935.8611820444828,-34.54894645890164)"><path d="M484.6478988284302,322.697021484375C484.6478988284302,322.697021484375,480.4812288284302,322.697021484375,480.4812288284302,322.697021484375C480.4812288284302,322.697021484375,480.4812288284302,339.363721484375,480.4812288284302,339.363721484375C480.4812288284302,339.363721484375,484.6478988284302,339.363721484375,484.6478988284302,339.363721484375C484.6478988284302,339.363721484375,484.6478988284302,322.697021484375,484.6478988284302,322.697021484375C484.6478988284302,322.697021484375,484.6478988284302,322.697021484375,484.6478988284302,322.697021484375Z" fill="#FFFFFF" fill-opacity="0.30000001192092896"/></g><g transform="matrix(-0.4067365825176239,0.9135454893112183,-0.9135454893112183,-0.4067365825176239,979.8894565743507,56.425736570477625)"><path d="M475.7897445315552,346.38671875C475.7897445315552,346.38671875,471.6230745315552,346.38671875,471.6230745315552,346.38671875C471.6230745315552,346.38671875,471.6230745315552,363.05341875,471.6230745315552,363.05341875C471.6230745315552,363.05341875,475.7897445315552,363.05341875,475.7897445315552,363.05341875C475.7897445315552,363.05341875,475.7897445315552,346.38671875,475.7897445315552,346.38671875C475.7897445315552,346.38671875,475.7897445315552,346.38671875,475.7897445315552,346.38671875Z" fill="#FFFFFF" fill-opacity="0.30000001192092896"/></g><g transform="matrix(-0.5000000596046448,0.8660253882408142,-0.8660253882408142,-0.5000000596046448,1010.0811664799564,154.89093174744113)"><path d="M464.4940902346802,369.03076171875C464.4940902346802,369.03076171875,460.3274202346802,369.03076171875,460.3274202346802,369.03076171875C460.3274202346802,369.03076171875,460.3274202346802,385.69746171875,460.3274202346802,385.69746171875C460.3274202346802,385.69746171875,464.4940902346802,385.69746171875,464.4940902346802,385.69746171875C464.4940902346802,385.69746171875,464.4940902346802,369.03076171875,464.4940902346802,369.03076171875C464.4940902346802,369.03076171875,464.4940902346802,369.03076171875,464.4940902346802,369.03076171875Z" fill="#FFFFFF" fill-opacity="0.800000011920929"/></g><g transform="matrix(-0.5877851843833923,0.80901700258255,-0.80901700258255,-0.5877851843833923,1025.1324691373973,258.3939715266401)"><path d="M450.9037582034302,390.362548828125C450.9037582034302,390.362548828125,446.7370882034302,390.362548828125,446.7370882034302,390.362548828125C446.7370882034302,390.362548828125,446.7370882034302,407.029248828125,446.7370882034302,407.029248828125C446.7370882034302,407.029248828125,450.9037582034302,407.029248828125,450.9037582034302,407.029248828125C450.9037582034302,407.029248828125,450.9037582034302,390.362548828125,450.9037582034302,390.362548828125C450.9037582034302,390.362548828125,450.9037582034302,390.362548828125,450.9037582034302,390.362548828125Z" fill="#FFFFFF" fill-opacity="0.30000001192092896"/></g><g transform="matrix(-0.6691306829452515,0.7431448101997375,-0.7431448101997375,-0.6691306829452515,1024.1803082602755,364.32639851881817)"><path d="M435.1525375003052,410.160400390625C435.1525375003052,410.160400390625,430.9858675003052,410.160400390625,430.9858675003052,410.160400390625C430.9858675003052,410.160400390625,430.9858675003052,426.827100390625,430.9858675003052,426.827100390625C430.9858675003052,426.827100390625,435.1525375003052,426.827100390625,435.1525375003052,426.827100390625C435.1525375003052,426.827100390625,435.1525375003052,410.160400390625,435.1525375003052,410.160400390625C435.1525375003052,410.160400390625,435.1525375003052,410.160400390625,435.1525375003052,410.160400390625Z" fill="#FFFFFF" fill-opacity="0.30000001192092896"/></g><g transform="matrix(-0.7431448101997375,0.6691306233406067,-0.6691306233406067,-0.7431448101997375,1006.8803046022572,469.89133466081415)"><path d="M417.4196273440552,428.1982421875C417.4196273440552,428.1982421875,413.2529573440552,428.1982421875,413.2529573440552,428.1982421875C413.2529573440552,428.1982421875,413.2529573440552,444.8649421875,413.2529573440552,444.8649421875C413.2529573440552,444.8649421875,417.4196273440552,444.8649421875,417.4196273440552,444.8649421875C417.4196273440552,444.8649421875,417.4196273440552,428.1982421875,417.4196273440552,428.1982421875C417.4196273440552,428.1982421875,417.4196273440552,428.1982421875,417.4196273440552,428.1982421875Z" fill="#FFFFFF" fill-opacity="0.30000001192092896"/></g><g transform="matrix(-0.8090170621871948,0.5877851843833923,-0.5877851843833923,-0.8090170621871948,973.4183392423223,572.2953896443271)"><path d="M397.9008285159302,444.2890625C397.9008285159302,444.2890625,393.7341585159302,444.2890625,393.7341585159302,444.2890625C393.7341585159302,444.2890625,393.7341585159302,460.9557625,393.7341585159302,460.9557625C393.7341585159302,460.9557625,397.9008285159302,460.9557625,397.9008285159302,460.9557625C397.9008285159302,460.9557625,397.9008285159302,444.2890625,397.9008285159302,444.2890625C397.9008285159302,444.2890625,397.9008285159302,444.2890625,397.9008285159302,444.2890625Z" fill="#FFFFFF" fill-opacity="0.30000001192092896"/></g><g transform="matrix(-0.8660253882408142,0.5000000596046448,-0.5000000596046448,-0.8660253882408142,924.4726469217619,668.7838827344078)"><path d="M376.8029281253052,458.247802734375C376.8029281253052,458.247802734375,372.6362581253052,458.247802734375,372.6362581253052,458.247802734375C372.6362581253052,458.247802734375,372.6362581253052,474.914502734375,372.6362581253052,474.914502734375C372.6362581253052,474.914502734375,376.8029281253052,474.914502734375,376.8029281253052,474.914502734375C376.8029281253052,474.914502734375,376.8029281253052,458.247802734375,376.8029281253052,458.247802734375C376.8029281253052,458.247802734375,376.8029281253052,458.247802734375,376.8029281253052,458.247802734375Z" fill="#FFFFFF" fill-opacity="0.800000011920929"/></g><g transform="matrix(-0.9135454893112183,0.4067365825176239,-0.4067365825176239,-0.9135454893112183,861.2671002640694,756.7860627926744)"><path d="M354.3703109378052,469.927001953125C354.3703109378052,469.927001953125,350.2036409378052,469.927001953125,350.2036409378052,469.927001953125C350.2036409378052,469.927001953125,350.2036409378052,486.593701953125,350.2036409378052,486.593701953125C350.2036409378052,486.593701953125,354.3703109378052,486.593701953125,354.3703109378052,486.593701953125C354.3703109378052,486.593701953125,354.3703109378052,469.927001953125,354.3703109378052,469.927001953125C354.3703109378052,469.927001953125,354.3703109378052,469.927001953125,354.3703109378052,469.927001953125Z" fill="#FFFFFF" fill-opacity="0.30000001192092896"/></g><g transform="matrix(-0.9510564804077148,0.30901703238487244,-0.30901703238487244,-0.9510564804077148,785.3966640311874,833.9954970684416)"><path d="M330.8190414065552,479.195068359375C330.8190414065552,479.195068359375,326.6523714065552,479.195068359375,326.6523714065552,479.195068359375C326.6523714065552,479.195068359375,326.6523714065552,495.861768359375,326.6523714065552,495.861768359375C326.6523714065552,495.861768359375,330.8190414065552,495.861768359375,330.8190414065552,495.861768359375C330.8190414065552,495.861768359375,330.8190414065552,479.195068359375,330.8190414065552,479.195068359375C330.8190414065552,479.195068359375,330.8190414065552,479.195068359375,330.8190414065552,479.195068359375Z" fill="#FFFFFF" fill-opacity="0.30000001192092896"/></g><g transform="matrix(-0.9781476259231567,0.20791161060333252,-0.20791161060333252,-0.9781476259231567,698.9873576724873,898.4387749401916)"><path d="M306.4455062503052,485.95263671875C306.4455062503052,485.95263671875,302.2788362503052,485.95263671875,302.2788362503052,485.95263671875C302.2788362503052,485.95263671875,302.2788362503052,502.61933671875,302.2788362503052,502.61933671875C302.2788362503052,502.61933671875,306.4455062503052,502.61933671875,306.4455062503052,502.61933671875C306.4455062503052,502.61933671875,306.4455062503052,485.95263671875,306.4455062503052,485.95263671875C306.4455062503052,485.95263671875,306.4455062503052,485.95263671875,306.4455062503052,485.95263671875Z" fill="#FFFFFF" fill-opacity="0.30000001192092896"/></g><g transform="matrix(-0.9945219159126282,0.10452849417924881,-0.10452849417924881,-0.9945219159126282,604.3847398244384,948.5765171047678)"><path d="M281.5026351565552,490.12548828125C281.5026351565552,490.12548828125,277.3359651565552,490.12548828125,277.3359651565552,490.12548828125C277.3359651565552,490.12548828125,277.3359651565552,506.79218828125,277.3359651565552,506.79218828125C277.3359651565552,506.79218828125,281.5026351565552,506.79218828125,281.5026351565552,506.79218828125C281.5026351565552,506.79218828125,281.5026351565552,490.12548828125,281.5026351565552,490.12548828125C281.5026351565552,490.12548828125,281.5026351565552,490.12548828125,281.5026351565552,490.12548828125Z" fill="#FFFFFF" fill-opacity="0.30000001192092896"/></g><g transform="matrix(-0.9945219159126282,-0.10452843457460403,0.10452843457460403,-0.9945219159126282,401.1015411055792,1002.142913937336)"><path d="M230.97747341339112,490.56103515625C230.97747341339112,490.56103515625,226.8108034133911,490.56103515625,226.8108034133911,490.56103515625C226.8108034133911,490.56103515625,226.8108034133911,507.22773515625,226.8108034133911,507.22773515625C226.8108034133911,507.22773515625,230.97747341339112,507.22773515625,230.97747341339112,507.22773515625C230.97747341339112,507.22773515625,230.97747341339112,490.56103515625,230.97747341339112,490.56103515625C230.97747341339112,490.56103515625,230.97747341339112,490.56103515625,230.97747341339112,490.56103515625Z" fill="#FFFFFF" fill-opacity="0.30000001192092896"/></g><g transform="matrix(-0.978147566318512,-0.20791178941726685,0.20791178941726685,-0.978147566318512,297.95593507837367,1004.9555997728776)"><path d="M205.95720974151612,486.819580078125C205.95720974151612,486.819580078125,201.7905397415161,486.819580078125,201.7905397415161,486.819580078125C201.7905397415161,486.819580078125,201.7905397415161,503.486280078125,201.7905397415161,503.486280078125C201.7905397415161,503.486280078125,205.95720974151612,503.486280078125,205.95720974151612,503.486280078125C205.95720974151612,503.486280078125,205.95720974151612,486.819580078125,205.95720974151612,486.819580078125C205.95720974151612,486.819580078125,205.95720974151612,486.819580078125,205.95720974151612,486.819580078125Z" fill="#FFFFFF" fill-opacity="0.30000001192092896"/></g><g transform="matrix(-0.9510565400123596,-0.30901697278022766,0.30901697278022766,-0.9510565400123596,197.45935959514082,992.2403157262025)"><path d="M181.47405544464112,480.48291015625C181.47405544464112,480.48291015625,177.3073854446411,480.48291015625,177.3073854446411,480.48291015625C177.3073854446411,480.48291015625,177.3073854446411,497.14961015625,177.3073854446411,497.14961015625C177.3073854446411,497.14961015625,181.47405544464112,497.14961015625,181.47405544464112,497.14961015625C181.47405544464112,497.14961015625,181.47405544464112,480.48291015625,181.47405544464112,480.48291015625C181.47405544464112,480.48291015625,181.47405544464112,480.48291015625,181.47405544464112,480.48291015625Z" fill="#FFFFFF" fill-opacity="0.30000001192092896"/></g><g transform="matrix(-0.9135454893112183,-0.4067365229129791,0.4067365229129791,-0.9135454893112183,102.10528320712217,964.9443422624609)"><path d="M157.77190700714112,471.62060546875C157.77190700714112,471.62060546875,153.6052370071411,471.62060546875,153.6052370071411,471.62060546875C153.6052370071411,471.62060546875,153.6052370071411,488.28730546875,153.6052370071411,488.28730546875C153.6052370071411,488.28730546875,157.77190700714112,488.28730546875,157.77190700714112,488.28730546875C157.77190700714112,488.28730546875,157.77190700714112,471.62060546875,157.77190700714112,471.62060546875C157.77190700714112,471.62060546875,157.77190700714112,471.62060546875,157.77190700714112,471.62060546875Z" fill="#FFFFFF" fill-opacity="0.30000001192092896"/></g><g transform="matrix(-0.8660253882408142,-0.4999999701976776,0.4999999701976776,-0.8660253882408142,14.241800619353569,924.4786624418481)"><path d="M135.14422146026612,460.331298828125C135.14422146026612,460.331298828125,130.9775514602661,460.331298828125,130.9775514602661,460.331298828125C130.9775514602661,460.331298828125,130.9775514602661,476.997998828125,130.9775514602661,476.997998828125C130.9775514602661,476.997998828125,135.14422146026612,476.997998828125,135.14422146026612,476.997998828125C135.14422146026612,476.997998828125,135.14422146026612,460.331298828125,135.14422146026612,460.331298828125C135.14422146026612,460.331298828125,135.14422146026612,460.331298828125,135.14422146026612,460.331298828125Z" fill="#FFFFFF" fill-opacity="0.800000011920929"/></g><g transform="matrix(-0.8090170621871948,-0.5877851247787476,0.5877851247787476,-0.8090170621871948,-64.25230470409372,872.5967888752074)"><path d="M113.80242458526611,446.73681640625C113.80242458526611,446.73681640625,109.63575458526611,446.73681640625,109.63575458526611,446.73681640625C109.63575458526611,446.73681640625,109.63575458526611,463.40351640625,109.63575458526611,463.40351640625C109.63575458526611,463.40351640625,113.80242458526611,463.40351640625,113.80242458526611,463.40351640625C113.80242458526611,463.40351640625,113.80242458526611,446.73681640625,113.80242458526611,446.73681640625C113.80242458526611,446.73681640625,113.80242458526611,446.73681640625,113.80242458526611,446.73681640625Z" fill="#FFFFFF" fill-opacity="0.30000001192092896"/></g><g transform="matrix(-0.7431448101997375,-0.6691306233406067,0.6691306233406067,-0.7431448101997375,-131.777323732173,811.394915251074)"><path d="M94.01067653839111,430.98974609375C94.01067653839111,430.98974609375,89.84400653839111,430.98974609375,89.84400653839111,430.98974609375C89.84400653839111,430.98974609375,89.84400653839111,447.65644609375,89.84400653839111,447.65644609375C89.84400653839111,447.65644609375,94.01067653839111,447.65644609375,94.01067653839111,447.65644609375C94.01067653839111,447.65644609375,94.01067653839111,430.98974609375,94.01067653839111,430.98974609375C94.01067653839111,430.98974609375,94.01067653839111,430.98974609375,94.01067653839111,430.98974609375Z" fill="#FFFFFF" fill-opacity="0.30000001192092896"/></g><g transform="matrix(-0.6691306829452515,-0.7431447505950928,0.7431447505950928,-0.6691306829452515,-187.27469278839237,743.1297104109906)"><path d="M75.96063152496338,413.2548828125C75.96063152496338,413.2548828125,71.79396152496338,413.2548828125,71.79396152496338,413.2548828125C71.79396152496338,413.2548828125,71.79396152496338,429.9215828125,71.79396152496338,429.9215828125C71.79396152496338,429.9215828125,75.96063152496338,429.9215828125,75.96063152496338,429.9215828125C75.96063152496338,429.9215828125,75.96063152496338,413.2548828125,75.96063152496338,413.2548828125C75.96063152496338,413.2548828125,75.96063152496338,413.2548828125,75.96063152496338,413.2548828125Z" fill="#FFFFFF" fill-opacity="0.30000001192092896"/></g><g transform="matrix(-0.5877854228019714,-0.8090168237686157,0.8090168237686157,-0.5877854228019714,-230.07680946190095,670.2378022416284)"><path d="M59.879820978088375,393.73388671875C59.879820978088375,393.73388671875,55.71315097808838,393.73388671875,55.71315097808838,393.73388671875C55.71315097808838,393.73388671875,55.71315097808838,410.40058671875,55.71315097808838,410.40058671875C55.71315097808838,410.40058671875,59.879820978088375,410.40058671875,59.879820978088375,410.40058671875C59.879820978088375,410.40058671875,59.879820978088375,393.73388671875,59.879820978088375,393.73388671875C59.879820978088375,393.73388671875,59.879820978088375,393.73388671875,59.879820978088375,393.73388671875Z" fill="#FFFFFF" fill-opacity="0.30000001192092896"/></g><g transform="matrix(-0.49999991059303284,-0.866025447845459,0.866025447845459,-0.49999991059303284,-260.0837190269609,595.1120593409191)"><path d="M45.918883478088375,372.6357421875C45.918883478088375,372.6357421875,41.75221347808838,372.6357421875,41.75221347808838,372.6357421875C41.75221347808838,372.6357421875,41.75221347808838,389.3024421875,41.75221347808838,389.3024421875C41.75221347808838,389.3024421875,45.918883478088375,389.3024421875,45.918883478088375,389.3024421875C45.918883478088375,389.3024421875,45.918883478088375,372.6357421875,45.918883478088375,372.6357421875C45.918883478088375,372.6357421875,45.918883478088375,372.6357421875,45.918883478088375,372.6357421875Z" fill="#FFFFFF" fill-opacity="0.800000011920929"/></g><g transform="matrix(-0.4067366421222687,-0.9135454297065735,0.9135454297065735,-0.4067366421222687,-277.61863744011976,520.1029663247016)"><path d="M34.236754571838375,350.1953125C34.236754571838375,350.1953125,30.07008457183838,350.1953125,30.07008457183838,350.1953125C30.07008457183838,350.1953125,30.07008457183838,366.8620125,30.07008457183838,366.8620125C30.07008457183838,366.8620125,34.236754571838375,366.8620125,34.236754571838375,366.8620125C34.236754571838375,366.8620125,34.236754571838375,350.1953125,34.236754571838375,350.1953125C34.236754571838375,350.1953125,34.236754571838375,350.1953125,34.236754571838375,350.1953125Z" fill="#FFFFFF" fill-opacity="0.30000001192092896"/></g><g transform="matrix(-0.3090170919895172,-0.9510564804077148,0.9510564804077148,-0.3090170919895172,-283.4327944710253,447.3943546323426)"><path d="M24.975767290039062,326.66015625C24.975767290039062,326.66015625,20.809097290039062,326.66015625,20.809097290039062,326.66015625C20.809097290039062,326.66015625,20.809097290039062,343.32685625,20.809097290039062,343.32685625C20.809097290039062,343.32685625,24.975767290039062,343.32685625,24.975767290039062,343.32685625C24.975767290039062,343.32685625,24.975767290039062,326.66015625,24.975767290039062,326.66015625C24.975767290039062,326.66015625,24.975767290039062,326.66015625,24.975767290039062,326.66015625Z" fill="#FFFFFF" fill-opacity="0.30000001192092896"/></g><g transform="matrix(-0.2079119235277176,-0.978147566318512,0.978147566318512,-0.2079119235277176,-278.70497722653886,378.8746479460033)"><path d="M18.217466508789062,302.28271484375C18.217466508789062,302.28271484375,14.050796508789062,302.28271484375,14.050796508789062,302.28271484375C14.050796508789062,302.28271484375,14.050796508789062,318.94941484375,14.050796508789062,318.94941484375C14.050796508789062,318.94941484375,18.217466508789062,318.94941484375,18.217466508789062,318.94941484375C18.217466508789062,318.94941484375,18.217466508789062,302.28271484375,18.217466508789062,302.28271484375C18.217466508789062,302.28271484375,18.217466508789062,302.28271484375,18.217466508789062,302.28271484375Z" fill="#FFFFFF" fill-opacity="0.30000001192092896"/></g><g transform="matrix(-0.10452833771705627,-0.9945219159126282,0.9945219159126282,-0.10452833771705627,-264.9091079078062,316.1378254356977)"><path d="M14.038023387832641,277.33154296875C14.038023387832641,277.33154296875,9.871353387832642,277.33154296875,9.871353387832642,277.33154296875C9.871353387832642,277.33154296875,9.871353387832642,293.99824296875,9.871353387832642,293.99824296875C9.871353387832642,293.99824296875,14.038023387832641,293.99824296875,14.038023387832641,293.99824296875C14.038023387832641,293.99824296875,14.038023387832641,277.33154296875,14.038023387832641,277.33154296875C14.038023387832641,277.33154296875,14.038023387832641,277.33154296875,14.038023387832641,277.33154296875Z" fill="#FFFFFF" fill-opacity="0.30000001192092896"/></g><g transform="matrix(0.10452836006879807,-0.9945219159126282,0.9945219159126282,0.10452836006879807,-217.110742465857,212.48740125671696)"><path d="M13.606871044082641,226.806640625C13.606871044082641,226.806640625,9.440201044082642,226.806640625,9.440201044082642,226.806640625C9.440201044082642,226.806640625,9.440201044082642,243.473340625,9.440201044082642,243.473340625C9.440201044082642,243.473340625,13.606871044082641,243.473340625,13.606871044082641,243.473340625C13.606871044082641,243.473340625,13.606871044082641,226.806640625,13.606871044082641,226.806640625C13.606871044082641,226.806640625,13.606871044082641,226.806640625,13.606871044082641,226.806640625Z" fill="#FFFFFF" fill-opacity="0.30000001192092896"/></g><g transform="matrix(0.20791147649288177,-0.9781476259231567,0.9781476259231567,0.20791147649288177,-186.94506127592695,172.73098895989236)"><path d="M17.34661713783264,201.79443359375C17.34661713783264,201.79443359375,13.179947137832642,201.79443359375,13.179947137832642,201.79443359375C13.179947137832642,201.79443359375,13.179947137832642,218.46113359375,13.179947137832642,218.46113359375C13.179947137832642,218.46113359375,17.34661713783264,218.46113359375,17.34661713783264,218.46113359375C17.34661713783264,218.46113359375,17.34661713783264,201.79443359375,17.34661713783264,201.79443359375C17.34661713783264,201.79443359375,17.34661713783264,201.79443359375,17.34661713783264,201.79443359375Z" fill="#FFFFFF" fill-opacity="0.30000001192092896"/></g><g transform="matrix(0.3090171217918396,-0.9510564804077148,0.9510564804077148,0.3090171217918396,-155.13787517342917,141.07745011687803)"><path d="M23.685972368164062,177.30322265625C23.685972368164062,177.30322265625,19.519302368164062,177.30322265625,19.519302368164062,177.30322265625C19.519302368164062,177.30322265625,19.519302368164062,193.96992265625,19.519302368164062,193.96992265625C19.519302368164062,193.96992265625,23.685972368164062,193.96992265625,23.685972368164062,193.96992265625C23.685972368164062,193.96992265625,23.685972368164062,177.30322265625,23.685972368164062,177.30322265625C23.685972368164062,177.30322265625,23.685972368164062,177.30322265625,23.685972368164062,177.30322265625Z" fill="#FFFFFF" fill-opacity="0.30000001192092896"/></g><g transform="matrix(0.40673667192459106,-0.9135454297065735,0.9135454297065735,0.40673667192459106,-123.49361450858424,117.0547609106714)"><path d="M32.544127618713375,153.609130859375C32.544127618713375,153.609130859375,28.37745761871338,153.609130859375,28.37745761871338,153.609130859375C28.37745761871338,153.609130859375,28.37745761871338,170.275830859375,28.37745761871338,170.275830859375C28.37745761871338,170.275830859375,32.544127618713375,170.275830859375,32.544127618713375,170.275830859375C32.544127618713375,170.275830859375,32.544127618713375,153.609130859375,32.544127618713375,153.609130859375C32.544127618713375,153.609130859375,32.544127618713375,153.609130859375,32.544127618713375,153.609130859375Z" fill="#FFFFFF" fill-opacity="0.30000001192092896"/></g><g transform="matrix(0.49999991059303284,-0.866025447845459,0.866025447845459,0.49999991059303284,-93.58625580198569,99.84234393231372)"><path d="M43.839537774963375,130.96923828125C43.839537774963375,130.96923828125,39.67286777496338,130.96923828125,39.67286777496338,130.96923828125C39.67286777496338,130.96923828125,39.67286777496338,147.63593828125,39.67286777496338,147.63593828125C39.67286777496338,147.63593828125,43.839537774963375,147.63593828125,43.839537774963375,147.63593828125C43.839537774963375,147.63593828125,43.839537774963375,130.96923828125,43.839537774963375,130.96923828125C43.839537774963375,130.96923828125,43.839537774963375,130.96923828125,43.839537774963375,130.96923828125Z" fill="#FFFFFF" fill-opacity="0.800000011920929"/></g><g transform="matrix(0.5877850651741028,-0.8090171217918396,0.8090171217918396,0.5877850651741028,-66.74258811251485,88.28523290788411)"><path d="M57.430113946838375,109.637451171875C57.430113946838375,109.637451171875,53.26344394683838,109.637451171875,53.26344394683838,109.637451171875C53.26344394683838,109.637451171875,53.26344394683838,126.30415117187499,53.26344394683838,126.30415117187499C53.26344394683838,126.30415117187499,57.430113946838375,126.30415117187499,57.430113946838375,126.30415117187499C57.430113946838375,126.30415117187499,57.430113946838375,109.637451171875,57.430113946838375,109.637451171875C57.430113946838375,109.637451171875,57.430113946838375,109.637451171875,57.430113946838375,109.637451171875Z" fill="#FFFFFF" fill-opacity="0.30000001192092896"/></g><g transform="matrix(0.6691307425498962,-0.7431447505950928,0.7431447505950928,0.6691307425498962,-43.9318206906259,81.01060924908211)"><path d="M73.17718425933838,89.841552734375C73.17718425933838,89.841552734375,69.01051425933838,89.841552734375,69.01051425933838,89.841552734375C69.01051425933838,89.841552734375,69.01051425933838,106.50825273437499,69.01051425933838,106.50825273437499C69.01051425933838,106.50825273437499,73.17718425933838,106.50825273437499,73.17718425933838,106.50825273437499C73.17718425933838,106.50825273437499,73.17718425933838,89.841552734375,73.17718425933838,89.841552734375C73.17718425933838,89.841552734375,73.17718425933838,89.841552734375,73.17718425933838,89.841552734375Z" fill="#FFFFFF" fill-opacity="0.30000001192092896"/></g><g transform="matrix(0.7431448698043823,-0.6691305637359619,0.6691305637359619,0.7431448698043823,-25.764195381484,76.48548714021786)"><path d="M90.91033474151611,71.8017578125C90.91033474151611,71.8017578125,86.74366474151611,71.8017578125,86.74366474151611,71.8017578125C86.74366474151611,71.8017578125,86.74366474151611,88.46845781249999,86.74366474151611,88.46845781249999C86.74366474151611,88.46845781249999,90.91033474151611,88.46845781249999,90.91033474151611,88.46845781249999C90.91033474151611,88.46845781249999,90.91033474151611,71.8017578125,90.91033474151611,71.8017578125C90.91033474151611,71.8017578125,90.91033474151611,71.8017578125,90.91033474151611,71.8017578125Z" fill="#FFFFFF" fill-opacity="0.30000001192092896"/></g><g transform="matrix(0.8090169429779053,-0.5877853035926819,0.5877853035926819,0.8090169429779053,-12.45214216324598,73.10202861323006)"><path d="M110.43303981964111,55.712890625C110.43303981964111,55.712890625,106.26636981964111,55.712890625,106.26636981964111,55.712890625C106.26636981964111,55.712890625,106.26636981964111,72.37959062499999,106.26636981964111,72.37959062499999C106.26636981964111,72.37959062499999,110.43303981964111,72.37959062499999,110.43303981964111,72.37959062499999C110.43303981964111,72.37959062499999,110.43303981964111,55.712890625,110.43303981964111,55.712890625C110.43303981964111,55.712890625,110.43303981964111,55.712890625,110.43303981964111,55.712890625Z" fill="#FFFFFF" fill-opacity="0.30000001192092896"/></g><g transform="matrix(0.8660253286361694,-0.5000001788139343,0.5000001788139343,0.8660253286361694,-3.813075900992658,69.27381959096459)"><path d="M131.52678981964112,41.752197265625C131.52678981964112,41.752197265625,127.36011981964111,41.752197265625,127.36011981964111,41.752197265625C127.36011981964111,41.752197265625,127.36011981964111,58.418897265625,127.36011981964111,58.418897265625C127.36011981964111,58.418897265625,131.52678981964112,58.418897265625,131.52678981964112,58.418897265625C131.52678981964112,58.418897265625,131.52678981964112,41.752197265625,131.52678981964112,41.752197265625C131.52678981964112,41.752197265625,131.52678981964112,41.752197265625,131.52678981964112,41.752197265625Z" fill="#FFFFFF" fill-opacity="0.800000011920929"/></g><g transform="matrix(0.913545548915863,-0.40673649311065674,0.40673649311065674,0.913545548915863,0.7195779345263986,63.529408884809186)"><path d="M153.96770778839112,30.072021484375C153.96770778839112,30.072021484375,149.8010377883911,30.072021484375,149.8010377883911,30.072021484375C149.8010377883911,30.072021484375,149.8010377883911,46.738721484375,149.8010377883911,46.738721484375C149.8010377883911,46.738721484375,153.96770778839112,46.738721484375,153.96770778839112,46.738721484375C153.96770778839112,46.738721484375,153.96770778839112,30.072021484375,153.96770778839112,30.072021484375C153.96770778839112,30.072021484375,153.96770778839112,30.072021484375,153.96770778839112,30.072021484375Z" fill="#FFFFFF" fill-opacity="0.30000001192092896"/></g><g transform="matrix(0.9510565400123596,-0.3090169429779053,0.3090169429779053,0.9510565400123596,2.0547878882682085,54.58329322590066)"><path d="M177.50677028839112,20.804931640625C177.50677028839112,20.804931640625,173.3401002883911,20.804931640625,173.3401002883911,20.804931640625C173.3401002883911,20.804931640625,173.3401002883911,37.471631640625,173.3401002883911,37.471631640625C173.3401002883911,37.471631640625,177.50677028839112,37.471631640625,177.50677028839112,37.471631640625C177.50677028839112,37.471631640625,177.50677028839112,20.804931640625,177.50677028839112,20.804931640625C177.50677028839112,20.804931640625,177.50677028839112,20.804931640625,177.50677028839112,20.804931640625Z" fill="#FFFFFF" fill-opacity="0.30000001192092896"/></g><g transform="matrix(0.978147566318512,-0.20791175961494446,0.20791175961494446,0.978147566318512,1.3997944109661944,41.414792415244534)"><path d="M201.88421169464112,14.04833984375C201.88421169464112,14.04833984375,197.7175416946411,14.04833984375,197.7175416946411,14.04833984375C197.7175416946411,14.04833984375,197.7175416946411,30.71503984375,197.7175416946411,30.71503984375C197.7175416946411,30.71503984375,201.88421169464112,30.71503984375,201.88421169464112,30.71503984375C201.88421169464112,30.71503984375,201.88421169464112,14.04833984375,201.88421169464112,14.04833984375C201.88421169464112,14.04833984375,201.88421169464112,14.04833984375,201.88421169464112,14.04833984375Z" fill="#FFFFFF" fill-opacity="0.30000001192092896"/></g><g transform="matrix(0.9945218563079834,-0.10452865064144135,0.10452865064144135,0.9945218563079834,0.18761630325684564,23.329355501021425)"><path d="M226.83538356964112,9.874755859375C226.83538356964112,9.874755859375,222.6687135696411,9.874755859375,222.6687135696411,9.874755859375C222.6687135696411,9.874755859375,222.6687135696411,26.541455859375,222.6687135696411,26.541455859375C222.6687135696411,26.541455859375,226.83538356964112,26.541455859375,226.83538356964112,26.541455859375C226.83538356964112,26.541455859375,226.83538356964112,9.874755859375,226.83538356964112,9.874755859375C226.83538356964112,9.874755859375,226.83538356964112,9.874755859375,226.83538356964112,9.874755859375Z" fill="#FFFFFF" fill-opacity="0.30000001192092896"/></g></g><g><path d="M237.999345625,12.265851953125L237.999345625,9.531491953125L243.329755625,6.333251953125L245.388715625,6.333251953125L245.388715625,25.083251953125L242.686845625,25.083251953125L242.686845625,9.507081953124999L237.999345625,12.265851953125ZM255.105515625,22.715051953125L262.999315625,22.715051953125L262.999315625,25.083251953125L251.020215625,25.083251953125L251.020215625,23.366151953125L256.912115625,16.676651953125003Q258.531615625,14.870051953125,259.150015625,13.828351953125Q259.776715625,12.778551953125,259.776715625,11.566001953125Q259.776715625,10.068601953125,258.987315625,9.254801953125Q258.197915625,8.441001953125,256.944615625,8.441001953125Q255.667015625,8.441001953125,254.682315625,9.319901953125001Q253.697615625,10.198811953125,253.266315625,11.728761953125L251.069015625,10.459231953125Q251.638715625,8.359621953125,253.307015625,7.220291953125Q254.975215625,6.072831953125,257.034215625,6.072831953125Q258.588515625,6.072831953125,259.825515625,6.732011953125Q261.070615625,7.383051953125,261.77051562500003,8.628171953125001Q262.478515625,9.865151953125,262.478515625,11.557861953125Q262.478515625,13.209851953125,261.689115625,14.674751953125Q260.907915625,16.139551953125,258.922215625,18.361251953125L255.105515625,22.715051953125Z" fill="#FFFFFF" fill-opacity="1"/></g><g><path d="M17.263959765625,249.074348046875Q17.263959765625,253.786248046875,15.693259765625,256.235748046875Q14.122659765625,258.677148046875,11.217369765625001,258.677148046875Q8.320229765625001,258.677148046875,6.749589765625,256.235748046875Q5.187089765625,253.786248046875,5.187089765625,249.074348046875Q5.187089765625,244.329838046875,6.749589765625,241.872148046875Q8.320229765625001,239.406328046875,11.217369765625001,239.406328046875Q14.122659765625,239.406328046875,15.693259765625,241.855878046875Q17.263959765625,244.305418046875,17.263959765625,249.074348046875ZM7.888919765625,249.074348046875Q7.888919765625,252.703848046875,8.702719765625,254.510548046875Q9.524659765625,256.309048046875,11.225499765624999,256.309048046875Q12.950759765625,256.309048046875,13.756459765625,254.518648046875Q14.562059765625,252.728248046875,14.562059765625,249.074348046875Q14.562059765625,245.387778046875,13.756459765625,243.581138046875Q12.950759765625,241.774498046875,11.225499765624999,241.774498046875Q9.524659765625,241.774498046875,8.702719765625,243.581138046875Q7.888919765625,245.387778046875,7.888919765625,249.074348046875ZM25.808859765625,239.406328046875Q27.542259765625,239.406328046875,28.917559765625,240.187578046875Q30.292859765625,240.960698046875,31.065959765625,242.368568046875Q31.847259765625,243.776448046875,31.847259765625,245.591248046875Q31.847259765625,246.974648046875,31.342659765625,248.187248046875Q30.846259765625,249.399848046875,29.658159765625,251.369248046875L25.450759765625,258.416748046875L22.398959765625,258.416748046875L26.199459765625,252.329548046875Q26.679559765625,251.564548046875,26.988859765625,251.182048046875Q26.345959765625,251.409948046875,25.401959765625,251.409948046875Q23.766159765625,251.409948046875,22.472259765625,250.636848046875Q21.186459765625,249.85554804687501,20.478459765625,248.512748046875Q19.770459765625,247.170048046875,19.770459765625,245.485448046875Q19.770459765625,243.752038046875,20.559859765625,242.360438046875Q21.357359765625,240.960698046875,22.740759765625,240.187578046875Q24.132359765625,239.406328046875,25.808859765625,239.406328046875ZM25.816959765625,249.041748046875Q27.322559765625,249.041748046875,28.233959765625,248.024448046875Q29.145459765625,247.007248046875,29.145459765625,245.387778046875Q29.145459765625,243.760168046875,28.233959765625,242.767338046875Q27.322559765625,241.774498046875,25.816959765625,241.774498046875Q24.295159765625,241.774498046875,23.383659765625,242.783608046875Q22.472259765625,243.784588046875,22.472259765625,245.387778046875Q22.472259765625,247.031648046875,23.383659765625,248.040748046875Q24.295159765625,249.041748046875,25.816959765625,249.041748046875Z" fill="#FFFFFF" fill-opacity="1"/></g><g><path d="M479.763715625,249.074348046875Q479.763715625,253.786248046875,478.193015625,256.235748046875Q476.622415625,258.677148046875,473.717125625,258.677148046875Q470.819985625,258.677148046875,469.249345625,256.235748046875Q467.686845625,253.786248046875,467.686845625,249.074348046875Q467.686845625,244.329838046875,469.249345625,241.872148046875Q470.819985625,239.406328046875,473.717125625,239.406328046875Q476.622415625,239.406328046875,478.193015625,241.855878046875Q479.763715625,244.305418046875,479.763715625,249.074348046875ZM470.388675625,249.074348046875Q470.388675625,252.703848046875,471.202475625,254.510548046875Q472.024415625,256.309048046875,473.725255625,256.309048046875Q475.450515625,256.309048046875,476.256215625,254.518648046875Q477.061815625,252.728248046875,477.061815625,249.074348046875Q477.061815625,245.387778046875,476.256215625,243.581138046875Q475.450515625,241.774498046875,473.725255625,241.774498046875Q472.024415625,241.774498046875,471.202475625,243.581138046875Q470.388675625,245.387778046875,470.388675625,249.074348046875ZM491.344115625,248.463948046875Q492.833315625,249.025448046875,493.590215625,250.205448046875Q494.347015625,251.377348046875,494.347015625,253.118848046875Q494.347015625,254.860448046875,493.549515625,256.121848046875Q492.760115625,257.375048046875,491.409215625,258.026148046875Q490.066415625,258.677148046875,488.463215625,258.677148046875Q486.436815625,258.677148046875,484.784815625,257.627348046875Q483.132815625,256.577548046875,482.522415625,254.55934804687502L484.670915625,253.289748046875Q485.142915625,254.770948046875,486.192715625,255.544048046875Q487.250615625,256.309048046875,488.503915625,256.309048046875Q489.846715625,256.309048046875,490.741815625,255.438248046875Q491.645215625,254.567448046875,491.645215625,253.053748046875Q491.645215625,249.847448046875,487.405315625,249.847448046875L486.697315625,249.847448046875L486.697315625,247.479248046875L487.625015625,247.479248046875Q489.325815625,247.479248046875,490.221015625,246.632848046875Q491.124315625,245.778448046875,491.124315625,244.460038046875Q491.124315625,243.223068046875,490.359415625,242.498778046875Q489.594415625,241.774498046875,488.398115625,241.774498046875Q487.120415625,241.774498046875,486.233415625,242.563888046875Q485.346315625,243.345138046875,484.898715625,244.842528046875L482.774715625,243.581138046875Q483.393215625,241.530358046875,484.906915625,240.472408046875Q486.420615625,239.406328046875,488.503915625,239.406328046875Q490.074515625,239.406328046875,491.279015625,240.032958046875Q492.491515625,240.651448046875,493.158815625,241.782638046875Q493.826215625,242.913818046875,493.826215625,244.378668046875Q493.826215625,245.778448046875,493.207715625,246.844448046875Q492.589215625,247.902448046875,491.344115625,248.463948046875Z" fill="#FFFFFF" fill-opacity="1"/></g><g><path d="M248.513715625,484.490851953125Q248.513715625,489.202751953125,246.943015625,491.652251953125Q245.372415625,494.093651953125,242.467125625,494.093651953125Q239.569985625,494.093651953125,237.999345625,491.652251953125Q236.436845625,489.202751953125,236.436845625,484.490851953125Q236.436845625,479.746341953125,237.999345625,477.288651953125Q239.569985625,474.822831953125,242.467125625,474.822831953125Q245.372415625,474.822831953125,246.943015625,477.272381953125Q248.513715625,479.721921953125,248.513715625,484.490851953125ZM239.138675625,484.490851953125Q239.138675625,488.120351953125,239.952475625,489.927051953125Q240.774415625,491.725551953125,242.475255625,491.725551953125Q244.200515625,491.725551953125,245.006215625,489.935151953125Q245.811815625,488.144751953125,245.811815625,484.490851953125Q245.811815625,480.804281953125,245.006215625,478.997641953125Q244.200515625,477.191001953125,242.475255625,477.191001953125Q240.774415625,477.191001953125,239.952475625,478.997641953125Q239.138675625,480.804281953125,239.138675625,484.490851953125ZM257.986315625,482.090051953125Q259.622115625,482.090051953125,260.899715625,482.871351953125Q262.177415625,483.652551953125,262.893515625,485.011651953125Q263.617815625,486.362551953125,263.617815625,488.022751953125Q263.617815625,489.756151953125,262.820315625,491.147751953125Q262.030915625,492.539351953125,260.639315625,493.320551953125Q259.255815625,494.093651953125,257.579415625,494.093651953125Q255.846015625,494.093651953125,254.470715625,493.320551953125Q253.095415625,492.539351953125,252.314115625,491.139551953125Q251.541015625,489.731651953125,251.541015625,487.908751953125Q251.541015625,486.533451953125,252.037415625,485.304651953125Q252.542015625,484.075751953125,253.705715625,482.138951953125L257.937515625,475.083251953125L260.989215625,475.083251953125L257.188815625,481.170451953125L256.399415625,482.317951953125Q257.042315625,482.090051953125,257.986315625,482.090051953125ZM257.571315625,491.725551953125Q259.093115625,491.725551953125,260.004515625,490.724551953125Q260.916015625,489.715451953125,260.916015625,488.120351953125Q260.916015625,486.468351953125,260.004515625,485.467351953125Q259.093115625,484.458251953125,257.571315625,484.458251953125Q256.065715625,484.458251953125,255.154315625,485.483651953125Q254.242815625,486.500851953125,254.242815625,488.120351953125Q254.242815625,489.739851953125,255.154315625,490.732651953125Q256.065715625,491.725551953125,257.571315625,491.725551953125Z" fill="#FFFFFF" fill-opacity="1"/></g></g></svg>