<svg xmlns="http://www.w3.org/2000/svg" xmlns:xlink="http://www.w3.org/1999/xlink" fill="none" version="1.1" width="500" height="500" viewBox="0 0 500 500"><g><g><g><path d="M252.0832959765625,8.333251953125C252.0832959765625,8.333251953125,247.9166259765625,8.333251953125,247.9166259765625,8.333251953125C247.9166259765625,8.333251953125,247.9166259765625,24.999951953125,247.9166259765625,24.999951953125C247.9166259765625,24.999951953125,252.0832959765625,24.999951953125,252.0832959765625,24.999951953125C252.0832959765625,24.999951953125,252.0832959765625,8.333251953125,252.0832959765625,8.333251953125C252.0832959765625,8.333251953125,252.0832959765625,8.333251953125,252.0832959765625,8.333251953125Z" fill="#FFFFFF" fill-opacity="0.4000000059604645"/></g><g transform="matrix(0.9945219159126282,-0.10452846437692642,0.10452846437692642,0.9945219159126282,0.18724830486462452,23.32885741431255)"><path d="M226.8308545703125,9.8779296875C226.8308545703125,9.8779296875,222.6641845703125,9.8779296875,222.6641845703125,9.8779296875C222.6641845703125,9.8779296875,222.6641845703125,26.5446296875,222.6641845703125,26.5446296875C222.6641845703125,26.5446296875,226.8308545703125,26.5446296875,226.8308545703125,26.5446296875C226.8308545703125,26.5446296875,226.8308545703125,9.8779296875,226.8308545703125,9.8779296875C226.8308545703125,9.8779296875,226.8308545703125,9.8779296875,226.8308545703125,9.8779296875Z" fill="#FFFFFF" fill-opacity="0.4000000059604645"/></g><g transform="matrix(0.9781476259231567,-0.2079116851091385,0.2079116851091385,0.9781476259231567,1.401188437896053,41.41593526490942)"><path d="M201.8904248828125,14.042236328125C201.8904248828125,14.042236328125,197.7237548828125,14.042236328125,197.7237548828125,14.042236328125C197.7237548828125,14.042236328125,197.7237548828125,30.708936328125,197.7237548828125,30.708936328125C197.7237548828125,30.708936328125,201.8904248828125,30.708936328125,201.8904248828125,30.708936328125C201.8904248828125,30.708936328125,201.8904248828125,14.042236328125,201.8904248828125,14.042236328125C201.8904248828125,14.042236328125,201.8904248828125,14.042236328125,201.8904248828125,14.042236328125Z" fill="#FFFFFF" fill-opacity="0.4000000059604645"/></g><g transform="matrix(0.9510565400123596,-0.30901700258255005,0.30901700258255005,0.9510565400123596,2.056695447790844,54.57777711624658)"><path d="M177.4902783984375,20.796142578125C177.4902783984375,20.796142578125,173.3236083984375,20.796142578125,173.3236083984375,20.796142578125C173.3236083984375,20.796142578125,173.3236083984375,37.462842578125,173.3236083984375,37.462842578125C173.3236083984375,37.462842578125,177.4902783984375,37.462842578125,177.4902783984375,37.462842578125C177.4902783984375,37.462842578125,177.4902783984375,20.796142578125,177.4902783984375,20.796142578125C177.4902783984375,20.796142578125,177.4902783984375,20.796142578125,177.4902783984375,20.796142578125Z" fill="#FFFFFF" fill-opacity="0.4000000059604645"/></g><g transform="matrix(0.9135454297065735,-0.4067366421222687,0.4067366421222687,0.9135454297065735,0.7211190752204857,63.53320438668379)"><path d="M153.9773389453125,30.0703125C153.9773389453125,30.0703125,149.8106689453125,30.0703125,149.8106689453125,30.0703125C149.8106689453125,30.0703125,149.8106689453125,46.7370125,149.8106689453125,46.7370125C149.8106689453125,46.7370125,153.9773389453125,46.7370125,153.9773389453125,46.7370125C153.9773389453125,46.7370125,153.9773389453125,30.0703125,153.9773389453125,30.0703125C153.9773389453125,30.0703125,153.9773389453125,30.0703125,153.9773389453125,30.0703125Z" fill="#FFFFFF" fill-opacity="0.4000000059604645"/></g><g transform="matrix(0.8660253882408142,-0.5,0.5,0.8660253882408142,-3.815343892922101,69.27118991078169)"><path d="M131.5207959765625,41.755126953125C131.5207959765625,41.755126953125,127.3541259765625,41.755126953125,127.3541259765625,41.755126953125C127.3541259765625,41.755126953125,127.3541259765625,58.421826953125,127.3541259765625,58.421826953125C127.3541259765625,58.421826953125,131.5207959765625,58.421826953125,131.5207959765625,58.421826953125C131.5207959765625,58.421826953125,131.5207959765625,41.755126953125,131.5207959765625,41.755126953125C131.5207959765625,41.755126953125,131.5207959765625,41.755126953125,131.5207959765625,41.755126953125Z" fill="#FFFFFF" fill-opacity="0.4000000059604645"/></g><g transform="matrix(0.80901700258255,-0.5877852439880371,0.5877852439880371,0.80901700258255,-12.44191792098718,73.10273349621275)"><path d="M110.4392530078125,55.697509765625C110.4392530078125,55.697509765625,106.2725830078125,55.697509765625,106.2725830078125,55.697509765625C106.2725830078125,55.697509765625,106.2725830078125,72.36420976562499,106.2725830078125,72.36420976562499C106.2725830078125,72.36420976562499,110.4392530078125,72.36420976562499,110.4392530078125,72.36420976562499C110.4392530078125,72.36420976562499,110.4392530078125,55.697509765625,110.4392530078125,55.697509765625C110.4392530078125,55.697509765625,110.4392530078125,55.697509765625,110.4392530078125,55.697509765625Z" fill="#FFFFFF" fill-opacity="0.4000000059604645"/></g><g transform="matrix(0.7431448101997375,-0.6691306233406067,0.6691306233406067,0.7431448101997375,-25.758542507661332,76.49240800942789)"><path d="M90.9221631640625,71.7978515625C90.9221631640625,71.7978515625,86.7554931640625,71.7978515625,86.7554931640625,71.7978515625C86.7554931640625,71.7978515625,86.7554931640625,88.46455156249999,86.7554931640625,88.46455156249999C86.7554931640625,88.46455156249999,90.9221631640625,88.46455156249999,90.9221631640625,88.46455156249999C90.9221631640625,88.46455156249999,90.9221631640625,71.7978515625,90.9221631640625,71.7978515625C90.9221631640625,71.7978515625,90.9221631640625,71.7978515625,90.9221631640625,71.7978515625Z" fill="#FFFFFF" fill-opacity="0.4000000059604645"/></g><g transform="matrix(0.6691306233406067,-0.7431448101997375,0.7431448101997375,0.6691306233406067,-43.929244028600806,81.00761583772692)"><path d="M73.1750928515625,89.837158203125C73.1750928515625,89.837158203125,69.0084228515625,89.837158203125,69.0084228515625,89.837158203125C69.0084228515625,89.837158203125,69.0084228515625,106.50385820312499,69.0084228515625,106.50385820312499C69.0084228515625,106.50385820312499,73.1750928515625,106.50385820312499,73.1750928515625,106.50385820312499C73.1750928515625,106.50385820312499,73.1750928515625,89.837158203125,73.1750928515625,89.837158203125C73.1750928515625,89.837158203125,73.1750928515625,89.837158203125,73.1750928515625,89.837158203125Z" fill="#FFFFFF" fill-opacity="0.4000000059604645"/></g><g transform="matrix(0.5877852439880371,-0.80901700258255,0.80901700258255,0.5877852439880371,-66.74481422224198,88.28620210261579)"><path d="M57.429975664062496,109.64013671875C57.429975664062496,109.64013671875,53.2633056640625,109.64013671875,53.2633056640625,109.64013671875C53.2633056640625,109.64013671875,53.2633056640625,126.30683671874999,53.2633056640625,126.30683671874999C53.2633056640625,126.30683671874999,57.429975664062496,126.30683671874999,57.429975664062496,126.30683671874999C57.429975664062496,126.30683671874999,57.429975664062496,109.64013671875,57.429975664062496,109.64013671875C57.429975664062496,109.64013671875,57.429975664062496,109.64013671875,57.429975664062496,109.64013671875Z" fill="#FFFFFF" fill-opacity="0.4000000059604645"/></g><g transform="matrix(0.5,-0.8660253882408142,0.8660253882408142,0.5,-93.58980641850212,99.82787185154302)"><path d="M43.825239335937496,130.965087890625C43.825239335937496,130.965087890625,39.6585693359375,130.965087890625,39.6585693359375,130.965087890625C39.6585693359375,130.965087890625,39.6585693359375,147.631787890625,39.6585693359375,147.631787890625C39.6585693359375,147.631787890625,43.825239335937496,147.631787890625,43.825239335937496,147.631787890625C43.825239335937496,147.631787890625,43.825239335937496,130.965087890625,43.825239335937496,130.965087890625C43.825239335937496,130.965087890625,43.825239335937496,130.965087890625,43.825239335937496,130.965087890625Z" fill="#FFFFFF" fill-opacity="0.4000000059604645"/></g><g transform="matrix(0.4067366421222687,-0.9135454297065735,0.9135454297065735,0.4067366421222687,-123.49854998378214,117.065718907892)"><path d="M32.550092851562496,153.618408203125C32.550092851562496,153.618408203125,28.3834228515625,153.618408203125,28.3834228515625,153.618408203125C28.3834228515625,153.618408203125,28.3834228515625,170.285108203125,28.3834228515625,170.285108203125C28.3834228515625,170.285108203125,32.550092851562496,170.285108203125,32.550092851562496,170.285108203125C32.550092851562496,170.285108203125,32.550092851562496,153.618408203125,32.550092851562496,153.618408203125C32.550092851562496,153.618408203125,32.550092851562496,153.618408203125,32.550092851562496,153.618408203125Z" fill="#FFFFFF" fill-opacity="0.4000000059604645"/></g><g transform="matrix(0.30901700258255005,-0.9510565400123596,0.9510565400123596,0.30901700258255005,-155.16004896398954,141.07528446753713)"><path d="M23.6733838671875,177.3173828125C23.6733838671875,177.3173828125,19.5067138671875,177.3173828125,19.5067138671875,177.3173828125C19.5067138671875,177.3173828125,19.5067138671875,193.9840828125,19.5067138671875,193.9840828125C19.5067138671875,193.9840828125,23.6733838671875,193.9840828125,23.6733838671875,193.9840828125C23.6733838671875,193.9840828125,23.6733838671875,177.3173828125,23.6733838671875,177.3173828125C23.6733838671875,177.3173828125,23.6733838671875,177.3173828125,23.6733838671875,177.3173828125Z" fill="#FFFFFF" fill-opacity="0.4000000059604645"/></g><g transform="matrix(0.2079116851091385,-0.9781476259231567,0.9781476259231567,0.2079116851091385,-186.93372846869352,172.7508044845672)"><path d="M17.3645459765625,201.79736328125C17.3645459765625,201.79736328125,13.1978759765625,201.79736328125,13.1978759765625,201.79736328125C13.1978759765625,201.79736328125,13.1978759765625,218.46406328125,13.1978759765625,218.46406328125C13.1978759765625,218.46406328125,17.3645459765625,218.46406328125,17.3645459765625,218.46406328125C17.3645459765625,218.46406328125,17.3645459765625,201.79736328125,17.3645459765625,201.79736328125C17.3645459765625,201.79736328125,17.3645459765625,201.79736328125,17.3645459765625,201.79736328125Z" fill="#FFFFFF" fill-opacity="0.4000000059604645"/></g><g transform="matrix(0.10452846437692642,-0.9945219159126282,0.9945219159126282,0.10452846437692642,-217.12342770606756,212.46205983670188)"><path d="M13.5864698046875,226.801025390625C13.5864698046875,226.801025390625,9.4197998046875,226.801025390625,9.4197998046875,226.801025390625C9.4197998046875,226.801025390625,9.4197998046875,243.467725390625,9.4197998046875,243.467725390625C9.4197998046875,243.467725390625,13.5864698046875,243.467725390625,13.5864698046875,243.467725390625C13.5864698046875,243.467725390625,13.5864698046875,226.801025390625,13.5864698046875,226.801025390625C13.5864698046875,226.801025390625,13.5864698046875,226.801025390625,13.5864698046875,226.801025390625Z" fill="#FFFFFF" fill-opacity="0.4000000059604645"/></g><g transform="matrix(0,-1,1,0,-243.7498779296875,260.4166259765625)"><path d="M12.5000440234375,252.083251953125C12.5000440234375,252.083251953125,8.3333740234375,252.083251953125,8.3333740234375,252.083251953125C8.3333740234375,252.083251953125,8.3333740234375,268.749951953125,8.3333740234375,268.749951953125C8.3333740234375,268.749951953125,12.5000440234375,268.749951953125,12.5000440234375,268.749951953125C12.5000440234375,268.749951953125,12.5000440234375,252.083251953125,12.5000440234375,252.083251953125C12.5000440234375,252.083251953125,12.5000440234375,252.083251953125,12.5000440234375,252.083251953125Z" fill="#FFFFFF" fill-opacity="0.4000000059604645"/></g><g transform="matrix(-0.10452846437692642,-0.9945219159126282,0.9945219159126282,-0.10452846437692642,-264.91524484481033,316.13135715117096)"><path d="M14.0320264453125,277.3310546875C14.0320264453125,277.3310546875,9.8653564453125,277.3310546875,9.8653564453125,277.3310546875C9.8653564453125,277.3310546875,9.8653564453125,293.9977546875,9.8653564453125,293.9977546875C9.8653564453125,293.9977546875,14.0320264453125,293.9977546875,14.0320264453125,293.9977546875C14.0320264453125,293.9977546875,14.0320264453125,277.3310546875,14.0320264453125,277.3310546875C14.0320264453125,277.3310546875,14.0320264453125,277.3310546875,14.0320264453125,277.3310546875Z" fill="#FFFFFF" fill-opacity="0.4000000059604645"/></g><g transform="matrix(-0.2079116851091385,-0.9781476259231567,0.9781476259231567,-0.2079116851091385,-278.711724415336,378.8813372822442)"><path d="M18.2168408984375,302.288818359375C18.2168408984375,302.288818359375,14.0501708984375,302.288818359375,14.0501708984375,302.288818359375C14.0501708984375,302.288818359375,14.0501708984375,318.955518359375,14.0501708984375,318.955518359375C14.0501708984375,318.955518359375,18.2168408984375,318.955518359375,18.2168408984375,318.955518359375C18.2168408984375,318.955518359375,18.2168408984375,302.288818359375,18.2168408984375,302.288818359375C18.2168408984375,302.288818359375,18.2168408984375,302.288818359375,18.2168408984375,302.288818359375Z" fill="#FFFFFF" fill-opacity="0.4000000059604645"/></g><g transform="matrix(-0.3102172315120697,-0.9506657123565674,0.9506657123565674,-0.3102172315120697,-282.1330823499702,441.65451013641723)"><path d="M23.3247607421875,323.18212890625C23.3247607421875,323.18212890625,19.1610107421875,323.18212890625,19.1610107421875,323.18212890625C19.1610107421875,323.18212890625,19.1610107421875,339.83712890625,19.1610107421875,339.83712890625C19.1610107421875,339.83712890625,23.3247607421875,339.83712890625,23.3247607421875,339.83712890625C23.3247607421875,339.83712890625,23.3247607421875,323.18212890625,23.3247607421875,323.18212890625C23.3247607421875,323.18212890625,23.3247607421875,323.18212890625,23.3247607421875,323.18212890625Z" fill="#FFFFFF" fill-opacity="0.4000000059604645"/></g><g transform="matrix(-0.4067366421222687,-0.9135454297065735,0.9135454297065735,-0.4067366421222687,-277.60872583320815,520.1308873719026)"><path d="M34.250776445312496,350.2060546875C34.250776445312496,350.2060546875,30.0841064453125,350.2060546875,30.0841064453125,350.2060546875C30.0841064453125,350.2060546875,30.0841064453125,366.8727546875,30.0841064453125,366.8727546875C30.0841064453125,366.8727546875,34.250776445312496,366.8727546875,34.250776445312496,366.8727546875C34.250776445312496,366.8727546875,34.250776445312496,350.2060546875,34.250776445312496,350.2060546875C34.250776445312496,350.2060546875,34.250776445312496,350.2060546875,34.250776445312496,350.2060546875Z" fill="#FFFFFF" fill-opacity="0.4000000059604645"/></g><g transform="matrix(-0.5,-0.8660253882408142,0.8660253882408142,-0.5,-260.0805175956921,595.1061110371302)"><path d="M45.918745195312496,372.6318359375C45.918745195312496,372.6318359375,41.7520751953125,372.6318359375,41.7520751953125,372.6318359375C41.7520751953125,372.6318359375,41.7520751953125,389.2985359375,41.7520751953125,389.2985359375C41.7520751953125,389.2985359375,45.918745195312496,389.2985359375,45.918745195312496,389.2985359375C45.918745195312496,389.2985359375,45.918745195312496,372.6318359375,45.918745195312496,372.6318359375C45.918745195312496,372.6318359375,45.918745195312496,372.6318359375,45.918745195312496,372.6318359375Z" fill="#FFFFFF" fill-opacity="0.4000000059604645"/></g><g transform="matrix(-0.5877852439880371,-0.80901700258255,0.80901700258255,-0.5877852439880371,-230.07598338875687,670.2430864658454)"><path d="M59.881635820312496,393.736328125C59.881635820312496,393.736328125,55.7149658203125,393.736328125,55.7149658203125,393.736328125C55.7149658203125,393.736328125,55.7149658203125,410.403028125,55.7149658203125,410.403028125C55.7149658203125,410.403028125,59.881635820312496,410.403028125,59.881635820312496,410.403028125C59.881635820312496,410.403028125,59.881635820312496,393.736328125,59.881635820312496,393.736328125C59.881635820312496,393.736328125,59.881635820312496,393.736328125,59.881635820312496,393.736328125Z" fill="#FFFFFF" fill-opacity="0.4000000059604645"/></g><g transform="matrix(-0.6691306233406067,-0.7431448101997375,0.7431448101997375,-0.6691306233406067,-187.2677067427212,743.1308601932469)"><path d="M75.9643994921875,413.25390625C75.9643994921875,413.25390625,71.7977294921875,413.25390625,71.7977294921875,413.25390625C71.7977294921875,413.25390625,71.7977294921875,429.92060625,71.7977294921875,429.92060625C71.7977294921875,429.92060625,75.9643994921875,429.92060625,75.9643994921875,429.92060625C75.9643994921875,429.92060625,75.9643994921875,413.25390625,75.9643994921875,413.25390625C75.9643994921875,413.25390625,75.9643994921875,413.25390625,75.9643994921875,413.25390625Z" fill="#FFFFFF" fill-opacity="0.4000000059604645"/></g><g transform="matrix(-0.7431448101997375,-0.6691306233406067,0.6691306233406067,-0.7431448101997375,-131.80688829439896,811.3860078847865)"><path d="M93.9941846484375,430.990966796875C93.9941846484375,430.990966796875,89.8275146484375,430.990966796875,89.8275146484375,430.990966796875C89.8275146484375,430.990966796875,89.8275146484375,447.657666796875,89.8275146484375,447.657666796875C89.8275146484375,447.657666796875,93.9941846484375,447.657666796875,93.9941846484375,447.657666796875C93.9941846484375,447.657666796875,93.9941846484375,430.990966796875,93.9941846484375,430.990966796875C93.9941846484375,430.990966796875,93.9941846484375,430.990966796875,93.9941846484375,430.990966796875Z" fill="#FFFFFF" fill-opacity="0.4000000059604645"/></g><g transform="matrix(-0.80901700258255,-0.5877852439880371,0.5877852439880371,-0.80901700258255,-64.26314057148556,872.6020630199928)"><path d="M113.7978955859375,446.7412109375C113.7978955859375,446.7412109375,109.6312255859375,446.7412109375,109.6312255859375,446.7412109375C109.6312255859375,446.7412109375,109.6312255859375,463.4079109375,109.6312255859375,463.4079109375C109.6312255859375,463.4079109375,113.7978955859375,463.4079109375,113.7978955859375,463.4079109375C113.7978955859375,463.4079109375,113.7978955859375,446.7412109375,113.7978955859375,446.7412109375C113.7978955859375,446.7412109375,113.7978955859375,446.7412109375,113.7978955859375,446.7412109375Z" fill="#FFFFFF" fill-opacity="0.4000000059604645"/></g><g transform="matrix(-0.8660253882408142,-0.5,0.5,-0.8660253882408142,14.228333138300513,924.4677372018632)"><path d="M135.1360303515625,460.32763671875C135.1360303515625,460.32763671875,130.9693603515625,460.32763671875,130.9693603515625,460.32763671875C130.9693603515625,460.32763671875,130.9693603515625,476.99433671875,130.9693603515625,476.99433671875C130.9693603515625,476.99433671875,135.1360303515625,476.99433671875,135.1360303515625,476.99433671875C135.1360303515625,476.99433671875,135.1360303515625,460.32763671875,135.1360303515625,460.32763671875C135.1360303515625,460.32763671875,135.1360303515625,460.32763671875,135.1360303515625,460.32763671875Z" fill="#FFFFFF" fill-opacity="0.4000000059604645"/></g><g transform="matrix(-0.9135454297065735,-0.4067366421222687,0.4067366421222687,-0.9135454297065735,102.0957976164209,964.9506309157623)"><path d="M157.7678662890625,471.624755859375C157.7678662890625,471.624755859375,153.6011962890625,471.624755859375,153.6011962890625,471.624755859375C153.6011962890625,471.624755859375,153.6011962890625,488.291455859375,153.6011962890625,488.291455859375C153.6011962890625,488.291455859375,157.7678662890625,488.291455859375,157.7678662890625,488.291455859375C157.7678662890625,488.291455859375,157.7678662890625,471.624755859375,157.7678662890625,471.624755859375C157.7678662890625,471.624755859375,157.7678662890625,471.624755859375,157.7678662890625,471.624755859375Z" fill="#FFFFFF" fill-opacity="0.4000000059604645"/></g><g transform="matrix(-0.9506657123565674,-0.3102172315120697,0.3102172315120697,-0.9506657123565674,198.9778496141007,999.8385705059009)"><path d="M183.1555712890625,484.097412109375C183.1555712890625,484.097412109375,178.9918212890625,484.097412109375,178.9918212890625,484.097412109375C178.9918212890625,484.097412109375,178.9918212890625,500.752412109375,178.9918212890625,500.752412109375C178.9918212890625,500.752412109375,183.1555712890625,500.752412109375,183.1555712890625,500.752412109375C183.1555712890625,500.752412109375,183.1555712890625,484.097412109375,183.1555712890625,484.097412109375C183.1555712890625,484.097412109375,183.1555712890625,484.097412109375,183.1555712890625,484.097412109375Z" fill="#FFFFFF" fill-opacity="0.4000000059604645"/></g><g transform="matrix(-0.9781476259231567,-0.2079116851091385,0.2079116851091385,-0.9781476259231567,297.93194572872744,1004.9867711644238)"><path d="M205.9468213671875,486.83642578125C205.9468213671875,486.83642578125,201.7801513671875,486.83642578125,201.7801513671875,486.83642578125C201.7801513671875,486.83642578125,201.7801513671875,503.50312578125,201.7801513671875,503.50312578125C201.7801513671875,503.50312578125,205.9468213671875,503.50312578125,205.9468213671875,503.50312578125C205.9468213671875,503.50312578125,205.9468213671875,486.83642578125,205.9468213671875,486.83642578125C205.9468213671875,486.83642578125,205.9468213671875,486.83642578125,205.9468213671875,486.83642578125Z" fill="#FFFFFF" fill-opacity="0.4000000059604645"/></g><g transform="matrix(-0.9945219159126282,-0.10452846437692642,0.10452846437692642,-0.9945219159126282,401.1384660330514,1002.1223956787371)"><path d="M230.9954053515625,490.5498046875C230.9954053515625,490.5498046875,226.8287353515625,490.5498046875,226.8287353515625,490.5498046875C226.8287353515625,490.5498046875,226.8287353515625,507.2165046875,226.8287353515625,507.2165046875C226.8287353515625,507.2165046875,230.9954053515625,507.2165046875,230.9954053515625,507.2165046875C230.9954053515625,507.2165046875,230.9954053515625,490.5498046875,230.9954053515625,490.5498046875C230.9954053515625,490.5498046875,230.9954053515625,490.5498046875,230.9954053515625,490.5498046875Z" fill="#FFFFFF" fill-opacity="0.4000000059604645"/></g><g transform="matrix(-1,-1.2246468525851679e-16,1.2246468525851679e-16,-1,504.16625976562494,983.33349609375)"><path d="M256.2497998828125,491.666748046875C256.2497998828125,491.666748046875,252.0831298828125,491.666748046875,252.0831298828125,491.666748046875C252.0831298828125,491.666748046875,252.0831298828125,508.333448046875,252.0831298828125,508.333448046875C252.0831298828125,508.333448046875,256.2497998828125,508.333448046875,256.2497998828125,508.333448046875C256.2497998828125,508.333448046875,256.2497998828125,491.666748046875,256.2497998828125,491.666748046875C256.2497998828125,491.666748046875,256.2497998828125,491.666748046875,256.2497998828125,491.666748046875Z" fill="#FFFFFF" fill-opacity="0.4000000059604645"/></g><g transform="matrix(-0.9945219159126282,0.10452846437692642,-0.10452846437692642,-0.9945219159126282,604.3505743341029,948.5641549855909)"><path d="M281.4858838671875,490.118408203125C281.4858838671875,490.118408203125,277.3192138671875,490.118408203125,277.3192138671875,490.118408203125C277.3192138671875,490.118408203125,277.3192138671875,506.785108203125,277.3192138671875,506.785108203125C277.3192138671875,506.785108203125,281.4858838671875,506.785108203125,281.4858838671875,506.785108203125C281.4858838671875,506.785108203125,281.4858838671875,490.118408203125,281.4858838671875,490.118408203125C281.4858838671875,490.118408203125,281.4858838671875,490.118408203125,281.4858838671875,490.118408203125Z" fill="#FFFFFF" fill-opacity="0.4000000059604645"/></g><g transform="matrix(-0.9781476259231567,0.2079116851091385,-0.2079116851091385,-0.9781476259231567,699.0008217709146,898.4485715592691)"><path d="M306.4517041796875,485.958251953125C306.4517041796875,485.958251953125,302.2850341796875,485.958251953125,302.2850341796875,485.958251953125C302.2850341796875,485.958251953125,302.2850341796875,502.624951953125,302.2850341796875,502.624951953125C302.2850341796875,502.624951953125,306.4517041796875,502.624951953125,306.4517041796875,502.624951953125C306.4517041796875,502.624951953125,306.4517041796875,485.958251953125,306.4517041796875,485.958251953125C306.4517041796875,485.958251953125,306.4517041796875,485.958251953125,306.4517041796875,485.958251953125Z" fill="#FFFFFF" fill-opacity="0.4000000059604645"/></g><g transform="matrix(-0.9510565400123596,0.30901700258255005,-0.30901700258255005,-0.9510565400123596,785.4210235822757,833.9970491074273)"><path d="M330.8310987109375,479.19775390625C330.8310987109375,479.19775390625,326.6644287109375,479.19775390625,326.6644287109375,479.19775390625C326.6644287109375,479.19775390625,326.6644287109375,495.86445390625,326.6644287109375,495.86445390625C326.6644287109375,495.86445390625,330.8310987109375,495.86445390625,330.8310987109375,495.86445390625C330.8310987109375,495.86445390625,330.8310987109375,479.19775390625,330.8310987109375,479.19775390625C330.8310987109375,479.19775390625,330.8310987109375,479.19775390625,330.8310987109375,479.19775390625Z" fill="#FFFFFF" fill-opacity="0.4000000059604645"/></g><g transform="matrix(-0.9135454297065735,0.4067366421222687,-0.4067366421222687,-0.9135454297065735,861.2240394685505,756.7961448431342)"><path d="M354.3477002734375,469.927490234375C354.3477002734375,469.927490234375,350.1810302734375,469.927490234375,350.1810302734375,469.927490234375C350.1810302734375,469.927490234375,350.1810302734375,486.594190234375,350.1810302734375,486.594190234375C350.1810302734375,486.594190234375,354.3477002734375,486.594190234375,354.3477002734375,486.594190234375C354.3477002734375,486.594190234375,354.3477002734375,469.927490234375,354.3477002734375,469.927490234375C354.3477002734375,469.927490234375,354.3477002734375,469.927490234375,354.3477002734375,469.927490234375Z" fill="#FFFFFF" fill-opacity="0.4000000059604645"/></g><g transform="matrix(-0.8660253882408142,0.5,-0.5,-0.8660253882408142,924.4893097063396,668.7725969094172)"><path d="M376.8127881640625,458.244384765625C376.8127881640625,458.244384765625,372.6461181640625,458.244384765625,372.6461181640625,458.244384765625C372.6461181640625,458.244384765625,372.6461181640625,474.911084765625,372.6461181640625,474.911084765625C372.6461181640625,474.911084765625,376.8127881640625,474.911084765625,376.8127881640625,474.911084765625C376.8127881640625,474.911084765625,376.8127881640625,458.244384765625,376.8127881640625,458.244384765625C376.8127881640625,458.244384765625,376.8127881640625,458.244384765625,376.8127881640625,458.244384765625Z" fill="#FFFFFF" fill-opacity="0.4000000059604645"/></g><g transform="matrix(-0.80901700258255,0.5877852439880371,-0.5877852439880371,-0.80901700258255,973.4214959933379,572.2699009202479)"><path d="M397.9065381640625,444.27685546875C397.9065381640625,444.27685546875,393.7398681640625,444.27685546875,393.7398681640625,444.27685546875C393.7398681640625,444.27685546875,393.7398681640625,460.94355546875,393.7398681640625,460.94355546875C393.7398681640625,460.94355546875,397.9065381640625,460.94355546875,397.9065381640625,460.94355546875C397.9065381640625,460.94355546875,397.9065381640625,444.27685546875,397.9065381640625,444.27685546875C397.9065381640625,444.27685546875,397.9065381640625,444.27685546875,397.9065381640625,444.27685546875Z" fill="#FFFFFF" fill-opacity="0.4000000059604645"/></g><g transform="matrix(-0.7431448101997375,0.6691306233406067,-0.6691306233406067,-0.7431448101997375,1006.9157656719399,469.8674685248043)"><path d="M417.4419385546875,428.193115234375C417.4419385546875,428.193115234375,413.2752685546875,428.193115234375,413.2752685546875,428.193115234375C413.2752685546875,428.193115234375,413.2752685546875,444.859815234375,413.2752685546875,444.859815234375C413.2752685546875,444.859815234375,417.4419385546875,444.859815234375,417.4419385546875,444.859815234375C417.4419385546875,444.859815234375,417.4419385546875,428.193115234375,417.4419385546875,428.193115234375C417.4419385546875,428.193115234375,417.4419385546875,428.193115234375,417.4419385546875,428.193115234375Z" fill="#FFFFFF" fill-opacity="0.4000000059604645"/></g><g transform="matrix(-0.6691306233406067,0.7431448101997375,-0.7431448101997375,-0.6691306233406067,1024.1977251964927,364.301518270855)"><path d="M435.1667920703125,410.15185546875C435.1667920703125,410.15185546875,431.0001220703125,410.15185546875,431.0001220703125,410.15185546875C431.0001220703125,410.15185546875,431.0001220703125,426.81855546875,431.0001220703125,426.81855546875C431.0001220703125,426.81855546875,435.1667920703125,426.81855546875,435.1667920703125,426.81855546875C435.1667920703125,426.81855546875,435.1667920703125,410.15185546875,435.1667920703125,410.15185546875C435.1667920703125,410.15185546875,435.1667920703125,410.15185546875,435.1667920703125,410.15185546875Z" fill="#FFFFFF" fill-opacity="0.4000000059604645"/></g><g transform="matrix(-0.5877852439880371,0.80901700258255,-0.80901700258255,-0.5877852439880371,1025.1561386853573,258.3873192180108)"><path d="M450.9172803515625,390.365234375C450.9172803515625,390.365234375,446.7506103515625,390.365234375,446.7506103515625,390.365234375C446.7506103515625,390.365234375,446.7506103515625,407.031934375,446.7506103515625,407.031934375C446.7506103515625,407.031934375,450.9172803515625,407.031934375,450.9172803515625,407.031934375C450.9172803515625,407.031934375,450.9172803515625,390.365234375,450.9172803515625,390.365234375C450.9172803515625,390.365234375,450.9172803515625,390.365234375,450.9172803515625,390.365234375Z" fill="#FFFFFF" fill-opacity="0.4000000059604645"/></g><g transform="matrix(-0.4067366421222687,0.9135454297065735,-0.9135454297065735,-0.4067366421222687,979.8846723336937,56.419619753811276)"><path d="M475.7893506640625,346.382080078125C475.7893506640625,346.382080078125,471.6226806640625,346.382080078125,471.6226806640625,346.382080078125C471.6226806640625,346.382080078125,471.6226806640625,363.048780078125,471.6226806640625,363.048780078125C471.6226806640625,363.048780078125,475.7893506640625,363.048780078125,475.7893506640625,363.048780078125C475.7893506640625,363.048780078125,475.7893506640625,346.382080078125,475.7893506640625,346.382080078125C475.7893506640625,346.382080078125,475.7893506640625,346.382080078125,475.7893506640625,346.382080078125Z" fill="#FFFFFF" fill-opacity="0.4000000059604645"/></g><g transform="matrix(-0.30901700258255005,0.9510565400123596,-0.9510565400123596,-0.30901700258255005,935.8559090414565,-34.56118863781012)"><path d="M484.6497022265625,322.68896484375C484.6497022265625,322.68896484375,480.4830322265625,322.68896484375,480.4830322265625,322.68896484375C480.4830322265625,322.68896484375,480.4830322265625,339.35566484375,480.4830322265625,339.35566484375C480.4830322265625,339.35566484375,484.6497022265625,339.35566484375,484.6497022265625,339.35566484375C484.6497022265625,339.35566484375,484.6497022265625,322.68896484375,484.6497022265625,322.68896484375C484.6497022265625,322.68896484375,484.6497022265625,322.68896484375,484.6497022265625,322.68896484375Z" fill="#FFFFFF" fill-opacity="0.4000000059604645"/></g><g transform="matrix(-0.2079116851091385,0.9781476259231567,-0.9781476259231567,-0.2079116851091385,879.712083296361,-115.9725121196243)"><path d="M490.9790479296875,298.2021484375C490.9790479296875,298.2021484375,486.8123779296875,298.2021484375,486.8123779296875,298.2021484375C486.8123779296875,298.2021484375,486.8123779296875,314.8688484375,486.8123779296875,314.8688484375C486.8123779296875,314.8688484375,490.9790479296875,314.8688484375,490.9790479296875,314.8688484375C490.9790479296875,314.8688484375,490.9790479296875,298.2021484375,490.9790479296875,298.2021484375C490.9790479296875,298.2021484375,490.9790479296875,298.2021484375,490.9790479296875,298.2021484375Z" fill="#FFFFFF" fill-opacity="0.4000000059604645"/></g><g transform="matrix(-0.10452846437692642,0.9945219159126282,-0.9945219159126282,-0.10452846437692642,813.5472788899651,-186.11745577782312)"><path d="M494.7307569140625,273.201904296875C494.7307569140625,273.201904296875,490.5640869140625,273.201904296875,490.5640869140625,273.201904296875C490.5640869140625,273.201904296875,490.5640869140625,289.868604296875,490.5640869140625,289.868604296875C490.5640869140625,289.868604296875,494.7307569140625,289.868604296875,494.7307569140625,289.868604296875C494.7307569140625,289.868604296875,494.7307569140625,273.201904296875,494.7307569140625,273.201904296875C494.7307569140625,273.201904296875,494.7307569140625,273.201904296875,494.7307569140625,273.201904296875Z" fill="#FFFFFF" fill-opacity="0.4000000059604645"/></g><g transform="matrix(0,1,-1,0,739.5836181640625,-243.7501220703125)"><path d="M495.8335401171875,247.916748046875C495.8335401171875,247.916748046875,491.6668701171875,247.916748046875,491.6668701171875,247.916748046875C491.6668701171875,247.916748046875,491.6668701171875,264.583448046875,491.6668701171875,264.583448046875C491.6668701171875,264.583448046875,495.8335401171875,264.583448046875,495.8335401171875,264.583448046875C495.8335401171875,264.583448046875,495.8335401171875,247.916748046875,495.8335401171875,247.916748046875C495.8335401171875,247.916748046875,495.8335401171875,247.916748046875,495.8335401171875,247.916748046875Z" fill="#FFFFFF" fill-opacity="0.4000000059604645"/></g><g transform="matrix(0.10452846437692642,0.9945219159126282,-0.9945219159126282,0.10452846437692642,660.3487017527359,-288.0468115948279)"><path d="M494.2952100390625,222.67236328125C494.2952100390625,222.67236328125,490.1285400390625,222.67236328125,490.1285400390625,222.67236328125C490.1285400390625,222.67236328125,490.1285400390625,239.33906328125,490.1285400390625,239.33906328125C490.1285400390625,239.33906328125,494.2952100390625,239.33906328125,494.2952100390625,239.33906328125C494.2952100390625,239.33906328125,494.2952100390625,222.67236328125,494.2952100390625,222.67236328125C494.2952100390625,222.67236328125,494.2952100390625,222.67236328125,494.2952100390625,222.67236328125Z" fill="#FFFFFF" fill-opacity="0.4000000059604645"/></g><g transform="matrix(0.2079116851091385,0.9781476259231567,-0.9781476259231567,0.2079116851091385,578.2988516318201,-318.7182223250529)"><path d="M490.1081983203125,197.710693359375C490.1081983203125,197.710693359375,485.9415283203125,197.710693359375,485.9415283203125,197.710693359375C485.9415283203125,197.710693359375,485.9415283203125,214.377393359375,485.9415283203125,214.377393359375C485.9415283203125,214.377393359375,490.1081983203125,214.377393359375,490.1081983203125,214.377393359375C490.1081983203125,214.377393359375,490.1081983203125,197.710693359375,490.1081983203125,197.710693359375C490.1081983203125,197.710693359375,490.1081983203125,197.710693359375,490.1081983203125,197.710693359375Z" fill="#FFFFFF" fill-opacity="0.4000000059604645"/></g><g transform="matrix(0.30901700258255005,0.9510565400123596,-0.9510565400123596,0.30901700258255005,495.97190409753966,-335.98124706104136)"><path d="M483.3718701953125,173.332763671875C483.3718701953125,173.332763671875,479.2052001953125,173.332763671875,479.2052001953125,173.332763671875C479.2052001953125,173.332763671875,479.2052001953125,189.999463671875,479.2052001953125,189.999463671875C479.2052001953125,189.999463671875,483.3718701953125,189.999463671875,483.3718701953125,189.999463671875C483.3718701953125,189.999463671875,483.3718701953125,173.332763671875,483.3718701953125,173.332763671875C483.3718701953125,173.332763671875,483.3718701953125,173.332763671875,483.3718701953125,173.332763671875Z" fill="#FFFFFF" fill-opacity="0.4000000059604645"/></g><g transform="matrix(0.4067366421222687,0.9135454297065735,-0.9135454297065735,0.4067366421222687,415.6566414402514,-340.42423223950755)"><path d="M474.0986768359375,149.8154296875C474.0986768359375,149.8154296875,469.9320068359375,149.8154296875,469.9320068359375,149.8154296875C469.9320068359375,149.8154296875,469.9320068359375,166.4821296875,469.9320068359375,166.4821296875C469.9320068359375,166.4821296875,474.0986768359375,166.4821296875,474.0986768359375,166.4821296875C474.0986768359375,166.4821296875,474.0986768359375,149.8154296875,474.0986768359375,149.8154296875C474.0986768359375,149.8154296875,474.0986768359375,149.8154296875,474.0986768359375,149.8154296875Z" fill="#FFFFFF" fill-opacity="0.4000000059604645"/></g><g transform="matrix(0.5,0.8660253882408142,-0.8660253882408142,0.5,339.42844899804913,-333.1700108176519)"><path d="M462.4145948046875,127.36865234375C462.4145948046875,127.36865234375,458.2479248046875,127.36865234375,458.2479248046875,127.36865234375C458.2479248046875,127.36865234375,458.2479248046875,144.03535234375,458.2479248046875,144.03535234375C458.2479248046875,144.03535234375,462.4145948046875,144.03535234375,462.4145948046875,144.03535234375C462.4145948046875,144.03535234375,462.4145948046875,127.36865234375,462.4145948046875,127.36865234375C462.4145948046875,127.36865234375,462.4145948046875,127.36865234375,462.4145948046875,127.36865234375Z" fill="#FFFFFF" fill-opacity="0.4000000059604645"/></g><g transform="matrix(0.5877852439880371,0.80901700258255,-0.80901700258255,0.5877852439880371,269.1170380984404,-315.6352988997023)"><path d="M448.4597608203125,106.268310546875C448.4597608203125,106.268310546875,444.2930908203125,106.268310546875,444.2930908203125,106.268310546875C444.2930908203125,106.268310546875,444.2930908203125,122.93501054687499,444.2930908203125,122.93501054687499C444.2930908203125,122.93501054687499,448.4597608203125,122.93501054687499,448.4597608203125,122.93501054687499C448.4597608203125,122.93501054687499,448.4597608203125,106.268310546875,448.4597608203125,106.268310546875C448.4597608203125,106.268310546875,448.4597608203125,106.268310546875,448.4597608203125,106.268310546875Z" fill="#FFFFFF" fill-opacity="0.4000000059604645"/></g><g transform="matrix(0.6691306233406067,0.7431448101997375,-0.7431448101997375,0.6691306233406067,206.13265393174515,-289.51229699127)"><path d="M432.3606397265625,86.734619140625C432.3606397265625,86.734619140625,428.1939697265625,86.734619140625,428.1939697265625,86.734619140625C428.1939697265625,86.734619140625,428.1939697265625,103.40131914062499,428.1939697265625,103.40131914062499C428.1939697265625,103.40131914062499,432.3606397265625,103.40131914062499,432.3606397265625,103.40131914062499C432.3606397265625,103.40131914062499,432.3606397265625,86.734619140625,432.3606397265625,86.734619140625C432.3606397265625,86.734619140625,432.3606397265625,86.734619140625,432.3606397265625,86.734619140625Z" fill="#FFFFFF" fill-opacity="0.4000000059604645"/></g><g transform="matrix(0.7431448101997375,0.6691306233406067,-0.6691306233406067,0.7431448101997375,151.51667861088208,-256.71589394649345)"><path d="M414.3088819140625,68.999267578125C414.3088819140625,68.999267578125,410.1422119140625,68.999267578125,410.1422119140625,68.999267578125C410.1422119140625,68.999267578125,410.1422119140625,85.66596757812499,410.1422119140625,85.66596757812499C410.1422119140625,85.66596757812499,414.3088819140625,85.66596757812499,414.3088819140625,85.66596757812499C414.3088819140625,85.66596757812499,414.3088819140625,68.999267578125,414.3088819140625,68.999267578125C414.3088819140625,68.999267578125,414.3088819140625,68.999267578125,414.3088819140625,68.999267578125Z" fill="#FFFFFF" fill-opacity="0.4000000059604645"/></g><g transform="matrix(0.80901700258255,0.5877852439880371,-0.5877852439880371,0.80901700258255,105.85342445437709,-219.27504943266104)"><path d="M394.5229932421875,53.254150390625C394.5229932421875,53.254150390625,390.3563232421875,53.254150390625,390.3563232421875,53.254150390625C390.3563232421875,53.254150390625,390.3563232421875,69.92085039062499,390.3563232421875,69.92085039062499C390.3563232421875,69.92085039062499,394.5229932421875,69.92085039062499,394.5229932421875,69.92085039062499C394.5229932421875,69.92085039062499,394.5229932421875,53.254150390625,394.5229932421875,53.254150390625C394.5229932421875,53.254150390625,394.5229932421875,53.254150390625,394.5229932421875,53.254150390625Z" fill="#FFFFFF" fill-opacity="0.4000000059604645"/></g><g transform="matrix(0.8660253882408142,0.5,-0.5,0.8660253882408142,69.27667417414341,-179.2002957733348)"><path d="M373.1973096484375,39.671875C373.1973096484375,39.671875,369.0306396484375,39.671875,369.0306396484375,39.671875C369.0306396484375,39.671875,369.0306396484375,56.338575,369.0306396484375,56.338575C369.0306396484375,56.338575,373.1973096484375,56.338575,373.1973096484375,56.338575C373.1973096484375,56.338575,373.1973096484375,39.671875,373.1973096484375,39.671875C373.1973096484375,39.671875,373.1973096484375,39.671875,373.1973096484375,39.671875Z" fill="#FFFFFF" fill-opacity="0.4000000059604645"/></g><g transform="matrix(0.9135454297065735,0.4067366421222687,-0.4067366421222687,0.9135454297065735,41.495255713343795,-138.43267353347983)"><path d="M350.5515576953125,28.3935546875C350.5515576953125,28.3935546875,346.3848876953125,28.3935546875,346.3848876953125,28.3935546875C346.3848876953125,28.3935546875,346.3848876953125,45.0602546875,346.3848876953125,45.0602546875C346.3848876953125,45.0602546875,350.5515576953125,45.0602546875,350.5515576953125,45.0602546875C350.5515576953125,45.0602546875,350.5515576953125,28.3935546875,350.5515576953125,28.3935546875C350.5515576953125,28.3935546875,350.5515576953125,28.3935546875,350.5515576953125,28.3935546875Z" fill="#FFFFFF" fill-opacity="0.4000000059604645"/></g><g transform="matrix(0.9510565400123596,0.30901700258255005,-0.30901700258255005,0.9510565400123596,21.821837854040496,-98.7620872253683)"><path d="M326.8572217578125,19.5078125C326.8572217578125,19.5078125,322.6905517578125,19.5078125,322.6905517578125,19.5078125C322.6905517578125,19.5078125,322.6905517578125,36.1745125,322.6905517578125,36.1745125C322.6905517578125,36.1745125,326.8572217578125,36.1745125,326.8572217578125,36.1745125C326.8572217578125,36.1745125,326.8572217578125,19.5078125,326.8572217578125,19.5078125C326.8572217578125,19.5078125,326.8572217578125,19.5078125,326.8572217578125,19.5078125Z" fill="#FFFFFF" fill-opacity="0.4000000059604645"/></g><g transform="matrix(0.9781476259231567,0.2079116851091385,-0.2079116851091385,0.9781476259231567,9.25791536775796,-61.713134522697146)"><path d="M302.3762647265625,13.18505859375C302.3762647265625,13.18505859375,298.2095947265625,13.18505859375,298.2095947265625,13.18505859375C298.2095947265625,13.18505859375,298.2095947265625,29.85175859375,298.2095947265625,29.85175859375C298.2095947265625,29.85175859375,302.3762647265625,29.85175859375,302.3762647265625,29.85175859375C302.3762647265625,29.85175859375,302.3762647265625,13.18505859375,302.3762647265625,13.18505859375C302.3762647265625,13.18505859375,302.3762647265625,13.18505859375,302.3762647265625,13.18505859375Z" fill="#FFFFFF" fill-opacity="0.4000000059604645"/></g><g transform="matrix(0.9945219159126282,0.10452846437692642,-0.10452846437692642,0.9945219159126282,2.483999219537509,-28.50408134186091)"><path d="M277.3538037890625,9.44677734375C277.3538037890625,9.44677734375,273.1871337890625,9.44677734375,273.1871337890625,9.44677734375C273.1871337890625,9.44677734375,273.1871337890625,26.11347734375,273.1871337890625,26.11347734375C273.1871337890625,26.11347734375,277.3538037890625,26.11347734375,277.3538037890625,26.11347734375C277.3538037890625,26.11347734375,277.3538037890625,9.44677734375,277.3538037890625,9.44677734375C277.3538037890625,9.44677734375,277.3538037890625,9.44677734375,277.3538037890625,9.44677734375Z" fill="#FFFFFF" fill-opacity="0.4000000059604645"/></g><g transform="matrix(-0.4999999701976776,0.866025447845459,-0.866025447845459,-0.4999999701976776,1010.0858797229776,154.8852093736641)"><path d="M464.4980908984375,369.029296875C464.4980908984375,369.029296875,460.3314208984375,369.029296875,460.3314208984375,369.029296875C460.3314208984375,369.029296875,460.3314208984375,385.695996875,460.3314208984375,385.695996875C460.3314208984375,385.695996875,464.4980908984375,385.695996875,464.4980908984375,385.695996875C464.4980908984375,385.695996875,464.4980908984375,369.029296875,464.4980908984375,369.029296875C464.4980908984375,369.029296875,464.4980908984375,369.029296875,464.4980908984375,369.029296875Z" fill="#FFFFFF" fill-opacity="0.4000000059604645"/></g></g><g><g><rect x="245.83317756652832" y="8.333251953125" width="8.333333015441895" height="25" rx="0" fill="#FFFFFF" fill-opacity="1"/></g><g><rect x="245.83317756652832" y="466.666748046875" width="8.333333015441895" height="25" rx="0" fill="#FFFFFF" fill-opacity="1"/></g><g transform="matrix(0.8660253882408142,0.5,-0.5,0.8660253882408142,68.51229771904048,-178.43695959656907)"><rect x="367.2240467071533" y="38.627197265625" width="8.333333015441895" height="25" rx="0" fill="#FFFFFF" fill-opacity="1"/></g><g transform="matrix(0.8660253882408142,0.5,-0.5,0.8660253882408142,236.2739156581157,-10.67540311680932)"><rect x="138.05754280090332" y="435.555419921875" width="8.333333015441895" height="25" rx="0" fill="#FFFFFF" fill-opacity="1"/></g><g transform="matrix(0.4999999701976776,0.8660253882408142,-0.8660253882408142,0.4999999701976776,337.3400557458859,-333.1728974111537)"><rect x="457.2062244415283" y="125.55859375" width="8.333333015441895" height="25" rx="0" fill="#FFFFFF" fill-opacity="1"/></g><g transform="matrix(0.4999999701976776,0.8660253882408142,-0.8660253882408142,0.4999999701976776,337.3390886133398,125.16175952513743)"><rect x="60.27629280090332" y="354.72509765625" width="8.333333015441895" height="25" rx="0" fill="#FFFFFF" fill-opacity="1"/></g><g transform="matrix(0,1,-1,0,737.5006580352783,-245.83268928527832)"><rect x="491.6666736602783" y="245.833984375" width="8.333333015441895" height="25" rx="0" fill="#FFFFFF" fill-opacity="1"/></g><g transform="matrix(0,1,-1,0,279.1647205352783,212.50178337097168)"><rect x="33.33146858215332" y="245.833251953125" width="8.333333015441895" height="25" rx="0" fill="#FFFFFF" fill-opacity="1"/></g><g transform="matrix(-0.5000000596046448,0.8660253882408142,-0.8660253882408142,-0.5000000596046448,1010.0864349510476,151.27900323634833)"><rect x="461.3727283477783" y="367.226318359375" width="8.333333015441895" height="25" rx="0" fill="#FFFFFF" fill-opacity="1"/></g><g transform="matrix(-0.5000000596046448,0.8660253882408142,-0.8660253882408142,-0.5000000596046448,216.22538899424683,151.27696976153686)"><rect x="64.44279670715332" y="138.057373046875" width="8.333333015441895" height="25" rx="0" fill="#FFFFFF" fill-opacity="1"/></g><g transform="matrix(-0.866025447845459,0.4999999403953552,-0.4999999403953552,-0.866025447845459,927.3190862760121,665.941166632164)"><rect x="374.4403553009033" y="457.207763671875" width="8.333333015441895" height="25" rx="0" fill="#FFFFFF" fill-opacity="1"/></g><g transform="matrix(-0.866025447845459,0.4999999403953552,-0.4999999403953552,-0.866025447845459,301.22337189113296,39.842140327698075)"><rect x="145.27385139465332" y="60.27734375" width="8.333333015441895" height="25" rx="0" fill="#FFFFFF" fill-opacity="1"/></g></g></g></svg>