<svg xmlns="http://www.w3.org/2000/svg" xmlns:xlink="http://www.w3.org/1999/xlink" fill="none" version="1.1" width="500" height="500" viewBox="0 0 500 500"><g><g><g><path d="M252.083418046875,8.333251953125C252.083418046875,8.333251953125,247.916748046875,8.333251953125,247.916748046875,8.333251953125C247.916748046875,8.333251953125,247.916748046875,24.999951953125,247.916748046875,24.999951953125C247.916748046875,24.999951953125,252.083418046875,24.999951953125,252.083418046875,24.999951953125C252.083418046875,24.999951953125,252.083418046875,8.333251953125,252.083418046875,8.333251953125C252.083418046875,8.333251953125,252.083418046875,8.333251953125,252.083418046875,8.333251953125Z" fill="#000000" fill-opacity="0.30000001192092896"/></g><g transform="matrix(0.9945219159126282,-0.10452846437692642,0.10452846437692642,0.9945219159126282,0.18724897357606096,23.328870174134863)"><path d="M226.830976640625,9.8779296875C226.830976640625,9.8779296875,222.664306640625,9.8779296875,222.664306640625,9.8779296875C222.664306640625,9.8779296875,222.664306640625,26.5446296875,222.664306640625,26.5446296875C222.664306640625,26.5446296875,226.830976640625,26.5446296875,226.830976640625,26.5446296875C226.830976640625,26.5446296875,226.830976640625,9.8779296875,226.830976640625,9.8779296875C226.830976640625,9.8779296875,226.830976640625,9.8779296875,226.830976640625,9.8779296875Z" fill="#000000" fill-opacity="0.30000001192092896"/></g><g transform="matrix(0.9781476259231567,-0.2079116851091385,0.2079116851091385,0.9781476259231567,1.4011804353176558,41.4158591253763)"><path d="M201.890058671875,14.042236328125C201.890058671875,14.042236328125,197.723388671875,14.042236328125,197.723388671875,14.042236328125C197.723388671875,14.042236328125,197.723388671875,30.708936328125,197.723388671875,30.708936328125C197.723388671875,30.708936328125,201.890058671875,30.708936328125,201.890058671875,30.708936328125C201.890058671875,30.708936328125,201.890058671875,14.042236328125,201.890058671875,14.042236328125C201.890058671875,14.042236328125,201.890058671875,14.042236328125,201.890058671875,14.042236328125Z" fill="#000000" fill-opacity="0.30000001192092896"/></g><g transform="matrix(0.9510565400123596,-0.30901700258255005,0.30901700258255005,0.9510565400123596,2.0566894732473884,54.57773939444451)"><path d="M177.490156328125,20.796142578125C177.490156328125,20.796142578125,173.323486328125,20.796142578125,173.323486328125,20.796142578125C173.323486328125,20.796142578125,173.323486328125,37.462842578125,173.323486328125,37.462842578125C173.323486328125,37.462842578125,177.490156328125,37.462842578125,177.490156328125,37.462842578125C177.490156328125,37.462842578125,177.490156328125,20.796142578125,177.490156328125,20.796142578125C177.490156328125,20.796142578125,177.490156328125,20.796142578125,177.490156328125,20.796142578125Z" fill="#000000" fill-opacity="0.30000001192092896"/></g><g transform="matrix(0.9135454297065735,-0.4067366421222687,0.4067366421222687,0.9135454297065735,0.7211085216840729,63.53315473621478)"><path d="M153.977216875,30.0703125C153.977216875,30.0703125,149.810546875,30.0703125,149.810546875,30.0703125C149.810546875,30.0703125,149.810546875,46.7370125,149.810546875,46.7370125C149.810546875,46.7370125,153.977216875,46.7370125,153.977216875,46.7370125C153.977216875,46.7370125,153.977216875,30.0703125,153.977216875,30.0703125C153.977216875,30.0703125,153.977216875,30.0703125,153.977216875,30.0703125Z" fill="#000000" fill-opacity="0.30000001192092896"/></g><g transform="matrix(0.8660253882408142,-0.5,0.5,0.8660253882408142,-3.8153602472448256,69.27112887562544)"><path d="M131.52067390625,41.755126953125C131.52067390625,41.755126953125,127.35400390625,41.755126953125,127.35400390625,41.755126953125C127.35400390625,41.755126953125,127.35400390625,58.421826953125,127.35400390625,58.421826953125C127.35400390625,58.421826953125,131.52067390625,58.421826953125,131.52067390625,58.421826953125C131.52067390625,58.421826953125,131.52067390625,41.755126953125,131.52067390625,41.755126953125C131.52067390625,41.755126953125,131.52067390625,41.755126953125,131.52067390625,41.755126953125Z" fill="#000000" fill-opacity="0.30000001192092896"/></g><g transform="matrix(0.80901700258255,-0.5877852439880371,0.5877852439880371,0.80901700258255,-12.441941234341357,73.10266174508433)"><path d="M110.4391309375,55.697509765625C110.4391309375,55.697509765625,106.2724609375,55.697509765625,106.2724609375,55.697509765625C106.2724609375,55.697509765625,106.2724609375,72.36420976562499,106.2724609375,72.36420976562499C106.2724609375,72.36420976562499,110.4391309375,72.36420976562499,110.4391309375,72.36420976562499C110.4391309375,72.36420976562499,110.4391309375,55.697509765625,110.4391309375,55.697509765625C110.4391309375,55.697509765625,110.4391309375,55.697509765625,110.4391309375,55.697509765625Z" fill="#000000" fill-opacity="0.30000001192092896"/></g><g transform="matrix(0.7431448101997375,-0.6691306233406067,0.6691306233406067,0.7431448101997375,-25.758573862054618,76.4923263284436)"><path d="M90.92204109375,71.7978515625C90.92204109375,71.7978515625,86.75537109375,71.7978515625,86.75537109375,71.7978515625C86.75537109375,71.7978515625,86.75537109375,88.46455156249999,86.75537109375,88.46455156249999C86.75537109375,88.46455156249999,90.92204109375,88.46455156249999,90.92204109375,88.46455156249999C90.92204109375,88.46455156249999,90.92204109375,71.7978515625,90.92204109375,71.7978515625C90.92204109375,71.7978515625,90.92204109375,71.7978515625,90.92204109375,71.7978515625Z" fill="#000000" fill-opacity="0.30000001192092896"/></g><g transform="matrix(0.6691306233406067,-0.7431448101997375,0.7431448101997375,0.6691306233406067,-43.9292036392726,81.00770655364613)"><path d="M73.175214921875,89.837158203125C73.175214921875,89.837158203125,69.008544921875,89.837158203125,69.008544921875,89.837158203125C69.008544921875,89.837158203125,69.008544921875,106.50385820312499,69.008544921875,106.50385820312499C69.008544921875,106.50385820312499,73.175214921875,106.50385820312499,73.175214921875,106.50385820312499C73.175214921875,106.50385820312499,73.175214921875,89.837158203125,73.175214921875,89.837158203125C73.175214921875,89.837158203125,73.175214921875,89.837158203125,73.175214921875,89.837158203125Z" fill="#000000" fill-opacity="0.30000001192092896"/></g><g transform="matrix(0.5877852439880371,-0.80901700258255,0.80901700258255,0.5877852439880371,-66.74486454142607,88.28610334565747)"><path d="M57.429853593749996,109.64013671875C57.429853593749996,109.64013671875,53.26318359375,109.64013671875,53.26318359375,109.64013671875C53.26318359375,109.64013671875,53.26318359375,126.30683671874999,53.26318359375,126.30683671874999C53.26318359375,126.30683671874999,57.429853593749996,126.30683671874999,57.429853593749996,126.30683671874999C57.429853593749996,126.30683671874999,57.429853593749996,109.64013671875,57.429853593749996,109.64013671875C57.429853593749996,109.64013671875,57.429853593749996,109.64013671875,57.429853593749996,109.64013671875Z" fill="#000000" fill-opacity="0.30000001192092896"/></g><g transform="matrix(0.5,-0.8660253882408142,0.8660253882408142,0.5,-93.58974538334587,99.8279775675328)"><path d="M43.825361406249996,130.965087890625C43.825361406249996,130.965087890625,39.65869140625,130.965087890625,39.65869140625,130.965087890625C39.65869140625,130.965087890625,39.65869140625,147.631787890625,39.65869140625,147.631787890625C39.65869140625,147.631787890625,43.825361406249996,147.631787890625,43.825361406249996,147.631787890625C43.825361406249996,147.631787890625,43.825361406249996,130.965087890625,43.825361406249996,130.965087890625C43.825361406249996,130.965087890625,43.825361406249996,130.965087890625,43.825361406249996,130.965087890625Z" fill="#000000" fill-opacity="0.30000001192092896"/></g><g transform="matrix(0.4067366421222687,-0.9135454297065735,0.9135454297065735,0.4067366421222687,-123.49847756393865,117.06583042466809)"><path d="M32.550214921874996,153.618408203125C32.550214921874996,153.618408203125,28.383544921875,153.618408203125,28.383544921875,153.618408203125C28.383544921875,153.618408203125,28.383544921875,170.285108203125,28.383544921875,170.285108203125C28.383544921875,170.285108203125,32.550214921874996,170.285108203125,32.550214921874996,170.285108203125C32.550214921874996,170.285108203125,32.550214921874996,153.618408203125,32.550214921874996,153.618408203125C32.550214921874996,153.618408203125,32.550214921874996,153.618408203125,32.550214921874996,153.618408203125Z" fill="#000000" fill-opacity="0.30000001192092896"/></g><g transform="matrix(0.30901700258255005,-0.9510565400123596,0.9510565400123596,0.30901700258255005,-155.1599646154791,141.07540056330618)"><path d="M23.6735059375,177.3173828125C23.6735059375,177.3173828125,19.5068359375,177.3173828125,19.5068359375,177.3173828125C19.5068359375,177.3173828125,19.5068359375,193.9840828125,19.5068359375,193.9840828125C19.5068359375,193.9840828125,23.6735059375,193.9840828125,23.6735059375,193.9840828125C23.6735059375,193.9840828125,23.6735059375,177.3173828125,23.6735059375,177.3173828125C23.6735059375,177.3173828125,23.6735059375,177.3173828125,23.6735059375,177.3173828125Z" fill="#000000" fill-opacity="0.30000001192092896"/></g><g transform="matrix(0.2079116851091385,-0.9781476259231567,0.9781476259231567,0.2079116851091385,-186.93382515916164,172.75068508178083)"><path d="M17.36442390625,201.79736328125C17.36442390625,201.79736328125,13.19775390625,201.79736328125,13.19775390625,201.79736328125C13.19775390625,201.79736328125,13.19775390625,218.46406328125,13.19775390625,218.46406328125C13.19775390625,218.46406328125,17.36442390625,218.46406328125,17.36442390625,218.46406328125C17.36442390625,218.46406328125,17.36442390625,201.79736328125,17.36442390625,201.79736328125C17.36442390625,201.79736328125,17.36442390625,201.79736328125,17.36442390625,201.79736328125Z" fill="#000000" fill-opacity="0.30000001192092896"/></g><g transform="matrix(0.10452846437692642,-0.9945219159126282,0.9945219159126282,0.10452846437692642,-217.12331839557737,212.46218123830295)"><path d="M13.586591875,226.801025390625C13.586591875,226.801025390625,9.419921875,226.801025390625,9.419921875,226.801025390625C9.419921875,226.801025390625,9.419921875,243.467725390625,9.419921875,243.467725390625C9.419921875,243.467725390625,13.586591875,243.467725390625,13.586591875,243.467725390625C13.586591875,243.467725390625,13.586591875,226.801025390625,13.586591875,226.801025390625C13.586591875,226.801025390625,13.586591875,226.801025390625,13.586591875,226.801025390625Z" fill="#000000" fill-opacity="0.30000001192092896"/></g><g transform="matrix(0,-1,1,0,-243.75,260.41650390625)"><path d="M12.499921953125,252.083251953125C12.499921953125,252.083251953125,8.333251953125,252.083251953125,8.333251953125,252.083251953125C8.333251953125,252.083251953125,8.333251953125,268.749951953125,8.333251953125,268.749951953125C8.333251953125,268.749951953125,12.499921953125,268.749951953125,12.499921953125,268.749951953125C12.499921953125,268.749951953125,12.499921953125,252.083251953125,12.499921953125,252.083251953125C12.499921953125,252.083251953125,12.499921953125,252.083251953125,12.499921953125,252.083251953125Z" fill="#000000" fill-opacity="0.30000001192092896"/></g><g transform="matrix(-0.10452846437692642,-0.9945219159126282,0.9945219159126282,-0.10452846437692642,-264.9151100146755,316.131478552772)"><path d="M14.032148515625,277.3310546875C14.032148515625,277.3310546875,9.865478515625,277.3310546875,9.865478515625,277.3310546875C9.865478515625,277.3310546875,9.865478515625,293.9977546875,9.865478515625,293.9977546875C9.865478515625,293.9977546875,14.032148515625,293.9977546875,14.032148515625,293.9977546875C14.032148515625,293.9977546875,14.032148515625,277.3310546875,14.032148515625,277.3310546875C14.032148515625,277.3310546875,14.032148515625,277.3310546875,14.032148515625,277.3310546875Z" fill="#000000" fill-opacity="0.30000001192092896"/></g><g transform="matrix(-0.2079116851091385,-0.9781476259231567,0.9781476259231567,-0.2079116851091385,-278.7115769651791,378.88145668503057)"><path d="M18.21696296875,302.288818359375C18.21696296875,302.288818359375,14.05029296875,302.288818359375,14.05029296875,302.288818359375C14.05029296875,302.288818359375,14.05029296875,318.955518359375,14.05029296875,318.955518359375C14.05029296875,318.955518359375,18.21696296875,318.955518359375,18.21696296875,318.955518359375C18.21696296875,318.955518359375,18.21696296875,302.288818359375,18.21696296875,302.288818359375C18.21696296875,302.288818359375,18.21696296875,302.288818359375,18.21696296875,302.288818359375Z" fill="#000000" fill-opacity="0.30000001192092896"/></g><g transform="matrix(-0.3102172315120697,-0.9506657123565674,0.9506657123565674,-0.3102172315120697,-282.1332422885971,441.65439408835664)"><path d="M23.324638671875,323.18212890625C23.324638671875,323.18212890625,19.160888671875,323.18212890625,19.160888671875,323.18212890625C19.160888671875,323.18212890625,19.160888671875,339.83712890625,19.160888671875,339.83712890625C19.160888671875,339.83712890625,23.324638671875,339.83712890625,23.324638671875,339.83712890625C23.324638671875,339.83712890625,23.324638671875,323.18212890625,23.324638671875,323.18212890625C23.324638671875,323.18212890625,23.324638671875,323.18212890625,23.324638671875,323.18212890625Z" fill="#000000" fill-opacity="0.30000001192092896"/></g><g transform="matrix(-0.4067366421222687,-0.9135454297065735,0.9135454297065735,-0.4067366421222687,-277.60855411242665,520.1309988886787)"><path d="M34.250898515624996,350.2060546875C34.250898515624996,350.2060546875,30.084228515625,350.2060546875,30.084228515625,350.2060546875C30.084228515625,350.2060546875,30.084228515625,366.8727546875,30.084228515625,366.8727546875C30.084228515625,366.8727546875,34.250898515624996,366.8727546875,34.250898515624996,366.8727546875C34.250898515624996,366.8727546875,34.250898515624996,350.2060546875,34.250898515624996,350.2060546875C34.250898515624996,350.2060546875,34.250898515624996,350.2060546875,34.250898515624996,350.2060546875Z" fill="#000000" fill-opacity="0.30000001192092896"/></g><g transform="matrix(-0.5,-0.8660253882408142,0.8660253882408142,-0.5,-260.0803344902233,595.10621675312)"><path d="M45.918867265624996,372.6318359375C45.918867265624996,372.6318359375,41.752197265625,372.6318359375,41.752197265625,372.6318359375C41.752197265625,372.6318359375,41.752197265625,389.2985359375,41.752197265625,389.2985359375C41.752197265625,389.2985359375,45.918867265624996,389.2985359375,45.918867265624996,389.2985359375C45.918867265624996,389.2985359375,45.918867265624996,372.6318359375,45.918867265624996,372.6318359375C45.918867265624996,372.6318359375,45.918867265624996,372.6318359375,45.918867265624996,372.6318359375Z" fill="#000000" fill-opacity="0.30000001192092896"/></g><g transform="matrix(-0.5877852439880371,-0.80901700258255,0.80901700258255,-0.5877852439880371,-230.07617721019778,670.2429877088871)"><path d="M59.881513749999996,393.736328125C59.881513749999996,393.736328125,55.71484375,393.736328125,55.71484375,393.736328125C55.71484375,393.736328125,55.71484375,410.403028125,55.71484375,410.403028125C55.71484375,410.403028125,59.881513749999996,410.403028125,59.881513749999996,410.403028125C59.881513749999996,410.403028125,59.881513749999996,393.736328125,59.881513749999996,393.736328125C59.881513749999996,393.736328125,59.881513749999996,393.736328125,59.881513749999996,393.736328125Z" fill="#000000" fill-opacity="0.30000001192092896"/></g><g transform="matrix(-0.6691306233406067,-0.7431448101997375,0.7431448101997375,-0.6691306233406067,-187.2675029914244,743.1309509091661)"><path d="M75.9645215625,413.25390625C75.9645215625,413.25390625,71.7978515625,413.25390625,71.7978515625,413.25390625C71.7978515625,413.25390625,71.7978515625,429.92060625,71.7978515625,429.92060625C71.7978515625,429.92060625,75.9645215625,429.92060625,75.9645215625,429.92060625C75.9645215625,429.92060625,75.9645215625,413.25390625,75.9645215625,413.25390625C75.9645215625,413.25390625,75.9645215625,413.25390625,75.9645215625,413.25390625Z" fill="#000000" fill-opacity="0.30000001192092896"/></g><g transform="matrix(-0.7431448101997375,-0.6691306233406067,0.6691306233406067,-0.7431448101997375,-131.80710108063067,811.3859262038022)"><path d="M93.994062578125,430.990966796875C93.994062578125,430.990966796875,89.827392578125,430.990966796875,89.827392578125,430.990966796875C89.827392578125,430.990966796875,89.827392578125,447.657666796875,89.827392578125,447.657666796875C89.827392578125,447.657666796875,93.994062578125,447.657666796875,93.994062578125,447.657666796875C93.994062578125,447.657666796875,93.994062578125,430.990966796875,93.994062578125,430.990966796875C93.994062578125,430.990966796875,93.994062578125,430.990966796875,93.994062578125,430.990966796875Z" fill="#000000" fill-opacity="0.30000001192092896"/></g><g transform="matrix(-0.80901700258255,-0.5877852439880371,0.5877852439880371,-0.80901700258255,-64.26291974421474,872.6021347711212)"><path d="M113.79801765625,446.7412109375C113.79801765625,446.7412109375,109.63134765625,446.7412109375,109.63134765625,446.7412109375C109.63134765625,446.7412109375,109.63134765625,463.4079109375,109.63134765625,463.4079109375C109.63134765625,463.4079109375,113.79801765625,463.4079109375,113.79801765625,463.4079109375C113.79801765625,463.4079109375,113.79801765625,446.7412109375,113.79801765625,446.7412109375C113.79801765625,446.7412109375,113.79801765625,446.7412109375,113.79801765625,446.7412109375Z" fill="#000000" fill-opacity="0.30000001192092896"/></g><g transform="matrix(-0.8660253882408142,-0.5,0.5,-0.8660253882408142,14.228105351998238,924.467676166707)"><path d="M135.13590828125,460.32763671875C135.13590828125,460.32763671875,130.96923828125,460.32763671875,130.96923828125,460.32763671875C130.96923828125,460.32763671875,130.96923828125,476.99433671875,130.96923828125,476.99433671875C130.96923828125,476.99433671875,135.13590828125,476.99433671875,135.13590828125,476.99433671875C135.13590828125,476.99433671875,135.13590828125,460.32763671875,135.13590828125,460.32763671875C135.13590828125,460.32763671875,135.13590828125,460.32763671875,135.13590828125,460.32763671875Z" fill="#000000" fill-opacity="0.30000001192092896"/></g><g transform="matrix(-0.9135454297065735,-0.4067366421222687,0.4067366421222687,-0.9135454297065735,102.09556402933231,964.9505812652933)"><path d="M157.76774421875,471.624755859375C157.76774421875,471.624755859375,153.60107421875,471.624755859375,153.60107421875,471.624755859375C153.60107421875,471.624755859375,153.60107421875,488.291455859375,153.60107421875,488.291455859375C153.60107421875,488.291455859375,157.76774421875,488.291455859375,157.76774421875,488.291455859375C157.76774421875,488.291455859375,157.76774421875,471.624755859375,157.76774421875,471.624755859375C157.76774421875,471.624755859375,157.76774421875,471.624755859375,157.76774421875,471.624755859375Z" fill="#000000" fill-opacity="0.30000001192092896"/></g><g transform="matrix(-0.9506657123565674,-0.3102172315120697,0.3102172315120697,-0.9506657123565674,198.97761149572761,999.8385326375865)"><path d="M183.15544921875,484.097412109375C183.15544921875,484.097412109375,178.99169921875,484.097412109375,178.99169921875,484.097412109375C178.99169921875,484.097412109375,178.99169921875,500.752412109375,178.99169921875,500.752412109375C178.99169921875,500.752412109375,183.15544921875,500.752412109375,183.15544921875,500.752412109375C183.15544921875,500.752412109375,183.15544921875,484.097412109375,183.15544921875,484.097412109375C183.15544921875,484.097412109375,183.15544921875,484.097412109375,183.15544921875,484.097412109375Z" fill="#000000" fill-opacity="0.30000001192092896"/></g><g transform="matrix(-0.9781476259231567,-0.2079116851091385,0.2079116851091385,-0.9781476259231567,297.9317042556286,1004.9867457845794)"><path d="M205.946699296875,486.83642578125C205.946699296875,486.83642578125,201.780029296875,486.83642578125,201.780029296875,486.83642578125C201.780029296875,486.83642578125,201.780029296875,503.50312578125,201.780029296875,503.50312578125C201.780029296875,503.50312578125,205.946699296875,503.50312578125,205.946699296875,503.50312578125C205.946699296875,503.50312578125,205.946699296875,486.83642578125,205.946699296875,486.83642578125C205.946699296875,486.83642578125,205.946699296875,486.83642578125,205.946699296875,486.83642578125Z" fill="#000000" fill-opacity="0.30000001192092896"/></g><g transform="matrix(-0.9945219159126282,-0.10452846437692642,0.10452846437692642,-0.9945219159126282,401.13870950496494,1002.1224084385594)"><path d="M230.995527421875,490.5498046875C230.995527421875,490.5498046875,226.828857421875,490.5498046875,226.828857421875,490.5498046875C226.828857421875,490.5498046875,226.828857421875,507.2165046875,226.828857421875,507.2165046875C226.828857421875,507.2165046875,230.995527421875,507.2165046875,230.995527421875,507.2165046875C230.995527421875,507.2165046875,230.995527421875,490.5498046875,230.995527421875,490.5498046875C230.995527421875,490.5498046875,230.995527421875,490.5498046875,230.995527421875,490.5498046875Z" fill="#000000" fill-opacity="0.30000001192092896"/></g><g transform="matrix(-1,-1.2246468525851679e-16,1.2246468525851679e-16,-1,504.16650390624994,983.33349609375)"><path d="M256.249921953125,491.666748046875C256.249921953125,491.666748046875,252.083251953125,491.666748046875,252.083251953125,491.666748046875C252.083251953125,491.666748046875,252.083251953125,508.333448046875,252.083251953125,508.333448046875C252.083251953125,508.333448046875,256.249921953125,508.333448046875,256.249921953125,508.333448046875C256.249921953125,508.333448046875,256.249921953125,491.666748046875,256.249921953125,491.666748046875C256.249921953125,491.666748046875,256.249921953125,491.666748046875,256.249921953125,491.666748046875Z" fill="#000000" fill-opacity="0.30000001192092896"/></g><g transform="matrix(-0.9945219159126282,0.10452846437692642,-0.10452846437692642,-0.9945219159126282,604.3508178060165,948.5641422257686)"><path d="M281.4860059375,490.118408203125C281.4860059375,490.118408203125,277.3193359375,490.118408203125,277.3193359375,490.118408203125C277.3193359375,490.118408203125,277.3193359375,506.785108203125,277.3193359375,506.785108203125C277.3193359375,506.785108203125,281.4860059375,506.785108203125,281.4860059375,506.785108203125C281.4860059375,506.785108203125,281.4860059375,490.118408203125,281.4860059375,490.118408203125C281.4860059375,490.118408203125,281.4860059375,490.118408203125,281.4860059375,490.118408203125Z" fill="#000000" fill-opacity="0.30000001192092896"/></g><g transform="matrix(-0.9781476259231567,0.2079116851091385,-0.2079116851091385,-0.9781476259231567,699.0005802978158,898.4485969391135)"><path d="M306.451582109375,485.958251953125C306.451582109375,485.958251953125,302.284912109375,485.958251953125,302.284912109375,485.958251953125C302.284912109375,485.958251953125,302.284912109375,502.624951953125,302.284912109375,502.624951953125C302.284912109375,502.624951953125,306.451582109375,502.624951953125,306.451582109375,502.624951953125C306.451582109375,502.624951953125,306.451582109375,485.958251953125,306.451582109375,485.958251953125C306.451582109375,485.958251953125,306.451582109375,485.958251953125,306.451582109375,485.958251953125Z" fill="#000000" fill-opacity="0.30000001192092896"/></g><g transform="matrix(-0.9510565400123596,0.30901700258255005,-0.30901700258255005,-0.9510565400123596,785.4207854161941,833.9970868292294)"><path d="M330.830976640625,479.19775390625C330.830976640625,479.19775390625,326.664306640625,479.19775390625,326.664306640625,479.19775390625C326.664306640625,479.19775390625,326.664306640625,495.86445390625,326.664306640625,495.86445390625C326.664306640625,495.86445390625,330.830976640625,495.86445390625,330.830976640625,495.86445390625C330.830976640625,495.86445390625,330.830976640625,479.19775390625,330.830976640625,479.19775390625C330.830976640625,479.19775390625,330.830976640625,479.19775390625,330.830976640625,479.19775390625Z" fill="#000000" fill-opacity="0.30000001192092896"/></g><g transform="matrix(-0.9135454297065735,0.4067366421222687,-0.4067366421222687,-0.9135454297065735,861.2238058814619,756.7961944936033)"><path d="M354.347578203125,469.927490234375C354.347578203125,469.927490234375,350.180908203125,469.927490234375,350.180908203125,469.927490234375C350.180908203125,469.927490234375,350.180908203125,486.594190234375,350.180908203125,486.594190234375C350.180908203125,486.594190234375,354.347578203125,486.594190234375,354.347578203125,486.594190234375C354.347578203125,486.594190234375,354.347578203125,469.927490234375,354.347578203125,469.927490234375C354.347578203125,469.927490234375,354.347578203125,469.927490234375,354.347578203125,469.927490234375Z" fill="#000000" fill-opacity="0.30000001192092896"/></g><g transform="matrix(-0.8660253882408142,0.5,-0.5,-0.8660253882408142,924.4890819200373,668.7726579445734)"><path d="M376.81266609375,458.244384765625C376.81266609375,458.244384765625,372.64599609375,458.244384765625,372.64599609375,458.244384765625C372.64599609375,458.244384765625,372.64599609375,474.911084765625,372.64599609375,474.911084765625C372.64599609375,474.911084765625,376.81266609375,474.911084765625,376.81266609375,474.911084765625C376.81266609375,474.911084765625,376.81266609375,458.244384765625,376.81266609375,458.244384765625C376.81266609375,458.244384765625,376.81266609375,458.244384765625,376.81266609375,458.244384765625Z" fill="#000000" fill-opacity="0.30000001192092896"/></g><g transform="matrix(-0.80901700258255,0.5877852439880371,-0.5877852439880371,-0.80901700258255,973.4214959933379,572.2699009202479)"><path d="M397.9065381640625,444.27685546875C397.9065381640625,444.27685546875,393.7398681640625,444.27685546875,393.7398681640625,444.27685546875C393.7398681640625,444.27685546875,393.7398681640625,460.94355546875,393.7398681640625,460.94355546875C393.7398681640625,460.94355546875,397.9065381640625,460.94355546875,397.9065381640625,460.94355546875C397.9065381640625,460.94355546875,397.9065381640625,444.27685546875,397.9065381640625,444.27685546875C397.9065381640625,444.27685546875,397.9065381640625,444.27685546875,397.9065381640625,444.27685546875Z" fill="#000000" fill-opacity="0.30000001192092896"/></g><g transform="matrix(-0.7431448101997375,0.6691306233406067,-0.6691306233406067,-0.7431448101997375,1006.9153400994765,469.86763188677287)"><path d="M417.4416944140625,428.193115234375C417.4416944140625,428.193115234375,413.2750244140625,428.193115234375,413.2750244140625,428.193115234375C413.2750244140625,428.193115234375,413.2750244140625,444.859815234375,413.2750244140625,444.859815234375C413.2750244140625,444.859815234375,417.4416944140625,444.859815234375,417.4416944140625,444.859815234375C417.4416944140625,444.859815234375,417.4416944140625,428.193115234375,417.4416944140625,428.193115234375C417.4416944140625,428.193115234375,417.4416944140625,428.193115234375,417.4416944140625,428.193115234375Z" fill="#000000" fill-opacity="0.30000001192092896"/></g><g transform="matrix(-0.6691306233406067,0.7431448101997375,-0.7431448101997375,-0.6691306233406067,1024.197317693899,364.30169970269344)"><path d="M435.1665479296875,410.15185546875C435.1665479296875,410.15185546875,430.9998779296875,410.15185546875,430.9998779296875,410.15185546875C430.9998779296875,410.15185546875,430.9998779296875,426.81855546875,430.9998779296875,426.81855546875C430.9998779296875,426.81855546875,435.1665479296875,426.81855546875,435.1665479296875,426.81855546875C435.1665479296875,426.81855546875,435.1665479296875,410.15185546875,435.1665479296875,410.15185546875C435.1665479296875,410.15185546875,435.1665479296875,410.15185546875,435.1665479296875,410.15185546875Z" fill="#000000" fill-opacity="0.30000001192092896"/></g><g transform="matrix(-0.5877852439880371,0.80901700258255,-0.80901700258255,-0.5877852439880371,1025.1565263282391,258.38712170409417)"><path d="M450.9175244921875,390.365234375C450.9175244921875,390.365234375,446.7508544921875,390.365234375,446.7508544921875,390.365234375C446.7508544921875,390.365234375,446.7508544921875,407.031934375,446.7508544921875,407.031934375C446.7508544921875,407.031934375,450.9175244921875,407.031934375,450.9175244921875,407.031934375C450.9175244921875,407.031934375,450.9175244921875,390.365234375,450.9175244921875,390.365234375C450.9175244921875,390.365234375,450.9175244921875,390.365234375,450.9175244921875,390.365234375Z" fill="#000000" fill-opacity="0.30000001192092896"/></g><g transform="matrix(-0.4067366421222687,0.9135454297065735,-0.9135454297065735,-0.4067366421222687,979.8848440544753,56.41950823703519)"><path d="M475.789472734375,346.382080078125C475.789472734375,346.382080078125,471.622802734375,346.382080078125,471.622802734375,346.382080078125C471.622802734375,346.382080078125,471.622802734375,363.048780078125,471.622802734375,363.048780078125C471.622802734375,363.048780078125,475.789472734375,363.048780078125,475.789472734375,363.048780078125C475.789472734375,363.048780078125,475.789472734375,346.382080078125,475.789472734375,346.382080078125C475.789472734375,346.382080078125,475.789472734375,346.382080078125,475.789472734375,346.382080078125Z" fill="#000000" fill-opacity="0.30000001192092896"/></g><g transform="matrix(-0.30901700258255005,0.9510565400123596,-0.9510565400123596,-0.30901700258255005,935.8557492493419,-34.561072542041074)"><path d="M484.64958015625,322.68896484375C484.64958015625,322.68896484375,480.48291015625,322.68896484375,480.48291015625,322.68896484375C480.48291015625,322.68896484375,480.48291015625,339.35566484375,480.48291015625,339.35566484375C480.48291015625,339.35566484375,484.64958015625,339.35566484375,484.64958015625,339.35566484375C484.64958015625,339.35566484375,484.64958015625,322.68896484375,484.64958015625,322.68896484375C484.64958015625,322.68896484375,484.64958015625,322.68896484375,484.64958015625,322.68896484375Z" fill="#000000" fill-opacity="0.30000001192092896"/></g><g transform="matrix(-0.2079116851091385,0.9781476259231567,-0.9781476259231567,-0.2079116851091385,879.7119358462041,-115.97239271683793)"><path d="M490.978925859375,298.2021484375C490.978925859375,298.2021484375,486.812255859375,298.2021484375,486.812255859375,298.2021484375C486.812255859375,298.2021484375,486.812255859375,314.8688484375,486.812255859375,314.8688484375C486.812255859375,314.8688484375,490.978925859375,314.8688484375,490.978925859375,314.8688484375C490.978925859375,314.8688484375,490.978925859375,298.2021484375,490.978925859375,298.2021484375C490.978925859375,298.2021484375,490.978925859375,298.2021484375,490.978925859375,298.2021484375Z" fill="#000000" fill-opacity="0.30000001192092896"/></g><g transform="matrix(-0.10452846437692642,0.9945219159126282,-0.9945219159126282,-0.10452846437692642,813.5471440598303,-186.11733437622206)"><path d="M494.73063484375,273.201904296875C494.73063484375,273.201904296875,490.56396484375,273.201904296875,490.56396484375,273.201904296875C490.56396484375,273.201904296875,490.56396484375,289.868604296875,490.56396484375,289.868604296875C490.56396484375,289.868604296875,494.73063484375,289.868604296875,494.73063484375,289.868604296875C494.73063484375,289.868604296875,494.73063484375,273.201904296875,494.73063484375,273.201904296875C494.73063484375,273.201904296875,494.73063484375,273.201904296875,494.73063484375,273.201904296875Z" fill="#000000" fill-opacity="0.30000001192092896"/></g><g transform="matrix(0,1,-1,0,739.58349609375,-243.75)"><path d="M495.833418046875,247.916748046875C495.833418046875,247.916748046875,491.666748046875,247.916748046875,491.666748046875,247.916748046875C491.666748046875,247.916748046875,491.666748046875,264.583448046875,491.666748046875,264.583448046875C491.666748046875,264.583448046875,495.833418046875,264.583448046875,495.833418046875,264.583448046875C495.833418046875,264.583448046875,495.833418046875,247.916748046875,495.833418046875,247.916748046875C495.833418046875,247.916748046875,495.833418046875,247.916748046875,495.833418046875,247.916748046875Z" fill="#000000" fill-opacity="0.30000001192092896"/></g><g transform="matrix(0.10452846437692642,0.9945219159126282,-0.9945219159126282,0.10452846437692642,660.3487017527359,-288.0468115948279)"><path d="M494.2952100390625,222.67236328125C494.2952100390625,222.67236328125,490.1285400390625,222.67236328125,490.1285400390625,222.67236328125C490.1285400390625,222.67236328125,490.1285400390625,239.33906328125,490.1285400390625,239.33906328125C490.1285400390625,239.33906328125,494.2952100390625,239.33906328125,494.2952100390625,239.33906328125C494.2952100390625,239.33906328125,494.2952100390625,222.67236328125,494.2952100390625,222.67236328125C494.2952100390625,222.67236328125,494.2952100390625,222.67236328125,494.2952100390625,222.67236328125Z" fill="#000000" fill-opacity="0.30000001192092896"/></g><g transform="matrix(0.2079116851091385,0.9781476259231567,-0.9781476259231567,0.2079116851091385,578.298754941352,-318.71810292226655)"><path d="M490.10807625,197.710693359375C490.10807625,197.710693359375,485.94140625,197.710693359375,485.94140625,197.710693359375C485.94140625,197.710693359375,485.94140625,214.377393359375,485.94140625,214.377393359375C485.94140625,214.377393359375,490.10807625,214.377393359375,490.10807625,214.377393359375C490.10807625,214.377393359375,490.10807625,197.710693359375,490.10807625,197.710693359375C490.10807625,197.710693359375,490.10807625,197.710693359375,490.10807625,197.710693359375Z" fill="#000000" fill-opacity="0.30000001192092896"/></g><g transform="matrix(0.30901700258255005,0.9510565400123596,-0.9510565400123596,0.30901700258255005,495.9719884460501,-335.9813631568104)"><path d="M483.371992265625,173.332763671875C483.371992265625,173.332763671875,479.205322265625,173.332763671875,479.205322265625,173.332763671875C479.205322265625,173.332763671875,479.205322265625,189.999463671875,479.205322265625,189.999463671875C479.205322265625,189.999463671875,483.371992265625,189.999463671875,483.371992265625,189.999463671875C483.371992265625,189.999463671875,483.371992265625,173.332763671875,483.371992265625,173.332763671875C483.371992265625,173.332763671875,483.371992265625,173.332763671875,483.371992265625,173.332763671875Z" fill="#000000" fill-opacity="0.30000001192092896"/></g><g transform="matrix(0.4067366421222687,0.9135454297065735,-0.9135454297065735,0.4067366421222687,415.6565690204079,-340.42412072273146)"><path d="M474.098554765625,149.8154296875C474.098554765625,149.8154296875,469.931884765625,149.8154296875,469.931884765625,149.8154296875C469.931884765625,149.8154296875,469.931884765625,166.4821296875,469.931884765625,166.4821296875C469.931884765625,166.4821296875,474.098554765625,166.4821296875,474.098554765625,166.4821296875C474.098554765625,166.4821296875,474.098554765625,149.8154296875,474.098554765625,149.8154296875C474.098554765625,149.8154296875,474.098554765625,149.8154296875,474.098554765625,149.8154296875Z" fill="#000000" fill-opacity="0.30000001192092896"/></g><g transform="matrix(0.5,0.8660253882408142,-0.8660253882408142,0.5,339.4283879628929,-333.16990510166215)"><path d="M462.414472734375,127.36865234375C462.414472734375,127.36865234375,458.247802734375,127.36865234375,458.247802734375,127.36865234375C458.247802734375,127.36865234375,458.247802734375,144.03535234375,458.247802734375,144.03535234375C458.247802734375,144.03535234375,462.414472734375,144.03535234375,462.414472734375,144.03535234375C462.414472734375,144.03535234375,462.414472734375,127.36865234375,462.414472734375,127.36865234375C462.414472734375,127.36865234375,462.414472734375,127.36865234375,462.414472734375,127.36865234375Z" fill="#000000" fill-opacity="0.30000001192092896"/></g><g transform="matrix(0.5877852439880371,0.80901700258255,-0.80901700258255,0.5877852439880371,269.1170884176245,-315.63539765666064)"><path d="M448.459882890625,106.268310546875C448.459882890625,106.268310546875,444.293212890625,106.268310546875,444.293212890625,106.268310546875C444.293212890625,106.268310546875,444.293212890625,122.93501054687499,444.293212890625,122.93501054687499C444.293212890625,122.93501054687499,448.459882890625,122.93501054687499,448.459882890625,122.93501054687499C448.459882890625,122.93501054687499,448.459882890625,106.268310546875,448.459882890625,106.268310546875C448.459882890625,106.268310546875,448.459882890625,106.268310546875,448.459882890625,106.268310546875Z" fill="#000000" fill-opacity="0.30000001192092896"/></g><g transform="matrix(0.6691306233406067,0.7431448101997375,-0.7431448101997375,0.6691306233406067,206.13269432107336,-289.5123877071892)"><path d="M432.360761796875,86.734619140625C432.360761796875,86.734619140625,428.194091796875,86.734619140625,428.194091796875,86.734619140625C428.194091796875,86.734619140625,428.194091796875,103.40131914062499,428.194091796875,103.40131914062499C428.194091796875,103.40131914062499,432.360761796875,103.40131914062499,432.360761796875,103.40131914062499C432.360761796875,103.40131914062499,432.360761796875,86.734619140625,432.360761796875,86.734619140625C432.360761796875,86.734619140625,432.360761796875,86.734619140625,432.360761796875,86.734619140625Z" fill="#000000" fill-opacity="0.30000001192092896"/></g><g transform="matrix(0.7431448101997375,0.6691306233406067,-0.6691306233406067,0.7431448101997375,151.5166472564888,-256.71581226550916)"><path d="M414.30875984375,68.999267578125C414.30875984375,68.999267578125,410.14208984375,68.999267578125,410.14208984375,68.999267578125C410.14208984375,68.999267578125,410.14208984375,85.66596757812499,410.14208984375,85.66596757812499C410.14208984375,85.66596757812499,414.30875984375,85.66596757812499,414.30875984375,85.66596757812499C414.30875984375,85.66596757812499,414.30875984375,68.999267578125,414.30875984375,68.999267578125C414.30875984375,68.999267578125,414.30875984375,68.999267578125,414.30875984375,68.999267578125Z" fill="#000000" fill-opacity="0.30000001192092896"/></g><g transform="matrix(0.80901700258255,0.5877852439880371,-0.5877852439880371,0.80901700258255,105.85344776773127,-219.27512118378945)"><path d="M394.5231153125,53.254150390625C394.5231153125,53.254150390625,390.3564453125,53.254150390625,390.3564453125,53.254150390625C390.3564453125,53.254150390625,390.3564453125,69.92085039062499,390.3564453125,69.92085039062499C390.3564453125,69.92085039062499,394.5231153125,69.92085039062499,394.5231153125,69.92085039062499C394.5231153125,69.92085039062499,394.5231153125,53.254150390625,394.5231153125,53.254150390625C394.5231153125,53.254150390625,394.5231153125,53.254150390625,394.5231153125,53.254150390625Z" fill="#000000" fill-opacity="0.30000001192092896"/></g><g transform="matrix(0.8660253882408142,0.5,-0.5,0.8660253882408142,69.27670688278886,-179.2004178436473)"><path d="M373.1975537890625,39.671875C373.1975537890625,39.671875,369.0308837890625,39.671875,369.0308837890625,39.671875C369.0308837890625,39.671875,369.0308837890625,56.338575,369.0308837890625,56.338575C369.0308837890625,56.338575,373.1975537890625,56.338575,373.1975537890625,56.338575C373.1975537890625,56.338575,373.1975537890625,39.671875,373.1975537890625,39.671875C373.1975537890625,39.671875,373.1975537890625,39.671875,373.1975537890625,39.671875Z" fill="#000000" fill-opacity="0.30000001192092896"/></g><g transform="matrix(0.9135454297065735,0.4067366421222687,-0.4067366421222687,0.9135454297065735,41.49524515980738,-138.43262388301082)"><path d="M350.551435625,28.3935546875C350.551435625,28.3935546875,346.384765625,28.3935546875,346.384765625,28.3935546875C346.384765625,28.3935546875,346.384765625,45.0602546875,346.384765625,45.0602546875C346.384765625,45.0602546875,350.551435625,45.0602546875,350.551435625,45.0602546875C350.551435625,45.0602546875,350.551435625,28.3935546875,350.551435625,28.3935546875C350.551435625,28.3935546875,350.551435625,28.3935546875,350.551435625,28.3935546875Z" fill="#000000" fill-opacity="0.30000001192092896"/></g><g transform="matrix(0.9510565400123596,0.30901700258255005,-0.30901700258255005,0.9510565400123596,21.821849803127407,-98.76216266897245)"><path d="M326.8574658984375,19.5078125C326.8574658984375,19.5078125,322.6907958984375,19.5078125,322.6907958984375,19.5078125C322.6907958984375,19.5078125,322.6907958984375,36.1745125,322.6907958984375,36.1745125C322.6907958984375,36.1745125,326.8574658984375,36.1745125,326.8574658984375,36.1745125C326.8574658984375,36.1745125,326.8574658984375,19.5078125,326.8574658984375,19.5078125C326.8574658984375,19.5078125,326.8574658984375,19.5078125,326.8574658984375,19.5078125Z" fill="#000000" fill-opacity="0.30000001192092896"/></g><g transform="matrix(0.9781476259231567,0.2079116851091385,-0.2079116851091385,0.9781476259231567,9.257918035284092,-61.71315990254152)"><path d="M302.376386796875,13.18505859375C302.376386796875,13.18505859375,298.209716796875,13.18505859375,298.209716796875,13.18505859375C298.209716796875,13.18505859375,298.209716796875,29.85175859375,298.209716796875,29.85175859375C298.209716796875,29.85175859375,302.376386796875,29.85175859375,302.376386796875,29.85175859375C302.376386796875,29.85175859375,302.376386796875,13.18505859375,302.376386796875,13.18505859375C302.376386796875,13.18505859375,302.376386796875,13.18505859375,302.376386796875,13.18505859375Z" fill="#000000" fill-opacity="0.30000001192092896"/></g><g transform="matrix(0.9945219159126282,0.10452846437692642,-0.10452846437692642,0.9945219159126282,2.4839998882489454,-28.504094101683222)"><path d="M277.353925859375,9.44677734375C277.353925859375,9.44677734375,273.187255859375,9.44677734375,273.187255859375,9.44677734375C273.187255859375,9.44677734375,273.187255859375,26.11347734375,273.187255859375,26.11347734375C273.187255859375,26.11347734375,277.353925859375,26.11347734375,277.353925859375,26.11347734375C277.353925859375,26.11347734375,277.353925859375,9.44677734375,277.353925859375,9.44677734375C277.353925859375,9.44677734375,277.353925859375,9.44677734375,277.353925859375,9.44677734375Z" fill="#000000" fill-opacity="0.30000001192092896"/></g><g transform="matrix(-0.4999999701976776,0.866025447845459,-0.866025447845459,-0.4999999701976776,1010.0856966175124,154.88531508966116)"><path d="M464.497968828125,369.029296875C464.497968828125,369.029296875,460.331298828125,369.029296875,460.331298828125,369.029296875C460.331298828125,369.029296875,460.331298828125,385.695996875,460.331298828125,385.695996875C460.331298828125,385.695996875,464.497968828125,385.695996875,464.497968828125,385.695996875C464.497968828125,385.695996875,464.497968828125,369.029296875,464.497968828125,369.029296875C464.497968828125,369.029296875,464.497968828125,369.029296875,464.497968828125,369.029296875Z" fill="#000000" fill-opacity="0.30000001192092896"/></g></g><g><g><rect x="245.83329963684082" y="8.333251953125" width="8.333333015441895" height="25" rx="0" fill="#000000" fill-opacity="0.5"/></g><g><rect x="245.83329963684082" y="466.666748046875" width="8.333333015441895" height="25" rx="0" fill="#000000" fill-opacity="0.5"/></g><g transform="matrix(0.8660253882408142,0.5,-0.5,0.8660253882408142,68.5123140733632,-178.43702063172532)"><rect x="367.2241687774658" y="38.627197265625" width="8.333333015441895" height="25" rx="0" fill="#000000" fill-opacity="0.5"/></g><g transform="matrix(0.8660253882408142,0.5,-0.5,0.8660253882408142,236.27389930379297,-10.67534208165307)"><rect x="138.05742073059082" y="435.555419921875" width="8.333333015441895" height="25" rx="0" fill="#000000" fill-opacity="0.5"/></g><g transform="matrix(0.4999999701976776,0.8660253882408142,-0.8660253882408142,0.4999999701976776,337.3400557458859,-333.1728974111537)"><rect x="457.2062244415283" y="125.55859375" width="8.333333015441895" height="25" rx="0" fill="#000000" fill-opacity="0.5"/></g><g transform="matrix(0.4999999701976776,0.8660253882408142,-0.8660253882408142,0.4999999701976776,337.3391496484997,125.16165380914765)"><rect x="60.27641487121582" y="354.72509765625" width="8.333333015441895" height="25" rx="0" fill="#000000" fill-opacity="0.5"/></g><g transform="matrix(0,1,-1,0,737.5007801055908,-245.83281135559082)"><rect x="491.6667957305908" y="245.833984375" width="8.333333015441895" height="25" rx="0" fill="#000000" fill-opacity="0.5"/></g><g transform="matrix(0,1,-1,0,279.1645984649658,212.50190544128418)"><rect x="33.33134651184082" y="245.833251953125" width="8.333333015441895" height="25" rx="0" fill="#000000" fill-opacity="0.5"/></g><g transform="matrix(-0.5000000596046448,0.8660253882408142,-0.8660253882408142,-0.5000000596046448,1010.0866180565237,151.27889752035856)"><rect x="461.3728504180908" y="367.226318359375" width="8.333333015441895" height="25" rx="0" fill="#000000" fill-opacity="0.5"/></g><g transform="matrix(-0.5000000596046448,0.8660253882408142,-0.8660253882408142,-0.5000000596046448,216.22557209972285,151.2768640455471)"><rect x="64.44291877746582" y="138.057373046875" width="8.333333015441895" height="25" rx="0" fill="#000000" fill-opacity="0.5"/></g><g transform="matrix(-0.866025447845459,0.4999999403953552,-0.4999999403953552,-0.866025447845459,927.3193140623216,665.941105597015)"><rect x="374.4404773712158" y="457.207763671875" width="8.333333015441895" height="25" rx="0" fill="#000000" fill-opacity="0.5"/></g><g transform="matrix(-0.866025447845459,0.4999999403953552,-0.4999999403953552,-0.866025447845459,301.2235996774425,39.8420792925491)"><rect x="145.27397346496582" y="60.27734375" width="8.333333015441895" height="25" rx="0" fill="#000000" fill-opacity="0.5"/></g></g></g></svg>