<svg xmlns="http://www.w3.org/2000/svg" xmlns:xlink="http://www.w3.org/1999/xlink" fill="none" version="1.1" width="499.9999694824219" height="499.9999694824219" viewBox="0 0 499.9999694824219 499.9999694824219"><defs><clipPath id="master_svg0_168_0583"><rect x="0" y="0" width="499.9999694824219" height="499.9999694824219" rx="0"/></clipPath></defs><g clip-path="url(#master_svg0_168_0583)"><g><g transform="matrix(0.9945219159126282,0.10452846437692642,-0.10452846437692642,0.9945219159126282,2.483194779220355,-28.504356707091695)"><path d="M277.3560287112427,9.43896484375C277.3560287112427,9.43896484375,273.1893587112427,9.43896484375,273.1893587112427,9.43896484375C273.1893587112427,9.43896484375,273.1893587112427,26.10566484375,273.1893587112427,26.10566484375C273.1893587112427,26.10566484375,277.3560287112427,26.10566484375,277.3560287112427,26.10566484375C277.3560287112427,26.10566484375,277.3560287112427,9.43896484375,277.3560287112427,9.43896484375C277.3560287112427,9.43896484375,277.3560287112427,9.43896484375,277.3560287112427,9.43896484375Z" fill="#000000" fill-opacity="0.30000001192092896"/></g><g transform="matrix(0.9781476259231567,0.20791170001029968,-0.20791170001029968,0.9781476259231567,9.257069412370015,-61.7124125871936)"><path d="M302.3723861331177,13.181396484375C302.3723861331177,13.181396484375,298.2057161331177,13.181396484375,298.2057161331177,13.181396484375C298.2057161331177,13.181396484375,298.2057161331177,29.848096484375,298.2057161331177,29.848096484375C298.2057161331177,29.848096484375,302.3723861331177,29.848096484375,302.3723861331177,29.848096484375C302.3723861331177,29.848096484375,302.3723861331177,13.181396484375,302.3723861331177,13.181396484375C302.3723861331177,13.181396484375,302.3723861331177,13.181396484375,302.3723861331177,13.181396484375Z" fill="#000000" fill-opacity="0.30000001192092896"/></g><g transform="matrix(0.9510565400123596,0.30901700258255005,-0.30901700258255005,0.9510565400123596,21.825016740865237,-98.76360324011927)"><path d="M326.8635970706177,19.51708984375C326.8635970706177,19.51708984375,322.6969270706177,19.51708984375,322.6969270706177,19.51708984375C322.6969270706177,19.51708984375,322.6969270706177,36.18378984375,322.6969270706177,36.18378984375C322.6969270706177,36.18378984375,326.8635970706177,36.18378984375,326.8635970706177,36.18378984375C326.8635970706177,36.18378984375,326.8635970706177,19.51708984375,326.8635970706177,19.51708984375C326.8635970706177,19.51708984375,326.8635970706177,19.51708984375,326.8635970706177,19.51708984375Z" fill="#000000" fill-opacity="0.30000001192092896"/></g><g transform="matrix(0.9135454297065735,0.4067366421222687,-0.4067366421222687,0.9135454297065735,41.48992702585696,-138.43641262316137)"><path d="M350.5576888674927,28.379150390625C350.5576888674927,28.379150390625,346.3910188674927,28.379150390625,346.3910188674927,28.379150390625C346.3910188674927,28.379150390625,346.3910188674927,45.045850390625,346.3910188674927,45.045850390625C346.3910188674927,45.045850390625,350.5576888674927,45.045850390625,350.5576888674927,45.045850390625C350.5576888674927,45.045850390625,350.5576888674927,28.379150390625,350.5576888674927,28.379150390625C350.5576888674927,28.379150390625,350.5576888674927,28.379150390625,350.5576888674927,28.379150390625Z" fill="#000000" fill-opacity="0.30000001192092896"/></g><g transform="matrix(0.8660253882408142,0.5,-0.5,0.8660253882408142,69.27456762702997,-179.19878168900323)"><path d="M373.1934310549927,39.668701171875C373.1934310549927,39.668701171875,369.0267610549927,39.668701171875,369.0267610549927,39.668701171875C369.0267610549927,39.668701171875,369.0267610549927,56.335401171875,369.0267610549927,56.335401171875C369.0267610549927,56.335401171875,373.1934310549927,56.335401171875,373.1934310549927,56.335401171875C373.1934310549927,56.335401171875,373.1934310549927,39.668701171875,373.1934310549927,39.668701171875C373.1934310549927,39.668701171875,373.1934310549927,39.668701171875,373.1934310549927,39.668701171875Z" fill="#000000" fill-opacity="0.800000011920929"/></g><g transform="matrix(0.80901700258255,0.5877852439880371,-0.5877852439880371,0.80901700258255,105.85953197385373,-219.27578003893314)"><path d="M394.5271712893677,53.26318359375C394.5271712893677,53.26318359375,390.3605012893677,53.26318359375,390.3605012893677,53.26318359375C390.3605012893677,53.26318359375,390.3605012893677,69.92988359374999,390.3605012893677,69.92988359374999C390.3605012893677,69.92988359374999,394.5271712893677,69.92988359374999,394.5271712893677,69.92988359374999C394.5271712893677,69.92988359374999,394.5271712893677,53.26318359375,394.5271712893677,53.26318359375C394.5271712893677,53.26318359375,394.5271712893677,53.26318359375,394.5271712893677,53.26318359375Z" fill="#000000" fill-opacity="0.30000001192092896"/></g><g transform="matrix(0.7431448101997375,0.6691306233406067,-0.6691306233406067,0.7431448101997375,151.53014771112197,-256.72461496354214)"><path d="M414.3269759768677,69.012451171875C414.3269759768677,69.012451171875,410.1603059768677,69.012451171875,410.1603059768677,69.012451171875C410.1603059768677,69.012451171875,410.1603059768677,85.67915117187499,410.1603059768677,85.67915117187499C410.1603059768677,85.67915117187499,414.3269759768677,85.67915117187499,414.3269759768677,85.67915117187499C414.3269759768677,85.67915117187499,414.3269759768677,69.012451171875,414.3269759768677,69.012451171875C414.3269759768677,69.012451171875,414.3269759768677,69.012451171875,414.3269759768677,69.012451171875Z" fill="#000000" fill-opacity="0.30000001192092896"/></g><g transform="matrix(0.6691305637359619,0.7431448698043823,-0.7431448698043823,0.6691305637359619,206.14194936034505,-289.5121301871626)"><path d="M432.3650619143677,86.7451171875C432.3650619143677,86.7451171875,428.1983919143677,86.7451171875,428.1983919143677,86.7451171875C428.1983919143677,86.7451171875,428.1983919143677,103.41181718749999,428.1983919143677,103.41181718749999C428.1983919143677,103.41181718749999,432.3650619143677,103.41181718749999,432.3650619143677,103.41181718749999C432.3650619143677,103.41181718749999,432.3650619143677,86.7451171875,432.3650619143677,86.7451171875C432.3650619143677,86.7451171875,432.3650619143677,86.7451171875,432.3650619143677,86.7451171875Z" fill="#000000" fill-opacity="0.30000001192092896"/></g><g transform="matrix(0.5877853035926819,0.80901700258255,-0.80901700258255,0.5877853035926819,269.1095692101905,-315.6329057193348)"><path d="M448.4536849612427,106.26220703125C448.4536849612427,106.26220703125,444.2870149612427,106.26220703125,444.2870149612427,106.26220703125C444.2870149612427,106.26220703125,444.2870149612427,122.92890703124999,444.2870149612427,122.92890703124999C444.2870149612427,122.92890703124999,448.4536849612427,122.92890703124999,448.4536849612427,122.92890703124999C448.4536849612427,122.92890703124999,448.4536849612427,106.26220703125,448.4536849612427,106.26220703125C448.4536849612427,106.26220703125,448.4536849612427,106.26220703125,448.4536849612427,106.26220703125Z" fill="#000000" fill-opacity="0.30000001192092896"/></g><g transform="matrix(0.4999999701976776,0.866025447845459,-0.866025447845459,0.4999999701976776,339.41891939803907,-333.17106990636194)"><path d="M462.4107162112427,127.35986328125C462.4107162112427,127.35986328125,458.2440462112427,127.35986328125,458.2440462112427,127.35986328125C458.2440462112427,127.35986328125,458.2440462112427,144.02656328125,458.2440462112427,144.02656328125C458.2440462112427,144.02656328125,462.4107162112427,144.02656328125,462.4107162112427,144.02656328125C462.4107162112427,144.02656328125,462.4107162112427,127.35986328125,462.4107162112427,127.35986328125C462.4107162112427,127.35986328125,462.4107162112427,127.35986328125,462.4107162112427,127.35986328125Z" fill="#000000" fill-opacity="0.800000011920929"/></g><g transform="matrix(0.4067366123199463,0.9135454893112183,-0.9135454893112183,0.4067366123199463,415.6398226159679,-340.4276186263654)"><path d="M474.0928451174927,149.80078125C474.0928451174927,149.80078125,469.9261751174927,149.80078125,469.9261751174927,149.80078125C469.9261751174927,149.80078125,469.9261751174927,166.46748125,469.9261751174927,166.46748125C469.9261751174927,166.46748125,474.0928451174927,166.46748125,474.0928451174927,166.46748125C474.0928451174927,166.46748125,474.0928451174927,149.80078125,474.0928451174927,149.80078125C474.0928451174927,149.80078125,474.0928451174927,149.80078125,474.0928451174927,149.80078125Z" fill="#000000" fill-opacity="0.30000001192092896"/></g><g transform="matrix(0.30901697278022766,0.9510565400123596,-0.9510565400123596,0.30901697278022766,495.97570172177655,-335.9639882819145)"><path d="M483.3618880862427,173.343994140625C483.3618880862427,173.343994140625,479.1952180862427,173.343994140625,479.1952180862427,173.343994140625C479.1952180862427,173.343994140625,479.1952180862427,190.010694140625,479.1952180862427,190.010694140625C479.1952180862427,190.010694140625,483.3618880862427,190.010694140625,483.3618880862427,190.010694140625C483.3618880862427,190.010694140625,483.3618880862427,173.343994140625,483.3618880862427,173.343994140625C483.3618880862427,173.343994140625,483.3618880862427,173.343994140625,483.3618880862427,173.343994140625Z" fill="#000000" fill-opacity="0.30000001192092896"/></g><g transform="matrix(0.2079116553068161,0.9781476259231567,-0.9781476259231567,0.2079116553068161,578.315198199025,-318.7252012837431)"><path d="M490.1206771487427,197.71728515625C490.1206771487427,197.71728515625,485.9540071487427,197.71728515625,485.9540071487427,197.71728515625C485.9540071487427,197.71728515625,485.9540071487427,214.38398515625,485.9540071487427,214.38398515625C485.9540071487427,214.38398515625,490.1206771487427,214.38398515625,490.1206771487427,214.38398515625C490.1206771487427,214.38398515625,490.1206771487427,197.71728515625,490.1206771487427,197.71728515625C490.1206771487427,197.71728515625,490.1206771487427,197.71728515625,490.1206771487427,197.71728515625Z" fill="#000000" fill-opacity="0.30000001192092896"/></g><g transform="matrix(0.10452841967344284,0.9945219159126282,-0.9945219159126282,0.10452841967344284,660.3370193663261,-288.0499159839242)"><path d="M494.2910873049927,222.664306640625C494.2910873049927,222.664306640625,490.1244173049927,222.664306640625,490.1244173049927,222.664306640625C490.1244173049927,222.664306640625,490.1244173049927,239.331006640625,490.1244173049927,239.331006640625C490.1244173049927,239.331006640625,494.2910873049927,239.331006640625,494.2910873049927,239.331006640625C494.2910873049927,239.331006640625,494.2910873049927,222.664306640625,494.2910873049927,222.664306640625C494.2910873049927,222.664306640625,494.2910873049927,222.664306640625,494.2910873049927,222.664306640625Z" fill="#000000" fill-opacity="0.30000001192092896"/></g><g transform="matrix(-0.10452850908041,0.9945219159126282,-0.9945219159126282,-0.10452850908041,813.5347056008318,-186.13149340438446)"><path d="M494.7307845706177,273.189208984375C494.7307845706177,273.189208984375,490.5641145706177,273.189208984375,490.5641145706177,273.189208984375C490.5641145706177,273.189208984375,490.5641145706177,289.855908984375,490.5641145706177,289.855908984375C490.5641145706177,289.855908984375,494.7307845706177,289.855908984375,494.7307845706177,289.855908984375C494.7307845706177,289.855908984375,494.7307845706177,273.189208984375,494.7307845706177,273.189208984375C494.7307845706177,273.189208984375,494.7307845706177,273.189208984375,494.7307845706177,273.189208984375Z" fill="#000000" fill-opacity="0.30000001192092896"/></g><g transform="matrix(-0.2079116255044937,0.9781476259231567,-0.9781476259231567,-0.2079116255044937,879.7204442698612,-115.97248803659897)"><path d="M490.9832259768677,298.20556640625C490.9832259768677,298.20556640625,486.8165559768677,298.20556640625,486.8165559768677,298.20556640625C486.8165559768677,298.20556640625,486.8165559768677,314.87226640625,486.8165559768677,314.87226640625C486.8165559768677,314.87226640625,490.9832259768677,314.87226640625,490.9832259768677,314.87226640625C490.9832259768677,314.87226640625,490.9832259768677,298.20556640625,490.9832259768677,298.20556640625C490.9832259768677,298.20556640625,490.9832259768677,298.20556640625,490.9832259768677,298.20556640625Z" fill="#000000" fill-opacity="0.30000001192092896"/></g><g transform="matrix(-0.3090169429779053,0.9510565400123596,-0.9510565400123596,-0.3090169429779053,935.8607026681609,-34.548598171594506)"><path d="M484.6475326174927,322.697021484375C484.6475326174927,322.697021484375,480.4808626174927,322.697021484375,480.4808626174927,322.697021484375C480.4808626174927,322.697021484375,480.4808626174927,339.363721484375,480.4808626174927,339.363721484375C480.4808626174927,339.363721484375,484.6475326174927,339.363721484375,484.6475326174927,339.363721484375C484.6475326174927,339.363721484375,484.6475326174927,322.697021484375,484.6475326174927,322.697021484375C484.6475326174927,322.697021484375,484.6475326174927,322.697021484375,484.6475326174927,322.697021484375Z" fill="#000000" fill-opacity="0.30000001192092896"/></g><g transform="matrix(-0.4067365825176239,0.9135454893112183,-0.9135454893112183,-0.4067365825176239,979.888941412028,56.426071120827714)"><path d="M475.7893783206177,346.38671875C475.7893783206177,346.38671875,471.6227083206177,346.38671875,471.6227083206177,346.38671875C471.6227083206177,346.38671875,471.6227083206177,363.05341875,471.6227083206177,363.05341875C471.6227083206177,363.05341875,475.7893783206177,363.05341875,475.7893783206177,363.05341875C475.7893783206177,363.05341875,475.7893783206177,346.38671875,475.7893783206177,346.38671875C475.7893783206177,346.38671875,475.7893783206177,346.38671875,475.7893783206177,346.38671875Z" fill="#000000" fill-opacity="0.30000001192092896"/></g><g transform="matrix(-0.5000000596046448,0.8660253882408142,-0.8660253882408142,-0.5000000596046448,1010.0809833744804,154.8910374634309)"><path d="M464.4939681643677,369.03076171875C464.4939681643677,369.03076171875,460.3272981643677,369.03076171875,460.3272981643677,369.03076171875C460.3272981643677,369.03076171875,460.3272981643677,385.69746171875,460.3272981643677,385.69746171875C460.3272981643677,385.69746171875,464.4939681643677,385.69746171875,464.4939681643677,385.69746171875C464.4939681643677,385.69746171875,464.4939681643677,369.03076171875,464.4939681643677,369.03076171875C464.4939681643677,369.03076171875,464.4939681643677,369.03076171875,464.4939681643677,369.03076171875Z" fill="#000000" fill-opacity="0.800000011920929"/></g><g transform="matrix(-0.5877851843833923,0.80901700258255,-0.80901700258255,-0.5877851843833923,1025.1322753159636,258.3940702835984)"><path d="M450.9036361331177,390.362548828125C450.9036361331177,390.362548828125,446.7369661331177,390.362548828125,446.7369661331177,390.362548828125C446.7369661331177,390.362548828125,446.7369661331177,407.029248828125,446.7369661331177,407.029248828125C446.7369661331177,407.029248828125,450.9036361331177,407.029248828125,450.9036361331177,407.029248828125C450.9036361331177,407.029248828125,450.9036361331177,390.362548828125,450.9036361331177,390.362548828125C450.9036361331177,390.362548828125,450.9036361331177,390.362548828125,450.9036361331177,390.362548828125Z" fill="#000000" fill-opacity="0.30000001192092896"/></g><g transform="matrix(-0.6691306829452515,0.7431448101997375,-0.7431448101997375,-0.6691306829452515,1024.1801045089715,364.3264892347374)"><path d="M435.1524154299927,410.160400390625C435.1524154299927,410.160400390625,430.9857454299927,410.160400390625,430.9857454299927,410.160400390625C430.9857454299927,410.160400390625,430.9857454299927,426.827100390625,430.9857454299927,426.827100390625C430.9857454299927,426.827100390625,435.1524154299927,426.827100390625,435.1524154299927,426.827100390625C435.1524154299927,426.827100390625,435.1524154299927,410.160400390625,435.1524154299927,410.160400390625C435.1524154299927,410.160400390625,435.1524154299927,410.160400390625,435.1524154299927,410.160400390625Z" fill="#000000" fill-opacity="0.30000001192092896"/></g><g transform="matrix(-0.7431448101997375,0.6691306233406067,-0.6691306233406067,-0.7431448101997375,1006.8800918160255,469.89141634179845)"><path d="M417.4195052737427,428.1982421875C417.4195052737427,428.1982421875,413.2528352737427,428.1982421875,413.2528352737427,428.1982421875C413.2528352737427,428.1982421875,413.2528352737427,444.8649421875,413.2528352737427,444.8649421875C413.2528352737427,444.8649421875,417.4195052737427,444.8649421875,417.4195052737427,444.8649421875C417.4195052737427,444.8649421875,417.4195052737427,428.1982421875,417.4195052737427,428.1982421875C417.4195052737427,428.1982421875,417.4195052737427,428.1982421875,417.4195052737427,428.1982421875Z" fill="#000000" fill-opacity="0.30000001192092896"/></g><g transform="matrix(-0.8090170621871948,0.5877851843833923,-0.5877851843833923,-0.8090170621871948,973.417676760488,572.2956048976905)"><path d="M397.9004623049927,444.2890625C397.9004623049927,444.2890625,393.7337923049927,444.2890625,393.7337923049927,444.2890625C393.7337923049927,444.2890625,393.7337923049927,460.9557625,393.7337923049927,460.9557625C393.7337923049927,460.9557625,397.9004623049927,460.9557625,397.9004623049927,460.9557625C397.9004623049927,460.9557625,397.9004623049927,444.2890625,397.9004623049927,444.2890625C397.9004623049927,444.2890625,397.9004623049927,444.2890625,397.9004623049927,444.2890625Z" fill="#000000" fill-opacity="0.30000001192092896"/></g><g transform="matrix(-0.8660253882408142,0.5000000596046448,-0.5000000596046448,-0.8660253882408142,924.4724191354596,668.7839437695714)"><path d="M376.8028060549927,458.247802734375C376.8028060549927,458.247802734375,372.6361360549927,458.247802734375,372.6361360549927,458.247802734375C372.6361360549927,458.247802734375,372.6361360549927,474.914502734375,372.6361360549927,474.914502734375C372.6361360549927,474.914502734375,376.8028060549927,474.914502734375,376.8028060549927,474.914502734375C376.8028060549927,474.914502734375,376.8028060549927,458.247802734375,376.8028060549927,458.247802734375C376.8028060549927,458.247802734375,376.8028060549927,458.247802734375,376.8028060549927,458.247802734375Z" fill="#000000" fill-opacity="0.800000011920929"/></g><g transform="matrix(-0.9135454893112183,0.4067365825176239,-0.4067365825176239,-0.9135454893112183,861.2668666769736,756.7861124431362)"><path d="M354.3701888674927,469.927001953125C354.3701888674927,469.927001953125,350.2035188674927,469.927001953125,350.2035188674927,469.927001953125C350.2035188674927,469.927001953125,350.2035188674927,486.593701953125,350.2035188674927,486.593701953125C350.2035188674927,486.593701953125,354.3701888674927,486.593701953125,354.3701888674927,486.593701953125C354.3701888674927,486.593701953125,354.3701888674927,469.927001953125,354.3701888674927,469.927001953125C354.3701888674927,469.927001953125,354.3701888674927,469.927001953125,354.3701888674927,469.927001953125Z" fill="#000000" fill-opacity="0.30000001192092896"/></g><g transform="matrix(-0.9510564804077148,0.30901703238487244,-0.30901703238487244,-0.9510564804077148,785.3964258651131,833.9955347902473)"><path d="M330.8189193362427,479.195068359375C330.8189193362427,479.195068359375,326.6522493362427,479.195068359375,326.6522493362427,479.195068359375C326.6522493362427,479.195068359375,326.6522493362427,495.861768359375,326.6522493362427,495.861768359375C326.6522493362427,495.861768359375,330.8189193362427,495.861768359375,330.8189193362427,495.861768359375C330.8189193362427,495.861768359375,330.8189193362427,479.195068359375,330.8189193362427,479.195068359375C330.8189193362427,479.195068359375,330.8189193362427,479.195068359375,330.8189193362427,479.195068359375Z" fill="#000000" fill-opacity="0.30000001192092896"/></g><g transform="matrix(-0.9781476259231567,0.20791161060333252,-0.20791161060333252,-0.9781476259231567,698.9871161993884,898.4388003200269)"><path d="M306.4453841799927,485.95263671875C306.4453841799927,485.95263671875,302.2787141799927,485.95263671875,302.2787141799927,485.95263671875C302.2787141799927,485.95263671875,302.2787141799927,502.61933671875,302.2787141799927,502.61933671875C302.2787141799927,502.61933671875,306.4453841799927,502.61933671875,306.4453841799927,502.61933671875C306.4453841799927,502.61933671875,306.4453841799927,485.95263671875,306.4453841799927,485.95263671875C306.4453841799927,485.95263671875,306.4453841799927,485.95263671875,306.4453841799927,485.95263671875Z" fill="#000000" fill-opacity="0.30000001192092896"/></g><g transform="matrix(-0.9945219159126282,0.10452849417924881,-0.10452849417924881,-0.9945219159126282,604.3844963525248,948.5765298645938)"><path d="M281.5025130862427,490.12548828125C281.5025130862427,490.12548828125,277.3358430862427,490.12548828125,277.3358430862427,490.12548828125C277.3358430862427,490.12548828125,277.3358430862427,506.79218828125,277.3358430862427,506.79218828125C277.3358430862427,506.79218828125,281.5025130862427,506.79218828125,281.5025130862427,506.79218828125C281.5025130862427,506.79218828125,281.5025130862427,490.12548828125,281.5025130862427,490.12548828125C281.5025130862427,490.12548828125,281.5025130862427,490.12548828125,281.5025130862427,490.12548828125Z" fill="#000000" fill-opacity="0.30000001192092896"/></g><g transform="matrix(-0.9945219159126282,-0.10452843457460403,0.10452843457460403,-0.9945219159126282,401.10129763366564,1002.1429011775173)"><path d="M230.97735134307862,490.56103515625C230.97735134307862,490.56103515625,226.8106813430786,490.56103515625,226.8106813430786,490.56103515625C226.8106813430786,490.56103515625,226.8106813430786,507.22773515625,226.8106813430786,507.22773515625C226.8106813430786,507.22773515625,230.97735134307862,507.22773515625,230.97735134307862,507.22773515625C230.97735134307862,507.22773515625,230.97735134307862,490.56103515625,230.97735134307862,490.56103515625C230.97735134307862,490.56103515625,230.97735134307862,490.56103515625,230.97735134307862,490.56103515625Z" fill="#000000" fill-opacity="0.30000001192092896"/></g><g transform="matrix(-0.978147566318512,-0.20791178941726685,0.20791178941726685,-0.978147566318512,297.9556936052821,1004.9555743930205)"><path d="M205.95708767120362,486.819580078125C205.95708767120362,486.819580078125,201.7904176712036,486.819580078125,201.7904176712036,486.819580078125C201.7904176712036,486.819580078125,201.7904176712036,503.486280078125,201.7904176712036,503.486280078125C201.7904176712036,503.486280078125,205.95708767120362,503.486280078125,205.95708767120362,503.486280078125C205.95708767120362,503.486280078125,205.95708767120362,486.819580078125,205.95708767120362,486.819580078125C205.95708767120362,486.819580078125,205.95708767120362,486.819580078125,205.95708767120362,486.819580078125Z" fill="#000000" fill-opacity="0.30000001192092896"/></g><g transform="matrix(-0.9510565400123596,-0.30901697278022766,0.30901697278022766,-0.9510565400123596,197.45912142905928,992.2402780044041)"><path d="M181.47393337432862,480.48291015625C181.47393337432862,480.48291015625,177.3072633743286,480.48291015625,177.3072633743286,480.48291015625C177.3072633743286,480.48291015625,177.3072633743286,497.14961015625,177.3072633743286,497.14961015625C177.3072633743286,497.14961015625,181.47393337432862,497.14961015625,181.47393337432862,497.14961015625C181.47393337432862,497.14961015625,181.47393337432862,480.48291015625,181.47393337432862,480.48291015625C181.47393337432862,480.48291015625,181.47393337432862,480.48291015625,181.47393337432862,480.48291015625Z" fill="#000000" fill-opacity="0.30000001192092896"/></g><g transform="matrix(-0.9135454893112183,-0.4067365229129791,0.4067365229129791,-0.9135454893112183,102.1050496200263,964.9442926120064)"><path d="M157.77178493682862,471.62060546875C157.77178493682862,471.62060546875,153.6051149368286,471.62060546875,153.6051149368286,471.62060546875C153.6051149368286,471.62060546875,153.6051149368286,488.28730546875,153.6051149368286,488.28730546875C153.6051149368286,488.28730546875,157.77178493682862,488.28730546875,157.77178493682862,488.28730546875C157.77178493682862,488.28730546875,157.77178493682862,471.62060546875,157.77178493682862,471.62060546875C157.77178493682862,471.62060546875,157.77178493682862,471.62060546875,157.77178493682862,471.62060546875Z" fill="#000000" fill-opacity="0.30000001192092896"/></g><g transform="matrix(-0.8660253882408142,-0.4999999701976776,0.4999999701976776,-0.8660253882408142,14.241572833051293,924.4786014066955)"><path d="M135.14409938995362,460.331298828125C135.14409938995362,460.331298828125,130.9774293899536,460.331298828125,130.9774293899536,460.331298828125C130.9774293899536,460.331298828125,130.9774293899536,476.997998828125,130.9774293899536,476.997998828125C130.9774293899536,476.997998828125,135.14409938995362,476.997998828125,135.14409938995362,476.997998828125C135.14409938995362,476.997998828125,135.14409938995362,460.331298828125,135.14409938995362,460.331298828125C135.14409938995362,460.331298828125,135.14409938995362,460.331298828125,135.14409938995362,460.331298828125Z" fill="#000000" fill-opacity="0.800000011920929"/></g><g transform="matrix(-0.8090170621871948,-0.5877851247787476,0.5877851247787476,-0.8090170621871948,-64.25252553137182,872.5967171240935)"><path d="M113.80230251495361,446.73681640625C113.80230251495361,446.73681640625,109.63563251495361,446.73681640625,109.63563251495361,446.73681640625C109.63563251495361,446.73681640625,109.63563251495361,463.40351640625,109.63563251495361,463.40351640625C109.63563251495361,463.40351640625,113.80230251495361,463.40351640625,113.80230251495361,463.40351640625C113.80230251495361,463.40351640625,113.80230251495361,446.73681640625,113.80230251495361,446.73681640625C113.80230251495361,446.73681640625,113.80230251495361,446.73681640625,113.80230251495361,446.73681640625Z" fill="#000000" fill-opacity="0.30000001192092896"/></g><g transform="matrix(-0.7431448101997375,-0.6691306233406067,0.6691306233406067,-0.7431448101997375,-131.7775365184047,811.3948335700898)"><path d="M94.01055446807861,430.98974609375C94.01055446807861,430.98974609375,89.84388446807861,430.98974609375,89.84388446807861,430.98974609375C89.84388446807861,430.98974609375,89.84388446807861,447.65644609375,89.84388446807861,447.65644609375C89.84388446807861,447.65644609375,94.01055446807861,447.65644609375,94.01055446807861,447.65644609375C94.01055446807861,447.65644609375,94.01055446807861,430.98974609375,94.01055446807861,430.98974609375C94.01055446807861,430.98974609375,94.01055446807861,430.98974609375,94.01055446807861,430.98974609375Z" fill="#000000" fill-opacity="0.30000001192092896"/></g><g transform="matrix(-0.6691306829452515,-0.7431447505950928,0.7431447505950928,-0.6691306829452515,-187.27489653969644,743.1296196950786)"><path d="M75.96050945465088,413.2548828125C75.96050945465088,413.2548828125,71.79383945465088,413.2548828125,71.79383945465088,413.2548828125C71.79383945465088,413.2548828125,71.79383945465088,429.9215828125,71.79383945465088,429.9215828125C71.79383945465088,429.9215828125,75.96050945465088,429.9215828125,75.96050945465088,429.9215828125C75.96050945465088,429.9215828125,75.96050945465088,413.2548828125,75.96050945465088,413.2548828125C75.96050945465088,413.2548828125,75.96050945465088,413.2548828125,75.96050945465088,413.2548828125Z" fill="#000000" fill-opacity="0.30000001192092896"/></g><g transform="matrix(-0.5877854228019714,-0.8090168237686157,0.8090168237686157,-0.5877854228019714,-230.0770032833637,670.2377034846919)"><path d="M59.879698907775875,393.73388671875C59.879698907775875,393.73388671875,55.71302890777588,393.73388671875,55.71302890777588,393.73388671875C55.71302890777588,393.73388671875,55.71302890777588,410.40058671875,55.71302890777588,410.40058671875C55.71302890777588,410.40058671875,59.879698907775875,410.40058671875,59.879698907775875,410.40058671875C59.879698907775875,410.40058671875,59.879698907775875,393.73388671875,59.879698907775875,393.73388671875C59.879698907775875,393.73388671875,59.879698907775875,393.73388671875,59.879698907775875,393.73388671875Z" fill="#000000" fill-opacity="0.30000001192092896"/></g><g transform="matrix(-0.49999991059303284,-0.866025447845459,0.866025447845459,-0.49999991059303284,-260.08390213241876,595.1119536249221)"><path d="M45.918761407775875,372.6357421875C45.918761407775875,372.6357421875,41.75209140777588,372.6357421875,41.75209140777588,372.6357421875C41.75209140777588,372.6357421875,41.75209140777588,389.3024421875,41.75209140777588,389.3024421875C41.75209140777588,389.3024421875,45.918761407775875,389.3024421875,45.918761407775875,389.3024421875C45.918761407775875,389.3024421875,45.918761407775875,372.6357421875,45.918761407775875,372.6357421875C45.918761407775875,372.6357421875,45.918761407775875,372.6357421875,45.918761407775875,372.6357421875Z" fill="#000000" fill-opacity="0.800000011920929"/></g><g transform="matrix(-0.4067366421222687,-0.9135454297065735,0.9135454297065735,-0.4067366421222687,-277.61880916090126,520.1028548079255)"><path d="M34.236632501525875,350.1953125C34.236632501525875,350.1953125,30.06996250152588,350.1953125,30.06996250152588,350.1953125C30.06996250152588,350.1953125,30.06996250152588,366.8620125,30.06996250152588,366.8620125C30.06996250152588,366.8620125,34.236632501525875,366.8620125,34.236632501525875,366.8620125C34.236632501525875,366.8620125,34.236632501525875,350.1953125,34.236632501525875,350.1953125C34.236632501525875,350.1953125,34.236632501525875,350.1953125,34.236632501525875,350.1953125Z" fill="#000000" fill-opacity="0.30000001192092896"/></g><g transform="matrix(-0.3090170919895172,-0.9510564804077148,0.9510564804077148,-0.3090170919895172,-283.4329542631508,447.3942385365808)"><path d="M24.975645219726562,326.66015625C24.975645219726562,326.66015625,20.808975219726562,326.66015625,20.808975219726562,326.66015625C20.808975219726562,326.66015625,20.808975219726562,343.32685625,20.808975219726562,343.32685625C20.808975219726562,343.32685625,24.975645219726562,343.32685625,24.975645219726562,343.32685625C24.975645219726562,343.32685625,24.975645219726562,326.66015625,24.975645219726562,326.66015625C24.975645219726562,326.66015625,24.975645219726562,326.66015625,24.975645219726562,326.66015625Z" fill="#000000" fill-opacity="0.30000001192092896"/></g><g transform="matrix(-0.2079119235277176,-0.978147566318512,0.978147566318512,-0.2079119235277176,-278.70571447746875,378.8740509321078)"><path d="M18.216856157226562,302.28271484375C18.216856157226562,302.28271484375,14.050186157226562,302.28271484375,14.050186157226562,302.28271484375C14.050186157226562,302.28271484375,14.050186157226562,318.94941484375,14.050186157226562,318.94941484375C14.050186157226562,318.94941484375,18.216856157226562,318.94941484375,18.216856157226562,318.94941484375C18.216856157226562,318.94941484375,18.216856157226562,302.28271484375,18.216856157226562,302.28271484375C18.216856157226562,302.28271484375,18.216856157226562,302.28271484375,18.216856157226562,302.28271484375Z" fill="#000000" fill-opacity="0.30000001192092896"/></g><g transform="matrix(-0.10452833771705627,-0.9945219159126282,0.9945219159126282,-0.10452833771705627,-264.9087034174481,316.1381896405009)"><path d="M14.038389598770141,277.33154296875C14.038389598770141,277.33154296875,9.871719598770142,277.33154296875,9.871719598770142,277.33154296875C9.871719598770142,277.33154296875,9.871719598770142,293.99824296875,9.871719598770142,293.99824296875C9.871719598770142,293.99824296875,14.038389598770141,293.99824296875,14.038389598770141,293.99824296875C14.038389598770141,293.99824296875,14.038389598770141,277.33154296875,14.038389598770141,277.33154296875C14.038389598770141,277.33154296875,14.038389598770141,277.33154296875,14.038389598770141,277.33154296875Z" fill="#000000" fill-opacity="0.30000001192092896"/></g><g transform="matrix(0.10452836006879807,-0.9945219159126282,0.9945219159126282,0.10452836006879807,-217.1108517763599,212.4872798551159)"><path d="M13.606748973770141,226.806640625C13.606748973770141,226.806640625,9.440078973770142,226.806640625,9.440078973770142,226.806640625C9.440078973770142,226.806640625,9.440078973770142,243.473340625,9.440078973770142,243.473340625C9.440078973770142,243.473340625,13.606748973770141,243.473340625,13.606748973770141,243.473340625C13.606748973770141,243.473340625,13.606748973770141,226.806640625,13.606748973770141,226.806640625C13.606748973770141,226.806640625,13.606748973770141,226.806640625,13.606748973770141,226.806640625Z" fill="#000000" fill-opacity="0.30000001192092896"/></g><g transform="matrix(0.20791147649288177,-0.9781476259231567,0.9781476259231567,0.20791147649288177,-186.94535134740772,172.73063075153325)"><path d="M17.34625092689514,201.79443359375C17.34625092689514,201.79443359375,13.179580926895142,201.79443359375,13.179580926895142,201.79443359375C13.179580926895142,201.79443359375,13.179580926895142,218.46113359375,13.179580926895142,218.46113359375C13.179580926895142,218.46113359375,17.34625092689514,218.46113359375,17.34625092689514,218.46113359375C17.34625092689514,218.46113359375,17.34625092689514,201.79443359375,17.34625092689514,201.79443359375C17.34625092689514,201.79443359375,17.34625092689514,201.79443359375,17.34625092689514,201.79443359375Z" fill="#000000" fill-opacity="0.30000001192092896"/></g><g transform="matrix(0.3090171217918396,-0.9510564804077148,0.9510564804077148,0.3090171217918396,-155.13795952192504,141.07733402111626)"><path d="M23.685850297851562,177.30322265625C23.685850297851562,177.30322265625,19.519180297851562,177.30322265625,19.519180297851562,177.30322265625C19.519180297851562,177.30322265625,19.519180297851562,193.96992265625,19.519180297851562,193.96992265625C19.519180297851562,193.96992265625,23.685850297851562,193.96992265625,23.685850297851562,193.96992265625C23.685850297851562,193.96992265625,23.685850297851562,177.30322265625,23.685850297851562,177.30322265625C23.685850297851562,177.30322265625,23.685850297851562,177.30322265625,23.685850297851562,177.30322265625Z" fill="#000000" fill-opacity="0.30000001192092896"/></g><g transform="matrix(0.40673667192459106,-0.9135454297065735,0.9135454297065735,0.40673667192459106,-123.4936869284241,117.05464939389532)"><path d="M32.544005548400875,153.609130859375C32.544005548400875,153.609130859375,28.37733554840088,153.609130859375,28.37733554840088,153.609130859375C28.37733554840088,153.609130859375,28.37733554840088,170.275830859375,28.37733554840088,170.275830859375C28.37733554840088,170.275830859375,32.544005548400875,170.275830859375,32.544005548400875,170.275830859375C32.544005548400875,170.275830859375,32.544005548400875,153.609130859375,32.544005548400875,153.609130859375C32.544005548400875,153.609130859375,32.544005548400875,153.609130859375,32.544005548400875,153.609130859375Z" fill="#000000" fill-opacity="0.30000001192092896"/></g><g transform="matrix(0.49999991059303284,-0.866025447845459,0.866025447845459,0.49999991059303284,-93.58619476681852,99.84244964831078)"><path d="M43.839659845275875,130.96923828125C43.839659845275875,130.96923828125,39.67298984527588,130.96923828125,39.67298984527588,130.96923828125C39.67298984527588,130.96923828125,39.67298984527588,147.63593828125,39.67298984527588,147.63593828125C39.67298984527588,147.63593828125,43.839659845275875,147.63593828125,43.839659845275875,147.63593828125C43.839659845275875,147.63593828125,43.839659845275875,130.96923828125,43.839659845275875,130.96923828125C43.839659845275875,130.96923828125,43.839659845275875,130.96923828125,43.839659845275875,130.96923828125Z" fill="#000000" fill-opacity="0.800000011920929"/></g><g transform="matrix(0.5877850651741028,-0.8090171217918396,0.8090171217918396,0.5877850651741028,-66.74263843172076,88.28513415091123)"><path d="M57.429991876525875,109.637451171875C57.429991876525875,109.637451171875,53.26332187652588,109.637451171875,53.26332187652588,109.637451171875C53.26332187652588,109.637451171875,53.26332187652588,126.30415117187499,53.26332187652588,126.30415117187499C53.26332187652588,126.30415117187499,57.429991876525875,126.30415117187499,57.429991876525875,126.30415117187499C57.429991876525875,126.30415117187499,57.429991876525875,109.637451171875,57.429991876525875,109.637451171875C57.429991876525875,109.637451171875,57.429991876525875,109.637451171875,57.429991876525875,109.637451171875Z" fill="#000000" fill-opacity="0.30000001192092896"/></g><g transform="matrix(0.6691307425498962,-0.7431447505950928,0.7431447505950928,0.6691307425498962,-43.93186107993955,81.01051853317017)"><path d="M73.17706218902588,89.841552734375C73.17706218902588,89.841552734375,69.01039218902588,89.841552734375,69.01039218902588,89.841552734375C69.01039218902588,89.841552734375,69.01039218902588,106.50825273437499,69.01039218902588,106.50825273437499C69.01039218902588,106.50825273437499,73.17706218902588,106.50825273437499,73.17706218902588,106.50825273437499C73.17706218902588,106.50825273437499,73.17706218902588,89.841552734375,73.17706218902588,89.841552734375C73.17706218902588,89.841552734375,73.17706218902588,89.841552734375,73.17706218902588,89.841552734375Z" fill="#000000" fill-opacity="0.30000001192092896"/></g><g transform="matrix(0.7431448698043823,-0.6691305637359619,0.6691305637359619,0.7431448698043823,-25.764352153414052,76.48507873533276)"><path d="M90.90972438995361,71.8017578125C90.90972438995361,71.8017578125,86.74305438995361,71.8017578125,86.74305438995361,71.8017578125C86.74305438995361,71.8017578125,86.74305438995361,88.46845781249999,86.74305438995361,88.46845781249999C86.74305438995361,88.46845781249999,90.90972438995361,88.46845781249999,90.90972438995361,88.46845781249999C90.90972438995361,88.46845781249999,90.90972438995361,71.8017578125,90.90972438995361,71.8017578125C90.90972438995361,71.8017578125,90.90972438995361,71.8017578125,90.90972438995361,71.8017578125Z" fill="#000000" fill-opacity="0.30000001192092896"/></g><g transform="matrix(0.8090169429779053,-0.5877853035926819,0.5877853035926819,0.8090169429779053,-12.452165476607433,73.10195686209437)"><path d="M110.43291774932861,55.712890625C110.43291774932861,55.712890625,106.26624774932861,55.712890625,106.26624774932861,55.712890625C106.26624774932861,55.712890625,106.26624774932861,72.37959062499999,106.26624774932861,72.37959062499999C106.26624774932861,72.37959062499999,110.43291774932861,72.37959062499999,110.43291774932861,72.37959062499999C110.43291774932861,72.37959062499999,110.43291774932861,55.712890625,110.43291774932861,55.712890625C110.43291774932861,55.712890625,110.43291774932861,55.712890625,110.43291774932861,55.712890625Z" fill="#000000" fill-opacity="0.30000001192092896"/></g><g transform="matrix(0.8660253286361694,-0.5000001788139343,0.5000001788139343,0.8660253286361694,-3.8130922553226583,69.27375855578651)"><path d="M131.52666774932862,41.752197265625C131.52666774932862,41.752197265625,127.35999774932861,41.752197265625,127.35999774932861,41.752197265625C127.35999774932861,41.752197265625,127.35999774932861,58.418897265625,127.35999774932861,58.418897265625C127.35999774932861,58.418897265625,131.52666774932862,58.418897265625,131.52666774932862,58.418897265625C131.52666774932862,58.418897265625,131.52666774932862,41.752197265625,131.52666774932862,41.752197265625C131.52666774932862,41.752197265625,131.52666774932862,41.752197265625,131.52666774932862,41.752197265625Z" fill="#000000" fill-opacity="0.800000011920929"/></g><g transform="matrix(0.913545548915863,-0.40673649311065674,0.40673649311065674,0.913545548915863,0.719546273960816,63.52925993345673)"><path d="M153.96734157745362,30.072021484375C153.96734157745362,30.072021484375,149.8006715774536,30.072021484375,149.8006715774536,30.072021484375C149.8006715774536,30.072021484375,149.8006715774536,46.738721484375,149.8006715774536,46.738721484375C149.8006715774536,46.738721484375,153.96734157745362,46.738721484375,153.96734157745362,46.738721484375C153.96734157745362,46.738721484375,153.96734157745362,30.072021484375,153.96734157745362,30.072021484375C153.96734157745362,30.072021484375,153.96734157745362,30.072021484375,153.96734157745362,30.072021484375Z" fill="#000000" fill-opacity="0.30000001192092896"/></g><g transform="matrix(0.9510565400123596,-0.3090169429779053,0.3090169429779053,0.9510565400123596,2.054781913724753,54.583255504105864)"><path d="M177.50664821807862,20.804931640625C177.50664821807862,20.804931640625,173.3399782180786,20.804931640625,173.3399782180786,20.804931640625C173.3399782180786,20.804931640625,173.3399782180786,37.471631640625,173.3399782180786,37.471631640625C173.3399782180786,37.471631640625,177.50664821807862,37.471631640625,177.50664821807862,37.471631640625C177.50664821807862,37.471631640625,177.50664821807862,20.804931640625,177.50664821807862,20.804931640625C177.50664821807862,20.804931640625,177.50664821807862,20.804931640625,177.50664821807862,20.804931640625Z" fill="#000000" fill-opacity="0.30000001192092896"/></g><g transform="matrix(0.978147566318512,-0.20791175961494446,0.20791175961494446,0.978147566318512,1.399791743432786,41.414767035391066)"><path d="M201.88408962432862,14.04833984375C201.88408962432862,14.04833984375,197.7174196243286,14.04833984375,197.7174196243286,14.04833984375C197.7174196243286,14.04833984375,197.7174196243286,30.71503984375,197.7174196243286,30.71503984375C197.7174196243286,30.71503984375,201.88408962432862,30.71503984375,201.88408962432862,30.71503984375C201.88408962432862,30.71503984375,201.88408962432862,14.04833984375,201.88408962432862,14.04833984375C201.88408962432862,14.04833984375,201.88408962432862,14.04833984375,201.88408962432862,14.04833984375Z" fill="#000000" fill-opacity="0.30000001192092896"/></g><g transform="matrix(0.9945218563079834,-0.10452865064144135,0.10452865064144135,0.9945218563079834,0.18761429710070843,23.329317221486278)"><path d="M226.83501735870362,9.874755859375C226.83501735870362,9.874755859375,222.6683473587036,9.874755859375,222.6683473587036,9.874755859375C222.6683473587036,9.874755859375,222.6683473587036,26.541455859375,222.6683473587036,26.541455859375C222.6683473587036,26.541455859375,226.83501735870362,26.541455859375,226.83501735870362,26.541455859375C226.83501735870362,26.541455859375,226.83501735870362,9.874755859375,226.83501735870362,9.874755859375C226.83501735870362,9.874755859375,226.83501735870362,9.874755859375,226.83501735870362,9.874755859375Z" fill="#000000" fill-opacity="0.30000001192092896"/></g></g><g><path d="M237.999345625,12.265851953125L237.999345625,9.531491953125L243.329755625,6.333251953125L245.388715625,6.333251953125L245.388715625,25.083251953125L242.686845625,25.083251953125L242.686845625,9.507081953124999L237.999345625,12.265851953125ZM255.105515625,22.715051953125L262.999315625,22.715051953125L262.999315625,25.083251953125L251.020215625,25.083251953125L251.020215625,23.366151953125L256.912115625,16.676651953125003Q258.531615625,14.870051953125,259.150015625,13.828351953125Q259.776715625,12.778551953125,259.776715625,11.566001953125Q259.776715625,10.068601953125,258.987315625,9.254801953125Q258.197915625,8.441001953125,256.944615625,8.441001953125Q255.667015625,8.441001953125,254.682315625,9.319901953125001Q253.697615625,10.198811953125,253.266315625,11.728761953125L251.069015625,10.459231953125Q251.638715625,8.359621953125,253.307015625,7.220291953125Q254.975215625,6.072831953125,257.034215625,6.072831953125Q258.588515625,6.072831953125,259.825515625,6.732011953125Q261.070615625,7.383051953125,261.77051562500003,8.628171953125001Q262.478515625,9.865151953125,262.478515625,11.557861953125Q262.478515625,13.209851953125,261.689115625,14.674751953125Q260.907915625,16.139551953125,258.922215625,18.361251953125L255.105515625,22.715051953125Z" fill="#000000" fill-opacity="0.5"/></g><g><path d="M17.263471484375,249.074348046875Q17.263471484375,253.786248046875,15.692771484375,256.235748046875Q14.122171484375,258.677148046875,11.216881484375001,258.677148046875Q8.319741484375001,258.677148046875,6.749101484375,256.235748046875Q5.186601484375,253.786248046875,5.186601484375,249.074348046875Q5.186601484375,244.329838046875,6.749101484375,241.872148046875Q8.319741484375001,239.406328046875,11.216881484375001,239.406328046875Q14.122171484375,239.406328046875,15.692771484375,241.855878046875Q17.263471484375,244.305418046875,17.263471484375,249.074348046875ZM7.888431484375,249.074348046875Q7.888431484375,252.703848046875,8.702231484375,254.510548046875Q9.524171484375,256.309048046875,11.225011484374999,256.309048046875Q12.950271484375,256.309048046875,13.755971484375,254.518648046875Q14.561571484375,252.728248046875,14.561571484375,249.074348046875Q14.561571484375,245.387778046875,13.755971484375,243.581138046875Q12.950271484375,241.774498046875,11.225011484374999,241.774498046875Q9.524171484375,241.774498046875,8.702231484375,243.581138046875Q7.888431484375,245.387778046875,7.888431484375,249.074348046875ZM25.808371484375,239.406328046875Q27.541771484375,239.406328046875,28.917071484375,240.187578046875Q30.292371484375,240.960698046875,31.065471484375,242.368568046875Q31.846771484375,243.776448046875,31.846771484375,245.591248046875Q31.846771484375,246.974648046875,31.342171484375,248.187248046875Q30.845771484375,249.399848046875,29.657671484375,251.369248046875L25.450271484375,258.416748046875L22.398471484375,258.416748046875L26.198971484375,252.329548046875Q26.679071484375,251.564548046875,26.988371484375,251.182048046875Q26.345471484375,251.409948046875,25.401471484375,251.409948046875Q23.765671484375,251.409948046875,22.471771484375,250.636848046875Q21.185971484375,249.85554804687501,20.477971484375,248.512748046875Q19.769971484375,247.170048046875,19.769971484375,245.485448046875Q19.769971484375,243.752038046875,20.559371484375,242.360438046875Q21.356871484375,240.960698046875,22.740271484375,240.187578046875Q24.131871484375,239.406328046875,25.808371484375,239.406328046875ZM25.816471484375,249.041748046875Q27.322071484375,249.041748046875,28.233471484375,248.024448046875Q29.144971484375,247.007248046875,29.144971484375,245.387778046875Q29.144971484375,243.760168046875,28.233471484375,242.767338046875Q27.322071484375,241.774498046875,25.816471484375,241.774498046875Q24.294671484375,241.774498046875,23.383171484375,242.783608046875Q22.471771484375,243.784588046875,22.471771484375,245.387778046875Q22.471771484375,247.031648046875,23.383171484375,248.040748046875Q24.294671484375,249.041748046875,25.816471484375,249.041748046875Z" fill="#000000" fill-opacity="0.5"/></g><g><path d="M479.763715625,249.074348046875Q479.763715625,253.786248046875,478.193015625,256.235748046875Q476.622415625,258.677148046875,473.717125625,258.677148046875Q470.819985625,258.677148046875,469.249345625,256.235748046875Q467.686845625,253.786248046875,467.686845625,249.074348046875Q467.686845625,244.329838046875,469.249345625,241.872148046875Q470.819985625,239.406328046875,473.717125625,239.406328046875Q476.622415625,239.406328046875,478.193015625,241.855878046875Q479.763715625,244.305418046875,479.763715625,249.074348046875ZM470.388675625,249.074348046875Q470.388675625,252.703848046875,471.202475625,254.510548046875Q472.024415625,256.309048046875,473.725255625,256.309048046875Q475.450515625,256.309048046875,476.256215625,254.518648046875Q477.061815625,252.728248046875,477.061815625,249.074348046875Q477.061815625,245.387778046875,476.256215625,243.581138046875Q475.450515625,241.774498046875,473.725255625,241.774498046875Q472.024415625,241.774498046875,471.202475625,243.581138046875Q470.388675625,245.387778046875,470.388675625,249.074348046875ZM491.344115625,248.463948046875Q492.833315625,249.025448046875,493.590215625,250.205448046875Q494.347015625,251.377348046875,494.347015625,253.118848046875Q494.347015625,254.860448046875,493.549515625,256.121848046875Q492.760115625,257.375048046875,491.409215625,258.026148046875Q490.066415625,258.677148046875,488.463215625,258.677148046875Q486.436815625,258.677148046875,484.784815625,257.627348046875Q483.132815625,256.577548046875,482.522415625,254.55934804687502L484.670915625,253.289748046875Q485.142915625,254.770948046875,486.192715625,255.544048046875Q487.250615625,256.309048046875,488.503915625,256.309048046875Q489.846715625,256.309048046875,490.741815625,255.438248046875Q491.645215625,254.567448046875,491.645215625,253.053748046875Q491.645215625,249.847448046875,487.405315625,249.847448046875L486.697315625,249.847448046875L486.697315625,247.479248046875L487.625015625,247.479248046875Q489.325815625,247.479248046875,490.221015625,246.632848046875Q491.124315625,245.778448046875,491.124315625,244.460038046875Q491.124315625,243.223068046875,490.359415625,242.498778046875Q489.594415625,241.774498046875,488.398115625,241.774498046875Q487.120415625,241.774498046875,486.233415625,242.563888046875Q485.346315625,243.345138046875,484.898715625,244.842528046875L482.774715625,243.581138046875Q483.393215625,241.530358046875,484.906915625,240.472408046875Q486.420615625,239.406328046875,488.503915625,239.406328046875Q490.074515625,239.406328046875,491.279015625,240.032958046875Q492.491515625,240.651448046875,493.158815625,241.782638046875Q493.826215625,242.913818046875,493.826215625,244.378668046875Q493.826215625,245.778448046875,493.207715625,246.844448046875Q492.589215625,247.902448046875,491.344115625,248.463948046875Z" fill="#000000" fill-opacity="0.5"/></g><g><path d="M248.513715625,484.490851953125Q248.513715625,489.202751953125,246.943015625,491.652251953125Q245.372415625,494.093651953125,242.467125625,494.093651953125Q239.569985625,494.093651953125,237.999345625,491.652251953125Q236.436845625,489.202751953125,236.436845625,484.490851953125Q236.436845625,479.746341953125,237.999345625,477.288651953125Q239.569985625,474.822831953125,242.467125625,474.822831953125Q245.372415625,474.822831953125,246.943015625,477.272381953125Q248.513715625,479.721921953125,248.513715625,484.490851953125ZM239.138675625,484.490851953125Q239.138675625,488.120351953125,239.952475625,489.927051953125Q240.774415625,491.725551953125,242.475255625,491.725551953125Q244.200515625,491.725551953125,245.006215625,489.935151953125Q245.811815625,488.144751953125,245.811815625,484.490851953125Q245.811815625,480.804281953125,245.006215625,478.997641953125Q244.200515625,477.191001953125,242.475255625,477.191001953125Q240.774415625,477.191001953125,239.952475625,478.997641953125Q239.138675625,480.804281953125,239.138675625,484.490851953125ZM257.986315625,482.090051953125Q259.622115625,482.090051953125,260.899715625,482.871351953125Q262.177415625,483.652551953125,262.893515625,485.011651953125Q263.617815625,486.362551953125,263.617815625,488.022751953125Q263.617815625,489.756151953125,262.820315625,491.147751953125Q262.030915625,492.539351953125,260.639315625,493.320551953125Q259.255815625,494.093651953125,257.579415625,494.093651953125Q255.846015625,494.093651953125,254.470715625,493.320551953125Q253.095415625,492.539351953125,252.314115625,491.139551953125Q251.541015625,489.731651953125,251.541015625,487.908751953125Q251.541015625,486.533451953125,252.037415625,485.304651953125Q252.542015625,484.075751953125,253.705715625,482.138951953125L257.937515625,475.083251953125L260.989215625,475.083251953125L257.188815625,481.170451953125L256.399415625,482.317951953125Q257.042315625,482.090051953125,257.986315625,482.090051953125ZM257.571315625,491.725551953125Q259.093115625,491.725551953125,260.004515625,490.724551953125Q260.916015625,489.715451953125,260.916015625,488.120351953125Q260.916015625,486.468351953125,260.004515625,485.467351953125Q259.093115625,484.458251953125,257.571315625,484.458251953125Q256.065715625,484.458251953125,255.154315625,485.483651953125Q254.242815625,486.500851953125,254.242815625,488.120351953125Q254.242815625,489.739851953125,255.154315625,490.732651953125Q256.065715625,491.725551953125,257.571315625,491.725551953125Z" fill="#000000" fill-opacity="0.5"/></g></g></svg>