<svg xmlns="http://www.w3.org/2000/svg" xmlns:xlink="http://www.w3.org/1999/xlink" fill="none" version="1.1" width="202" height="202" viewBox="0 0 202 202"><defs><clipPath id="master_svg0_34_2699"><rect x="0" y="0" width="202" height="202" rx="0"/></clipPath></defs><g clip-path="url(#master_svg0_34_2699)"><g><g transform="matrix(0.4999999701976776,-0.8660253882408142,0.8660253882408142,0.4999999701976776,-40.968536043262475,83.96860291489429)"><g><g><g><rect x="55.23455047607422" y="119.46409606933594" width="2" height="12" rx="0" fill="#FFFFFF" fill-opacity="1"/></g></g><g><g><rect x="52.23455047607422" y="77.46409606933594" width="8" height="44" rx="4" fill="#FFFFFF" fill-opacity="0.5"/></g><g><rect x="53.23442840576172" y="78.46409606933594" width="6" height="42" rx="3" fill-opacity="0" stroke-opacity="1" stroke="#FFFFFF" fill="none" stroke-width="2"/></g></g></g></g><g transform="matrix(0.7071067690849304,0.7071067690849304,-0.7071067690849304,0.7071067690849304,70.05383081955279,-108.54628883695204)"><g><g><g><ellipse cx="170.0538787841797" cy="126.2886962890625" rx="4" ry="4" fill="#FFFFFF" fill-opacity="1"/></g></g><g transform="matrix(1,-1.7151245100058819e-15,1.7151245100058819e-15,1,-5.684341886080802e-14,2.8421709430404007e-13)"><g><rect x="166.0538787841797" y="30.2890625" width="8" height="86" rx="4" fill="#FFFFFF" fill-opacity="0.5"/></g><g><rect x="167.0537567138672" y="31.2890625" width="6" height="84" rx="3" fill-opacity="0" stroke-opacity="1" stroke="#FFFFFF" fill="none" stroke-width="2"/></g></g><g transform="matrix(1,-1.7151245100058819e-15,1.7151245100058819e-15,1,-1.9895196601282805e-13,2.8421709430404007e-13)"><g><rect x="169.0538787841797" y="114.289306640625" width="2" height="12" rx="0" fill="#FFFFFF" fill-opacity="1"/></g></g></g></g><g transform="matrix(-0.8660253882408142,-0.4999999701976776,0.4999999701976776,-0.8660253882408142,-8.196036866011582,393.32941585438994)"><g><g transform="matrix(1,-1.6081230200044232e-16,1.6081230200044232e-16,1,-2.842170943040401e-14,0)"><g><rect x="50.59812927246094" y="197.7627716064453" width="2" height="126" rx="1" fill="#FF6B00" fill-opacity="1"/></g></g><g><g><ellipse cx="51.59812927246094" cy="307.7626495361328" rx="3" ry="3" fill="#000000" fill-opacity="1"/></g><g><ellipse cx="51.597991943359375" cy="307.7626495361328" rx="2.5" ry="2.5" fill-opacity="0" stroke-opacity="1" stroke="#FF6B00" fill="none" stroke-width="1"/></g></g></g></g></g></g></svg>